<?xml version="1.0" encoding="UTF-8"?>
<svg id="Layer_1" data-name="Layer 1" xmlns="http://www.w3.org/2000/svg" viewBox="0 0 380 541">
  <defs>
    <style>
      .cls-1 {
        fill: #333;
      }

      .cls-2 {
        fill: #231f20;
      }

      .cls-3 {
        fill: #fff;
      }

      .cls-4 {
        fill: #0c6735;
      }

      .cls-5, .cls-6 {
        fill: #444545;
      }

      .cls-7 {
        stroke: #0d8341;
      }

      .cls-7, .cls-8 {
        fill: none;
      }

      .cls-7, .cls-8, .cls-6 {
        stroke-miterlimit: 10;
      }

      .cls-9 {
        fill: #888;
      }

      .cls-8 {
        stroke-width: .5px;
      }

      .cls-8, .cls-6 {
        stroke: #888;
      }

      .cls-6 {
        stroke-width: 2px;
      }
    </style>
  </defs>
  <g>
    <path class="cls-1" d="M33.72,28.65c0,.89-.22,1.66-.65,2.32s-1.06,1.16-1.88,1.52c-.82.36-1.82.53-3,.53-.52,0-1.03-.03-1.52-.1-.5-.07-.97-.17-1.43-.3-.45-.13-.89-.3-1.3-.5v-2.95c.71.31,1.45.6,2.21.85s1.52.38,2.28.38c.52,0,.94-.07,1.26-.21.32-.14.55-.32.69-.56s.22-.51.22-.82c0-.38-.13-.7-.38-.96s-.6-.52-1.04-.75c-.44-.23-.94-.48-1.49-.75-.35-.16-.73-.36-1.14-.6-.41-.24-.8-.52-1.17-.87s-.67-.76-.91-1.25c-.24-.49-.35-1.07-.35-1.76,0-.9.21-1.66.62-2.3s1-1.12,1.76-1.46c.76-.34,1.66-.51,2.7-.51.78,0,1.52.09,2.23.27.71.18,1.45.44,2.22.78l-1.03,2.47c-.69-.28-1.31-.5-1.86-.65-.55-.15-1.1-.23-1.67-.23-.4,0-.73.06-1.01.19s-.49.3-.64.53-.22.49-.22.79c0,.36.1.65.31.9.21.24.52.48.94.7.42.23.95.49,1.57.79.77.36,1.42.74,1.96,1.13.54.39.96.85,1.26,1.38s.44,1.19.44,1.97Z"/>
    <path class="cls-1" d="M46.61,27.06c0,.96-.13,1.8-.38,2.54-.26.74-.63,1.36-1.12,1.87-.49.51-1.08.89-1.76,1.15-.69.26-1.46.39-2.32.39-.81,0-1.55-.13-2.22-.39-.67-.26-1.26-.64-1.75-1.15-.5-.51-.88-1.13-1.15-1.87-.27-.74-.41-1.59-.41-2.54,0-1.27.23-2.35.68-3.23s1.09-1.55,1.93-2.01,1.83-.69,2.98-.69c1.07,0,2.02.23,2.86.69.83.46,1.48,1.13,1.96,2.01.48.88.71,1.96.71,3.23ZM38.68,27.06c0,.75.08,1.38.25,1.9s.42.9.77,1.16.8.39,1.36.39,1-.13,1.35-.39c.35-.26.6-.65.76-1.16.16-.51.24-1.15.24-1.9s-.08-1.39-.24-1.89c-.16-.5-.42-.88-.76-1.13s-.8-.38-1.36-.38c-.83,0-1.43.28-1.8.85-.37.57-.56,1.42-.56,2.55Z"/>
    <path class="cls-1" d="M52.32,32.81h-3.13v-15.96h3.13v15.96Z"/>
    <path class="cls-1" d="M57.17,16.86c.46,0,.87.11,1.2.32.33.21.5.62.5,1.2s-.17.98-.5,1.2c-.33.22-.74.33-1.2.33s-.87-.11-1.2-.33c-.33-.22-.5-.62-.5-1.2s.17-.99.5-1.2c.33-.22.73-.32,1.2-.32ZM58.73,21.35v11.46h-3.13v-11.46h3.13Z"/>
    <path class="cls-1" d="M66.67,33.02c-1.13,0-2.1-.21-2.9-.62s-1.41-1.05-1.83-1.92-.63-1.98-.63-3.33.24-2.54.71-3.43c.47-.88,1.13-1.54,1.98-1.95.84-.42,1.82-.63,2.94-.63.79,0,1.48.08,2.06.23.58.15,1.08.34,1.51.55l-.92,2.42c-.49-.2-.95-.36-1.37-.49s-.85-.19-1.27-.19c-.55,0-1,.13-1.36.38-.36.26-.63.64-.81,1.15s-.27,1.16-.27,1.93.1,1.39.29,1.89.47.87.83,1.11.8.36,1.32.36c.65,0,1.23-.09,1.73-.26.51-.17,1-.42,1.48-.73v2.68c-.48.3-.98.52-1.5.65-.52.13-1.18.2-1.98.2Z"/>
    <path class="cls-1" d="M74.38,16.86c.46,0,.87.11,1.2.32.33.21.5.62.5,1.2s-.17.98-.5,1.2c-.33.22-.74.33-1.2.33s-.87-.11-1.2-.33c-.33-.22-.5-.62-.5-1.2s.17-.99.5-1.2c.33-.22.73-.32,1.2-.32ZM75.94,21.35v11.46h-3.13v-11.46h3.13Z"/>
    <path class="cls-1" d="M84.05,30.52c.34,0,.67-.03,1-.1.33-.07.65-.15.97-.26v2.33c-.33.15-.75.28-1.25.37-.5.1-1.04.15-1.62.15-.68,0-1.3-.11-1.84-.33-.54-.22-.97-.61-1.28-1.16-.31-.55-.47-1.32-.47-2.3v-5.53h-1.5v-1.32l1.72-1.05.9-2.42h2v2.44h3.21v2.35h-3.21v5.53c0,.44.12.76.37.98.25.21.58.32.99.32Z"/>
    <path class="cls-1" d="M98.85,21.35v11.46h-2.4l-.42-1.47h-.16c-.25.39-.55.71-.92.95s-.78.43-1.22.54-.91.17-1.38.17c-.82,0-1.53-.15-2.14-.44-.61-.29-1.08-.74-1.42-1.36-.34-.62-.51-1.42-.51-2.4v-7.48h3.13v6.7c0,.82.15,1.44.44,1.86s.76.63,1.4.63,1.13-.15,1.5-.44c.36-.29.62-.72.76-1.28.15-.56.22-1.25.22-2.07v-5.39h3.13Z"/>
    <path class="cls-1" d="M105.76,33.02c-1.28,0-2.32-.5-3.12-1.5-.8-1-1.21-2.47-1.21-4.41s.41-3.45,1.22-4.46c.81-1.01,1.88-1.51,3.19-1.51.55,0,1.03.08,1.45.23s.78.35,1.08.6c.3.25.56.54.77.85h.1c-.04-.22-.09-.54-.15-.97-.06-.43-.09-.87-.09-1.32v-3.67h3.14v15.96h-2.4l-.6-1.49h-.13c-.2.31-.45.6-.74.86-.3.26-.65.46-1.06.61s-.89.23-1.45.23ZM106.86,30.52c.85,0,1.46-.25,1.81-.76.35-.51.54-1.28.56-2.3v-.34c0-1.11-.17-1.97-.51-2.56s-.98-.89-1.91-.89c-.69,0-1.23.3-1.62.89s-.58,1.45-.58,2.57.2,1.97.59,2.53c.39.57.95.85,1.67.85Z"/>
    <path class="cls-1" d="M124.51,33.02c-1.28,0-2.32-.5-3.12-1.5-.8-1-1.21-2.47-1.21-4.41s.41-3.45,1.22-4.46c.81-1.01,1.88-1.51,3.19-1.51.55,0,1.03.08,1.45.23s.78.35,1.08.6c.3.25.56.54.77.85h.1c-.04-.22-.09-.54-.15-.97-.06-.43-.09-.87-.09-1.32v-3.67h3.14v15.96h-2.4l-.6-1.49h-.13c-.2.31-.45.6-.74.86-.3.26-.65.46-1.06.61s-.89.23-1.45.23ZM125.61,30.52c.85,0,1.46-.25,1.81-.76.35-.51.54-1.28.56-2.3v-.34c0-1.11-.17-1.97-.51-2.56s-.98-.89-1.91-.89c-.69,0-1.23.3-1.62.89s-.58,1.45-.58,2.57.2,1.97.59,2.53c.39.57.95.85,1.67.85Z"/>
    <path class="cls-1" d="M138.89,21.13c1.06,0,1.97.2,2.74.61.77.41,1.36,1,1.77,1.77s.63,1.72.63,2.83v1.52h-7.39c.03.88.3,1.57.79,2.08.5.5,1.18.75,2.07.75.73,0,1.4-.08,2.01-.23s1.23-.38,1.88-.68v2.42c-.57.28-1.16.49-1.78.62-.62.13-1.37.19-2.25.19-1.15,0-2.17-.21-3.05-.64-.89-.42-1.58-1.07-2.08-1.94-.5-.87-.75-1.96-.75-3.28s.23-2.46.68-3.35c.45-.89,1.09-1.56,1.9-2.01.81-.45,1.76-.67,2.84-.67ZM138.92,23.36c-.61,0-1.11.19-1.51.58-.4.39-.63,1-.69,1.84h4.39c0-.46-.09-.88-.25-1.24-.16-.36-.4-.65-.72-.86-.32-.21-.72-.32-1.22-.32Z"/>
    <path class="cls-1" d="M156.69,33.02c-1.13,0-2.1-.21-2.9-.62s-1.41-1.05-1.83-1.92-.62-1.98-.62-3.33.24-2.54.71-3.43c.47-.88,1.13-1.54,1.98-1.95.84-.42,1.82-.63,2.94-.63.79,0,1.48.08,2.06.23.58.15,1.08.34,1.51.55l-.92,2.42c-.49-.2-.95-.36-1.37-.49s-.85-.19-1.27-.19c-.55,0-1,.13-1.36.38-.36.26-.63.64-.81,1.15s-.27,1.16-.27,1.93.1,1.39.29,1.89.47.87.83,1.11.8.36,1.32.36c.65,0,1.23-.09,1.73-.26.51-.17,1-.42,1.48-.73v2.68c-.48.3-.98.52-1.5.65-.52.13-1.18.2-1.98.2Z"/>
    <path class="cls-1" d="M169.23,21.13c.16,0,.34,0,.55.03.21.02.38.04.51.07l-.24,2.93c-.1-.03-.25-.06-.44-.08-.19-.02-.35-.03-.49-.03-.4,0-.79.05-1.17.15-.38.1-.72.27-1.02.5s-.54.53-.71.9c-.17.37-.26.83-.26,1.37v5.83h-3.13v-11.46h2.37l.46,1.93h.15c.23-.39.51-.75.85-1.07.34-.32.72-.58,1.16-.78.43-.2.9-.29,1.41-.29Z"/>
    <path class="cls-1" d="M177.09,21.13c1.06,0,1.97.2,2.74.61.77.41,1.36,1,1.77,1.77s.62,1.72.62,2.83v1.52h-7.39c.03.88.3,1.57.79,2.08.5.5,1.18.75,2.07.75.73,0,1.4-.08,2.01-.23s1.23-.38,1.88-.68v2.42c-.57.28-1.16.49-1.78.62-.62.13-1.37.19-2.25.19-1.15,0-2.17-.21-3.05-.64-.88-.42-1.58-1.07-2.08-1.94-.5-.87-.75-1.96-.75-3.28s.23-2.46.68-3.35c.46-.89,1.09-1.56,1.9-2.01.81-.45,1.76-.67,2.84-.67ZM177.11,23.36c-.61,0-1.11.19-1.51.58-.4.39-.63,1-.69,1.84h4.39c0-.46-.09-.88-.25-1.24-.16-.36-.4-.65-.72-.86-.32-.21-.72-.32-1.21-.32ZM180.97,16.72v.22c-.2.19-.46.43-.78.71s-.67.57-1.04.88c-.37.3-.73.59-1.09.87-.36.28-.67.51-.93.69h-2.08v-.28c.23-.26.49-.57.78-.93.3-.36.59-.73.89-1.11s.54-.73.74-1.05h3.51Z"/>
    <path class="cls-1" d="M188.4,33.02c-1.28,0-2.32-.5-3.12-1.5-.8-1-1.21-2.47-1.21-4.41s.41-3.45,1.22-4.46c.81-1.01,1.88-1.51,3.19-1.51.55,0,1.03.08,1.45.23s.78.35,1.08.6c.3.25.56.54.77.85h.1c-.04-.22-.09-.54-.15-.97-.06-.43-.09-.87-.09-1.32v-3.67h3.14v15.96h-2.4l-.61-1.49h-.13c-.2.31-.45.6-.74.86-.3.26-.65.46-1.06.61s-.89.23-1.45.23ZM189.5,30.52c.85,0,1.46-.25,1.81-.76.35-.51.54-1.28.56-2.3v-.34c0-1.11-.17-1.97-.51-2.56s-.98-.89-1.91-.89c-.69,0-1.23.3-1.62.89s-.58,1.45-.58,2.57.2,1.97.59,2.53c.39.57.95.85,1.67.85Z"/>
    <path class="cls-1" d="M199.63,16.86c.46,0,.86.11,1.2.32.33.21.5.62.5,1.2s-.17.98-.5,1.2c-.33.22-.73.33-1.2.33s-.87-.11-1.21-.33c-.33-.22-.5-.62-.5-1.2s.17-.99.5-1.2c.33-.22.73-.32,1.21-.32ZM201.19,21.35v11.46h-3.13v-11.46h3.13Z"/>
    <path class="cls-1" d="M209.3,30.52c.34,0,.67-.03,1-.1.32-.07.65-.15.97-.26v2.33c-.33.15-.75.28-1.25.37-.5.1-1.04.15-1.63.15-.68,0-1.3-.11-1.84-.33-.54-.22-.97-.61-1.28-1.16-.31-.55-.47-1.32-.47-2.3v-5.53h-1.5v-1.32l1.72-1.05.9-2.42h2v2.44h3.21v2.35h-3.21v5.53c0,.44.12.76.37.98.25.21.58.32.99.32Z"/>
    <path class="cls-1" d="M224,27.06c0,.96-.13,1.8-.38,2.54-.26.74-.63,1.36-1.12,1.87-.49.51-1.08.89-1.76,1.15-.69.26-1.46.39-2.32.39-.81,0-1.55-.13-2.22-.39-.67-.26-1.26-.64-1.75-1.15-.5-.51-.88-1.13-1.15-1.87-.27-.74-.41-1.59-.41-2.54,0-1.27.23-2.35.68-3.23s1.09-1.55,1.93-2.01,1.83-.69,2.98-.69c1.07,0,2.02.23,2.86.69.83.46,1.48,1.13,1.96,2.01.48.88.71,1.96.71,3.23ZM216.08,27.06c0,.75.08,1.38.25,1.9s.42.9.77,1.16.8.39,1.36.39,1-.13,1.35-.39c.35-.26.6-.65.76-1.16.16-.51.24-1.15.24-1.9s-.08-1.39-.24-1.89c-.16-.5-.42-.88-.76-1.13s-.8-.38-1.36-.38c-.83,0-1.43.28-1.8.85-.37.57-.56,1.42-.56,2.55Z"/>
    <path class="cls-1" d="M235.67,33.02c-1.28,0-2.32-.5-3.12-1.5-.8-1-1.21-2.47-1.21-4.41s.41-3.45,1.22-4.46c.81-1.01,1.88-1.51,3.19-1.51.55,0,1.03.08,1.45.23s.78.35,1.08.6c.3.25.56.54.77.85h.1c-.04-.22-.09-.54-.15-.97-.06-.43-.09-.87-.09-1.32v-3.67h3.14v15.96h-2.4l-.61-1.49h-.13c-.2.31-.45.6-.74.86-.3.26-.65.46-1.06.61s-.89.23-1.45.23ZM236.77,30.52c.85,0,1.46-.25,1.81-.76.35-.51.54-1.28.56-2.3v-.34c0-1.11-.17-1.97-.51-2.56s-.98-.89-1.91-.89c-.69,0-1.23.3-1.62.89s-.58,1.45-.58,2.57.2,1.97.59,2.53c.39.57.95.85,1.67.85Z"/>
    <path class="cls-1" d="M250.06,21.13c1.06,0,1.97.2,2.74.61.77.41,1.36,1,1.77,1.77s.62,1.72.62,2.83v1.52h-7.39c.03.88.3,1.57.79,2.08.5.5,1.18.75,2.07.75.73,0,1.4-.08,2.01-.23s1.23-.38,1.88-.68v2.42c-.57.28-1.16.49-1.78.62-.62.13-1.37.19-2.25.19-1.15,0-2.17-.21-3.05-.64-.88-.42-1.58-1.07-2.08-1.94-.5-.87-.75-1.96-.75-3.28s.23-2.46.68-3.35c.46-.89,1.09-1.56,1.9-2.01.81-.45,1.76-.67,2.84-.67ZM250.08,23.36c-.61,0-1.11.19-1.51.58-.4.39-.63,1-.69,1.84h4.39c0-.46-.09-.88-.25-1.24-.16-.36-.4-.65-.72-.86-.32-.21-.72-.32-1.21-.32Z"/>
    <path class="cls-1" d="M267.85,33.02c-1.13,0-2.1-.21-2.9-.62s-1.41-1.05-1.83-1.92-.63-1.98-.63-3.33.24-2.54.71-3.43c.47-.88,1.13-1.54,1.98-1.95.84-.42,1.82-.63,2.94-.63.79,0,1.48.08,2.06.23.58.15,1.08.34,1.51.55l-.92,2.42c-.49-.2-.95-.36-1.37-.49s-.85-.19-1.27-.19c-.55,0-1,.13-1.36.38-.36.26-.63.64-.81,1.15s-.27,1.16-.27,1.93.1,1.39.29,1.89.47.87.83,1.11.8.36,1.32.36c.65,0,1.23-.09,1.73-.26.51-.17,1-.42,1.48-.73v2.68c-.48.3-.98.52-1.5.65-.52.13-1.18.2-1.98.2Z"/>
    <path class="cls-1" d="M284.41,27.06c0,.96-.13,1.8-.38,2.54-.26.74-.63,1.36-1.12,1.87-.49.51-1.08.89-1.76,1.15-.69.26-1.46.39-2.32.39-.81,0-1.55-.13-2.22-.39-.67-.26-1.26-.64-1.75-1.15-.5-.51-.88-1.13-1.15-1.87-.27-.74-.41-1.59-.41-2.54,0-1.27.23-2.35.68-3.23s1.09-1.55,1.93-2.01,1.83-.69,2.98-.69c1.07,0,2.03.23,2.86.69.83.46,1.48,1.13,1.96,2.01.47.88.71,1.96.71,3.23ZM276.48,27.06c0,.75.08,1.38.25,1.9s.42.9.77,1.16.8.39,1.36.39,1-.13,1.35-.39c.34-.26.6-.65.76-1.16.16-.51.24-1.15.24-1.9s-.08-1.39-.24-1.89c-.16-.5-.42-.88-.76-1.13s-.8-.38-1.36-.38c-.83,0-1.43.28-1.8.85-.37.57-.56,1.42-.56,2.55Z"/>
    <path class="cls-1" d="M293.5,21.13c1.22,0,2.21.33,2.95,1,.75.67,1.12,1.73,1.12,3.2v7.48h-3.13v-6.7c0-.82-.15-1.44-.45-1.86-.3-.42-.76-.63-1.4-.63-.96,0-1.61.32-1.96.97s-.52,1.59-.52,2.81v5.39h-3.13v-11.46h2.39l.42,1.47h.17c.25-.4.55-.72.92-.96.37-.25.77-.43,1.22-.54.45-.12.91-.17,1.39-.17Z"/>
    <path class="cls-1" d="M308.79,29.41c0,.78-.18,1.44-.55,1.97-.37.54-.91.94-1.64,1.22-.72.28-1.63.42-2.71.42-.8,0-1.49-.05-2.06-.15-.57-.1-1.15-.27-1.73-.51v-2.58c.62.28,1.29.51,2,.69.71.18,1.34.27,1.88.27.61,0,1.04-.09,1.31-.27.26-.18.39-.42.39-.71,0-.19-.05-.36-.16-.52-.11-.15-.33-.33-.68-.52-.35-.2-.9-.45-1.64-.76-.72-.3-1.31-.6-1.77-.91-.46-.31-.8-.67-1.03-1.09-.22-.42-.33-.96-.33-1.6,0-1.06.41-1.86,1.24-2.39.82-.54,1.93-.81,3.31-.81.71,0,1.39.07,2.04.22.65.14,1.31.37,1.99.69l-.94,2.26c-.57-.25-1.1-.45-1.6-.6-.5-.16-1.01-.24-1.53-.24-.46,0-.8.06-1.04.18s-.35.31-.35.56c0,.18.06.35.18.49.12.14.35.3.7.48.34.17.85.4,1.52.67.65.27,1.21.55,1.69.84s.85.65,1.11,1.08c.26.43.39.98.39,1.66Z"/>
    <path class="cls-1" d="M321.75,21.35v11.46h-2.4l-.42-1.47h-.16c-.25.39-.55.71-.92.95s-.78.43-1.22.54-.91.17-1.38.17c-.82,0-1.53-.15-2.14-.44-.61-.29-1.08-.74-1.42-1.36-.34-.62-.51-1.42-.51-2.4v-7.48h3.13v6.7c0,.82.15,1.44.44,1.86s.76.63,1.4.63,1.13-.15,1.5-.44c.36-.29.62-.72.76-1.28.15-.56.22-1.25.22-2.07v-5.39h3.13Z"/>
    <path class="cls-1" d="M338.5,21.13c1.3,0,2.28.33,2.95,1,.67.67,1,1.73,1,3.2v7.48h-3.14v-6.7c0-.82-.14-1.44-.42-1.86s-.71-.63-1.3-.63c-.83,0-1.42.3-1.76.89s-.52,1.44-.52,2.54v5.75h-3.13v-6.7c0-.55-.06-1-.18-1.37s-.31-.65-.56-.83-.58-.28-.97-.28c-.58,0-1.04.15-1.37.44-.33.29-.57.72-.71,1.28-.14.56-.21,1.25-.21,2.07v5.39h-3.13v-11.46h2.39l.42,1.47h.17c.23-.4.52-.72.88-.96.35-.25.74-.43,1.16-.54s.85-.17,1.29-.17c.84,0,1.55.14,2.14.41.58.27,1.03.7,1.35,1.27h.28c.34-.59.83-1.02,1.45-1.28.63-.27,1.27-.4,1.93-.4Z"/>
    <path class="cls-1" d="M356.07,27.06c0,.96-.13,1.8-.38,2.54-.26.74-.63,1.36-1.12,1.87-.49.51-1.08.89-1.76,1.15-.69.26-1.46.39-2.32.39-.81,0-1.55-.13-2.22-.39-.67-.26-1.26-.64-1.75-1.15-.5-.51-.88-1.13-1.15-1.87-.27-.74-.41-1.59-.41-2.54,0-1.27.23-2.35.68-3.23s1.09-1.55,1.93-2.01,1.83-.69,2.98-.69c1.07,0,2.03.23,2.86.69.83.46,1.48,1.13,1.96,2.01.48.88.71,1.96.71,3.23ZM348.15,27.06c0,.75.08,1.38.25,1.9s.42.9.77,1.16.8.39,1.36.39,1-.13,1.35-.39c.35-.26.6-.65.76-1.16.16-.51.24-1.15.24-1.9s-.08-1.39-.24-1.89c-.16-.5-.42-.88-.76-1.13s-.8-.38-1.36-.38c-.83,0-1.43.28-1.8.85-.37.57-.56,1.42-.56,2.55Z"/>
  </g>
  <g>
    <path class="cls-2" d="M14.32,48.96c1.11,0,1.91.22,2.42.65s.76,1.05.76,1.85c0,.36-.06.71-.18,1.03s-.31.61-.58.86-.61.44-1.05.59-.96.21-1.58.21h-1.04v3.37h-1v-8.57h2.24ZM14.22,49.81h-1.15v3.49h.93c.55,0,1-.06,1.37-.18s.64-.31.82-.57.28-.61.28-1.05c0-.57-.18-1-.54-1.27s-.93-.42-1.71-.42Z"/>
    <path class="cls-2" d="M24.69,54.3c0,.53-.07,1-.21,1.41s-.33.76-.59,1.05-.57.5-.93.65-.78.23-1.24.23c-.43,0-.82-.08-1.18-.23s-.67-.37-.93-.65-.46-.63-.6-1.05-.21-.88-.21-1.41c0-.7.12-1.3.36-1.8s.58-.87,1.02-1.13.97-.39,1.58-.39,1.1.13,1.54.39.78.64,1.03,1.13.37,1.09.37,1.79ZM19.8,54.3c0,.52.07.96.21,1.34s.35.67.63.88.65.31,1.1.31.81-.1,1.1-.31.5-.5.64-.88.21-.83.21-1.34-.07-.95-.21-1.33-.35-.66-.63-.86-.65-.3-1.11-.3c-.67,0-1.16.22-1.47.66s-.47,1.05-.47,1.83Z"/>
    <path class="cls-2" d="M29.29,50.99c.13,0,.26,0,.4.02s.27.03.38.06l-.12.9c-.11-.03-.22-.05-.35-.06s-.25-.02-.36-.02c-.26,0-.5.05-.73.16s-.43.25-.6.45-.31.43-.4.7-.15.57-.15.91v3.45h-.98v-6.42h.81l.11,1.18h.04c.13-.24.29-.46.48-.65s.41-.35.65-.47.52-.18.83-.18Z"/>
    <path class="cls-2" d="M37.25,51.87h-1.6v5.66h-.97v-5.66h-1.14v-.47l1.14-.32v-.43c0-.54.08-.98.24-1.32s.39-.59.7-.75.68-.24,1.11-.24c.25,0,.47.02.68.06s.39.09.54.15l-.25.77c-.13-.04-.28-.08-.45-.12s-.33-.06-.51-.06c-.37,0-.65.12-.82.36s-.27.62-.27,1.13v.47h1.6v.76Z"/>
    <path class="cls-2" d="M40.83,51c.77,0,1.33.17,1.71.52s.56.89.56,1.65v4.37h-.71l-.19-.95h-.05c-.18.23-.37.43-.56.59s-.42.28-.68.36-.57.12-.94.12c-.39,0-.74-.07-1.04-.21s-.54-.34-.71-.62-.26-.63-.26-1.05c0-.64.25-1.13.76-1.48s1.28-.53,2.32-.56l1.11-.05v-.39c0-.55-.12-.94-.36-1.17s-.57-.33-1.01-.33c-.34,0-.66.05-.96.15s-.59.21-.87.35l-.3-.74c.29-.15.62-.28,1-.38s.77-.16,1.18-.16ZM42.13,54.36l-.98.04c-.8.03-1.37.16-1.69.39s-.49.56-.49.98c0,.37.11.64.33.81s.52.26.88.26c.57,0,1.04-.16,1.4-.47s.54-.79.54-1.42v-.59Z"/>
    <path class="cls-2" d="M46.51,57.53l-2.44-6.42h1.04l1.41,3.88c.1.27.2.56.3.88s.17.58.21.77h.04c.05-.2.12-.45.23-.78s.21-.61.3-.88l1.41-3.88h1.04l-2.44,6.42h-1.11Z"/>
    <path class="cls-2" d="M56.63,54.3c0,.53-.07,1-.21,1.41s-.33.76-.59,1.05-.57.5-.93.65-.78.23-1.24.23c-.43,0-.82-.08-1.18-.23s-.67-.37-.93-.65-.46-.63-.6-1.05-.21-.88-.21-1.41c0-.7.12-1.3.36-1.8s.58-.87,1.02-1.13.97-.39,1.58-.39,1.1.13,1.54.39.78.64,1.03,1.13.37,1.09.37,1.79ZM51.74,54.3c0,.52.07.96.21,1.34s.35.67.63.88.65.31,1.1.31.81-.1,1.1-.31.5-.5.64-.88.21-.83.21-1.34-.07-.95-.21-1.33-.35-.66-.63-.86-.65-.3-1.11-.3c-.67,0-1.16.22-1.47.66s-.47,1.05-.47,1.83Z"/>
    <path class="cls-2" d="M61.23,50.99c.13,0,.26,0,.4.02s.27.03.38.06l-.12.9c-.11-.03-.22-.05-.35-.06s-.25-.02-.36-.02c-.26,0-.5.05-.73.16s-.43.25-.6.45-.31.43-.4.7-.15.57-.15.91v3.45h-.98v-6.42h.81l.11,1.18h.04c.13-.24.29-.46.48-.65s.41-.35.65-.47.52-.18.83-.18Z"/>
    <path class="cls-2" d="M64.33,56.13l.08.13c-.07.29-.16.59-.27.91s-.22.65-.35.98-.25.63-.38.92h-.73c.08-.31.16-.64.24-.99s.15-.69.21-1.03.12-.65.16-.93h1.04Z"/>
    <path class="cls-2" d="M72.01,57.64c-.58,0-1.09-.12-1.53-.36s-.79-.6-1.03-1.09-.37-1.1-.37-1.85.13-1.41.39-1.91.62-.86,1.08-1.1.98-.36,1.56-.36c.32,0,.63.03.93.1s.54.15.74.24l-.29.81c-.2-.08-.42-.15-.68-.21s-.5-.09-.72-.09c-.45,0-.82.1-1.11.29s-.52.47-.66.84-.22.83-.22,1.37.07.96.21,1.33.36.65.64.84.64.29,1.06.29c.34,0,.65-.04.92-.11s.52-.16.74-.25v.87c-.21.11-.45.19-.72.25s-.58.09-.94.09Z"/>
    <path class="cls-2" d="M80.72,54.3c0,.53-.07,1-.21,1.41s-.33.76-.59,1.05-.57.5-.93.65-.78.23-1.24.23c-.43,0-.82-.08-1.18-.23s-.67-.37-.93-.65-.46-.63-.6-1.05-.21-.88-.21-1.41c0-.7.12-1.3.36-1.8s.58-.87,1.02-1.13.97-.39,1.58-.39,1.1.13,1.54.39.78.64,1.03,1.13.37,1.09.37,1.79ZM75.84,54.3c0,.52.07.96.21,1.34s.35.67.63.88.65.31,1.1.31.81-.1,1.1-.31.5-.5.64-.88.21-.83.21-1.34-.07-.95-.21-1.33-.35-.66-.63-.86-.65-.3-1.11-.3c-.67,0-1.16.22-1.47.66s-.47,1.05-.47,1.83Z"/>
    <path class="cls-2" d="M89.38,50.99c.71,0,1.24.18,1.6.55s.54.96.54,1.78v4.21h-.96v-4.16c0-.52-.11-.91-.34-1.17s-.56-.39-1-.39c-.62,0-1.07.18-1.35.54s-.42.89-.42,1.59v3.59h-.97v-4.16c0-.35-.05-.64-.15-.87s-.25-.4-.45-.52-.45-.17-.75-.17c-.43,0-.77.09-1.03.26s-.44.44-.56.78-.17.77-.17,1.27v3.4h-.97v-6.42h.79l.15.91h.05c.13-.22.29-.41.49-.56s.41-.27.66-.35.5-.12.77-.12c.49,0,.9.09,1.23.27s.57.46.72.83h.05c.21-.37.5-.65.87-.83s.77-.27,1.21-.27Z"/>
    <path class="cls-2" d="M96.53,50.99c.8,0,1.44.28,1.92.83s.71,1.38.71,2.48c0,.73-.11,1.34-.33,1.84s-.53.87-.92,1.12-.86.38-1.4.38c-.34,0-.64-.04-.9-.13s-.48-.21-.66-.36-.34-.32-.46-.5h-.07c.01.15.03.34.04.55s.03.4.03.56v2.64h-.98v-9.29h.8l.13.95h.05c.12-.2.28-.37.46-.54s.4-.29.66-.39.57-.14.92-.14ZM96.36,51.81c-.45,0-.8.09-1.08.26s-.47.43-.59.77-.19.77-.2,1.29v.19c0,.54.06,1,.18,1.38s.32.66.59.86.65.29,1.11.29c.4,0,.73-.11,1-.32s.46-.51.59-.9.2-.83.2-1.33c0-.76-.15-1.36-.44-1.81s-.75-.67-1.36-.67Z"/>
    <path class="cls-2" d="M101.83,57.53h-.98v-9.12h.98v9.12Z"/>
    <path class="cls-2" d="M106.36,50.99c.55,0,1.02.12,1.41.36s.69.58.9,1.02.31.94.31,1.53v.6h-4.44c.01.75.2,1.33.56,1.72s.88.59,1.54.59c.41,0,.77-.04,1.08-.11s.64-.18.97-.33v.86c-.32.14-.65.25-.96.32s-.69.1-1.13.1c-.62,0-1.16-.13-1.61-.38s-.82-.62-1.07-1.11-.38-1.09-.38-1.79.12-1.29.35-1.8.56-.9.98-1.17.92-.41,1.5-.41ZM106.35,51.78c-.52,0-.93.17-1.24.51s-.49.81-.55,1.42h3.4c0-.38-.06-.72-.18-1.01s-.29-.52-.52-.68-.54-.24-.9-.24Z"/>
    <path class="cls-2" d="M112.7,56.85c.16,0,.32-.01.49-.04s.3-.06.41-.1v.76c-.11.05-.27.09-.47.13s-.4.05-.59.05c-.34,0-.65-.06-.93-.18s-.5-.32-.67-.61-.25-.68-.25-1.18v-3.81h-.91v-.47l.92-.38.39-1.39h.59v1.49h1.88v.76h-1.88v3.78c0,.4.09.7.28.9s.43.3.74.3Z"/>
    <path class="cls-2" d="M117.37,50.99c.55,0,1.02.12,1.41.36s.69.58.9,1.02.31.94.31,1.53v.6h-4.44c.01.75.2,1.33.56,1.72s.88.59,1.54.59c.41,0,.77-.04,1.08-.11s.64-.18.97-.33v.86c-.32.14-.65.25-.96.32s-.69.1-1.13.1c-.62,0-1.16-.13-1.61-.38s-.82-.62-1.07-1.11-.38-1.09-.38-1.79.12-1.29.35-1.8.56-.9.98-1.17.92-.41,1.5-.41ZM117.36,51.78c-.52,0-.93.17-1.24.51s-.49.81-.55,1.42h3.4c0-.38-.06-.72-.18-1.01s-.29-.52-.52-.68-.54-.24-.9-.24Z"/>
    <path class="cls-2" d="M125.73,57.53h-.98v-9.12h.98v9.12Z"/>
    <path class="cls-2" d="M133.32,54.3c0,.53-.07,1-.21,1.41s-.33.76-.59,1.05-.57.5-.93.65-.78.23-1.24.23c-.43,0-.82-.08-1.18-.23s-.67-.37-.93-.65-.46-.63-.6-1.05-.21-.88-.21-1.41c0-.7.12-1.3.36-1.8s.58-.87,1.02-1.13.97-.39,1.58-.39,1.1.13,1.54.39.78.64,1.03,1.13.37,1.09.37,1.79ZM128.44,54.3c0,.52.07.96.21,1.34s.35.67.63.88.65.31,1.1.31.81-.1,1.1-.31.5-.5.64-.88.21-.83.21-1.34-.07-.95-.21-1.33-.35-.66-.63-.86-.65-.3-1.11-.3c-.67,0-1.16.22-1.47.66s-.47,1.05-.47,1.83Z"/>
    <path class="cls-2" d="M139.16,55.77c0,.41-.1.75-.31,1.03s-.5.49-.88.63-.83.21-1.36.21c-.45,0-.84-.04-1.17-.11s-.62-.17-.86-.3v-.9c.26.13.57.25.94.35s.73.16,1.11.16c.55,0,.96-.09,1.21-.27s.38-.42.38-.73c0-.18-.05-.33-.15-.47s-.27-.27-.5-.39-.56-.27-.97-.42c-.41-.16-.76-.31-1.06-.47s-.53-.34-.69-.57-.24-.51-.24-.87c0-.54.22-.96.66-1.25s1.02-.44,1.73-.44c.39,0,.75.04,1.09.11s.65.18.95.31l-.33.78c-.27-.11-.55-.21-.85-.29s-.61-.12-.92-.12c-.45,0-.79.07-1.03.22s-.36.35-.36.61c0,.2.06.36.17.49s.29.25.54.36.57.25.97.4c.4.15.75.3,1.04.46s.52.35.68.57.24.51.24.86Z"/>
    <path class="cls-2" d="M146.13,57.64c-.81,0-1.46-.28-1.93-.83s-.71-1.38-.71-2.47.24-1.94.73-2.5,1.13-.85,1.93-.85c.34,0,.64.04.89.13s.47.21.66.36.34.32.46.51h.07c-.02-.12-.03-.29-.05-.5s-.02-.38-.02-.52v-2.57h.97v9.12h-.79l-.15-.91h-.04c-.12.19-.27.37-.46.52s-.41.28-.66.37-.56.14-.91.14ZM146.28,56.83c.69,0,1.17-.2,1.46-.59s.43-.97.43-1.74v-.18c0-.82-.14-1.44-.41-1.88s-.76-.66-1.48-.66c-.6,0-1.04.23-1.34.69s-.45,1.08-.45,1.88.15,1.4.44,1.83.74.64,1.34.64Z"/>
    <path class="cls-2" d="M153.58,51c.77,0,1.33.17,1.71.52s.56.89.56,1.65v4.37h-.71l-.19-.95h-.05c-.18.23-.37.43-.56.59s-.42.28-.68.36-.57.12-.94.12c-.39,0-.74-.07-1.04-.21s-.54-.34-.71-.62-.26-.63-.26-1.05c0-.64.25-1.13.76-1.48s1.28-.53,2.32-.56l1.11-.05v-.39c0-.55-.12-.94-.36-1.17s-.57-.33-1.01-.33c-.34,0-.66.05-.96.15s-.59.21-.87.35l-.3-.74c.29-.15.62-.28,1-.38s.77-.16,1.18-.16ZM154.88,54.36l-.98.04c-.8.03-1.37.16-1.69.39s-.49.56-.49.98c0,.37.11.64.33.81s.52.26.88.26c.57,0,1.04-.16,1.4-.47s.54-.79.54-1.42v-.59Z"/>
    <path class="cls-2" d="M159.92,56.85c.16,0,.32-.01.49-.04s.3-.06.41-.1v.76c-.11.05-.27.09-.47.13s-.4.05-.59.05c-.34,0-.65-.06-.93-.18s-.5-.32-.67-.61-.25-.68-.25-1.18v-3.81h-.91v-.47l.92-.38.39-1.39h.59v1.49h1.88v.76h-1.88v3.78c0,.4.09.7.28.9s.43.3.74.3Z"/>
    <path class="cls-2" d="M167.66,54.3c0,.53-.07,1-.21,1.41s-.33.76-.59,1.05-.57.5-.93.65-.78.23-1.24.23c-.43,0-.82-.08-1.18-.23s-.67-.37-.93-.65-.46-.63-.6-1.05-.21-.88-.21-1.41c0-.7.12-1.3.36-1.8s.58-.87,1.02-1.13.97-.39,1.58-.39,1.1.13,1.54.39.78.64,1.03,1.13.37,1.09.37,1.79ZM162.78,54.3c0,.52.07.96.21,1.34s.35.67.63.88.65.31,1.1.31.81-.1,1.1-.31.5-.5.64-.88.21-.83.21-1.34-.07-.95-.21-1.33-.35-.66-.63-.86-.65-.3-1.11-.3c-.67,0-1.16.22-1.47.66s-.47,1.05-.47,1.83Z"/>
    <path class="cls-2" d="M173.5,55.77c0,.41-.1.75-.31,1.03s-.5.49-.88.63-.83.21-1.36.21c-.45,0-.84-.04-1.17-.11s-.62-.17-.86-.3v-.9c.26.13.57.25.94.35s.73.16,1.11.16c.55,0,.96-.09,1.21-.27s.38-.42.38-.73c0-.18-.05-.33-.15-.47s-.27-.27-.5-.39-.56-.27-.97-.42c-.41-.16-.76-.31-1.06-.47s-.53-.34-.69-.57-.24-.51-.24-.87c0-.54.22-.96.66-1.25s1.02-.44,1.73-.44c.39,0,.75.04,1.09.11s.65.18.95.31l-.33.78c-.27-.11-.55-.21-.85-.29s-.61-.12-.92-.12c-.45,0-.79.07-1.03.22s-.36.35-.36.61c0,.2.06.36.17.49s.29.25.54.36.57.25.97.4c.4.15.75.3,1.04.46s.52.35.68.57.24.51.24.86Z"/>
    <path class="cls-2" d="M182.34,55.77c0,.41-.1.75-.31,1.03s-.5.49-.88.63-.83.21-1.36.21c-.45,0-.84-.04-1.17-.11s-.62-.17-.86-.3v-.9c.26.13.57.25.94.35s.73.16,1.11.16c.55,0,.96-.09,1.21-.27s.38-.42.38-.73c0-.18-.05-.33-.15-.47s-.27-.27-.5-.39-.56-.27-.97-.42c-.41-.16-.76-.31-1.06-.47s-.53-.34-.69-.57-.24-.51-.24-.87c0-.54.22-.96.66-1.25s1.02-.44,1.73-.44c.39,0,.75.04,1.09.11s.65.18.95.31l-.33.78c-.27-.11-.55-.21-.85-.29s-.61-.12-.92-.12c-.45,0-.79.07-1.03.22s-.36.35-.36.61c0,.2.06.36.17.49s.29.25.54.36.57.25.97.4c.4.15.75.3,1.04.46s.52.35.68.57.24.51.24.86Z"/>
    <path class="cls-2" d="M189.44,54.3c0,.53-.07,1-.21,1.41s-.33.76-.59,1.05-.57.5-.93.65-.78.23-1.24.23c-.43,0-.82-.08-1.18-.23s-.67-.37-.93-.65-.46-.63-.6-1.05-.21-.88-.21-1.41c0-.7.12-1.3.36-1.8s.58-.87,1.02-1.13.97-.39,1.58-.39,1.1.13,1.54.39.78.64,1.03,1.13.37,1.09.37,1.79ZM184.55,54.3c0,.52.07.96.21,1.34s.35.67.63.88.65.31,1.1.31.81-.1,1.1-.31.5-.5.64-.88.21-.83.21-1.34-.07-.95-.21-1.33-.35-.66-.63-.86-.65-.3-1.11-.3c-.67,0-1.16.22-1.47.66s-.47,1.05-.47,1.83Z"/>
    <path class="cls-2" d="M192.1,57.53h-.98v-9.12h.98v9.12Z"/>
    <path class="cls-2" d="M194.65,48.7c.16,0,.3.05.41.16s.17.26.17.48-.06.38-.17.48-.25.16-.41.16-.31-.05-.42-.16-.17-.27-.17-.48.06-.38.17-.48.25-.16.42-.16ZM195.12,51.1v6.42h-.97v-6.42h.97Z"/>
    <path class="cls-2" d="M199.75,57.64c-.58,0-1.09-.12-1.53-.36s-.79-.6-1.03-1.09-.37-1.1-.37-1.85.13-1.41.39-1.91.62-.86,1.08-1.1.98-.36,1.56-.36c.32,0,.63.03.93.1s.54.15.74.24l-.29.81c-.2-.08-.42-.15-.68-.21s-.5-.09-.72-.09c-.45,0-.82.1-1.11.29s-.52.47-.66.84-.22.83-.22,1.37.07.96.21,1.33.36.65.64.84.64.29,1.06.29c.34,0,.65-.04.92-.11s.52-.16.74-.25v.87c-.21.11-.45.19-.72.25s-.58.09-.94.09Z"/>
    <path class="cls-2" d="M203.42,48.7c.16,0,.3.05.41.16s.17.26.17.48-.06.38-.17.48-.25.16-.41.16-.31-.05-.42-.16-.17-.27-.17-.48.06-.38.17-.48.25-.16.42-.16ZM203.9,51.1v6.42h-.97v-6.42h.97Z"/>
    <path class="cls-2" d="M208.03,56.85c.16,0,.32-.01.49-.04s.3-.06.41-.1v.76c-.11.05-.27.09-.47.13s-.4.05-.59.05c-.34,0-.65-.06-.93-.18s-.5-.32-.67-.61-.25-.68-.25-1.18v-3.81h-.91v-.47l.92-.38.39-1.39h.59v1.49h1.88v.76h-1.88v3.78c0,.4.09.7.28.9s.43.3.74.3Z"/>
    <path class="cls-2" d="M212.63,51c.77,0,1.33.17,1.71.52s.56.89.56,1.65v4.37h-.71l-.19-.95h-.05c-.18.23-.37.43-.56.59s-.42.28-.68.36-.57.12-.94.12c-.39,0-.74-.07-1.04-.21s-.54-.34-.71-.62-.26-.63-.26-1.05c0-.64.25-1.13.76-1.48s1.28-.53,2.32-.56l1.11-.05v-.39c0-.55-.12-.94-.36-1.17s-.57-.33-1.01-.33c-.34,0-.66.05-.96.15s-.59.21-.87.35l-.3-.74c.29-.15.62-.28,1-.38s.77-.16,1.18-.16ZM213.94,54.36l-.98.04c-.8.03-1.37.16-1.69.39s-.49.56-.49.98c0,.37.11.64.33.81s.52.26.88.26c.57,0,1.04-.16,1.4-.47s.54-.79.54-1.42v-.59Z"/>
    <path class="cls-2" d="M219.19,57.64c-.81,0-1.46-.28-1.93-.83s-.71-1.38-.71-2.47.24-1.94.73-2.5,1.13-.85,1.93-.85c.34,0,.64.04.89.13s.47.21.66.36.34.32.46.51h.07c-.02-.12-.03-.29-.05-.5s-.02-.38-.02-.52v-2.57h.97v9.12h-.79l-.15-.91h-.04c-.12.19-.27.37-.46.52s-.41.28-.66.37-.56.14-.91.14ZM219.34,56.83c.69,0,1.17-.2,1.46-.59s.43-.97.43-1.74v-.18c0-.82-.14-1.44-.41-1.88s-.76-.66-1.48-.66c-.6,0-1.04.23-1.34.69s-.45,1.08-.45,1.88.15,1.4.44,1.83.74.64,1.34.64Z"/>
    <path class="cls-2" d="M229.78,54.3c0,.53-.07,1-.21,1.41s-.33.76-.59,1.05-.57.5-.93.65-.78.23-1.24.23c-.43,0-.82-.08-1.18-.23s-.67-.37-.93-.65-.46-.63-.6-1.05-.21-.88-.21-1.41c0-.7.12-1.3.36-1.8s.58-.87,1.02-1.13.97-.39,1.58-.39,1.1.13,1.54.39.78.64,1.03,1.13.37,1.09.37,1.79ZM224.89,54.3c0,.52.07.96.21,1.34s.35.67.63.88.65.31,1.1.31.81-.1,1.1-.31.5-.5.64-.88.21-.83.21-1.34-.07-.95-.21-1.33-.35-.66-.63-.86-.65-.3-1.11-.3c-.67,0-1.16.22-1.47.66s-.47,1.05-.47,1.83Z"/>
    <path class="cls-2" d="M235.62,55.77c0,.41-.1.75-.31,1.03s-.5.49-.88.63-.83.21-1.36.21c-.45,0-.84-.04-1.17-.11s-.62-.17-.86-.3v-.9c.26.13.57.25.94.35s.73.16,1.11.16c.55,0,.96-.09,1.21-.27s.38-.42.38-.73c0-.18-.05-.33-.15-.47s-.27-.27-.5-.39-.56-.27-.97-.42c-.41-.16-.76-.31-1.06-.47s-.53-.34-.69-.57-.24-.51-.24-.87c0-.54.22-.96.66-1.25s1.02-.44,1.73-.44c.39,0,.75.04,1.09.11s.65.18.95.31l-.33.78c-.27-.11-.55-.21-.85-.29s-.61-.12-.92-.12c-.45,0-.79.07-1.03.22s-.36.35-.36.61c0,.2.06.36.17.49s.29.25.54.36.57.25.97.4c.4.15.75.3,1.04.46s.52.35.68.57.24.51.24.86Z"/>
    <path class="cls-2" d="M239.28,51.1h1.04l1.42,3.73c.08.22.16.43.23.63s.13.39.19.58.1.36.13.53h.04c.05-.2.13-.45.23-.77s.21-.64.33-.98l1.34-3.72h1.05l-2.79,7.37c-.15.39-.32.74-.52,1.03s-.44.52-.72.68-.62.24-1.02.24c-.18,0-.35-.01-.49-.03s-.26-.05-.36-.07v-.78c.09.02.19.04.31.05s.25.02.38.02c.24,0,.45-.05.63-.14s.33-.23.46-.4.24-.38.33-.63l.35-.9-2.57-6.43Z"/>
    <path class="cls-2" d="M251.83,51c.77,0,1.33.17,1.71.52s.56.89.56,1.65v4.37h-.71l-.19-.95h-.05c-.18.23-.37.43-.56.59s-.42.28-.68.36-.57.12-.94.12c-.39,0-.74-.07-1.04-.21s-.54-.34-.71-.62-.26-.63-.26-1.05c0-.64.25-1.13.76-1.48s1.28-.53,2.32-.56l1.11-.05v-.39c0-.55-.12-.94-.36-1.17s-.57-.33-1.01-.33c-.34,0-.66.05-.96.15s-.59.21-.87.35l-.3-.74c.29-.15.62-.28,1-.38s.77-.16,1.18-.16ZM253.13,54.36l-.98.04c-.8.03-1.37.16-1.69.39s-.49.56-.49.98c0,.37.11.64.33.81s.52.26.88.26c.57,0,1.04-.16,1.4-.47s.54-.79.54-1.42v-.59Z"/>
    <path class="cls-2" d="M257.07,57.53h-.98v-9.12h.98v9.12Z"/>
    <path class="cls-2" d="M265.1,51.87h-1.6v5.66h-.97v-5.66h-1.14v-.47l1.14-.32v-.43c0-.54.08-.98.24-1.32s.39-.59.7-.75.68-.24,1.11-.24c.25,0,.47.02.68.06s.39.09.54.15l-.25.77c-.13-.04-.28-.08-.45-.12s-.33-.06-.51-.06c-.37,0-.65.12-.82.36s-.27.62-.27,1.13v.47h1.6v.76ZM266.78,48.7c.16,0,.3.05.41.16s.17.26.17.48-.06.38-.17.48-.25.16-.41.16-.31-.05-.42-.16-.17-.27-.17-.48.06-.38.17-.48.25-.16.42-.16ZM267.25,51.1v6.42h-.97v-6.42h.97Z"/>
    <path class="cls-2" d="M272.35,50.99c.76,0,1.34.19,1.73.56s.59.97.59,1.8v4.18h-.96v-4.12c0-.54-.12-.94-.37-1.2s-.62-.4-1.12-.4c-.71,0-1.21.2-1.5.6s-.43.99-.43,1.75v3.36h-.97v-6.42h.79l.15.93h.05c.14-.23.31-.42.52-.57s.45-.27.71-.35.54-.12.83-.12Z"/>
    <path class="cls-2" d="M279.07,51c.77,0,1.33.17,1.71.52s.56.89.56,1.65v4.37h-.71l-.19-.95h-.05c-.18.23-.37.43-.56.59s-.42.28-.68.36-.57.12-.94.12c-.39,0-.74-.07-1.04-.21s-.54-.34-.71-.62-.26-.63-.26-1.05c0-.64.25-1.13.76-1.48s1.28-.53,2.32-.56l1.11-.05v-.39c0-.55-.12-.94-.36-1.17s-.57-.33-1.01-.33c-.34,0-.66.05-.96.15s-.59.21-.87.35l-.3-.74c.29-.15.62-.28,1-.38s.77-.16,1.18-.16ZM280.37,54.36l-.98.04c-.8.03-1.37.16-1.69.39s-.49.56-.49.98c0,.37.11.64.33.81s.52.26.88.26c.57,0,1.04-.16,1.4-.47s.54-.79.54-1.42v-.59Z"/>
    <path class="cls-2" d="M284.31,57.53h-.98v-9.12h.98v9.12Z"/>
    <path class="cls-2" d="M286.86,48.7c.16,0,.3.05.41.16s.17.26.17.48-.06.38-.17.48-.25.16-.41.16-.31-.05-.42-.16-.17-.27-.17-.48.06-.38.17-.48.25-.16.42-.16ZM287.34,51.1v6.42h-.97v-6.42h.97Z"/>
    <path class="cls-2" d="M293.52,57.53h-4.68v-.64l3.52-5.02h-3.3v-.76h4.38v.72l-3.47,4.95h3.55v.76Z"/>
    <path class="cls-2" d="M297.42,51c.77,0,1.33.17,1.71.52s.56.89.56,1.65v4.37h-.71l-.19-.95h-.05c-.18.23-.37.43-.56.59s-.42.28-.68.36-.57.12-.94.12c-.39,0-.74-.07-1.04-.21s-.54-.34-.71-.62-.26-.63-.26-1.05c0-.64.25-1.13.76-1.48s1.28-.53,2.32-.56l1.11-.05v-.39c0-.55-.12-.94-.36-1.17s-.57-.33-1.01-.33c-.34,0-.66.05-.96.15s-.59.21-.87.35l-.3-.74c.29-.15.62-.28,1-.38s.77-.16,1.18-.16ZM298.72,54.36l-.98.04c-.8.03-1.37.16-1.69.39s-.49.56-.49.98c0,.37.11.64.33.81s.52.26.88.26c.57,0,1.04-.16,1.4-.47s.54-.79.54-1.42v-.59Z"/>
    <path class="cls-2" d="M304.6,50.99c.13,0,.26,0,.4.02s.27.03.38.06l-.12.9c-.11-.03-.22-.05-.35-.06s-.25-.02-.36-.02c-.26,0-.5.05-.73.16s-.43.25-.6.45-.31.43-.4.7-.15.57-.15.91v3.45h-.98v-6.42h.81l.11,1.18h.04c.13-.24.29-.46.48-.65s.41-.35.65-.47.52-.18.83-.18Z"/>
    <path class="cls-2" d="M307.7,56.13l.08.13c-.07.29-.16.59-.27.91s-.22.65-.35.98-.25.63-.38.92h-.73c.08-.31.16-.64.24-.99s.15-.69.21-1.03.12-.65.16-.93h1.04Z"/>
    <path class="cls-2" d="M313.79,48.41v2.72c0,.16,0,.31-.01.47s-.02.3-.04.44h.06c.13-.23.3-.42.51-.57s.44-.27.7-.35.54-.12.83-.12c.52,0,.95.08,1.29.25s.61.42.78.76.26.79.26,1.34v4.18h-.96v-4.12c0-.54-.12-.94-.37-1.2s-.62-.4-1.12-.4c-.48,0-.86.09-1.14.27s-.49.45-.61.8-.18.78-.18,1.29v3.36h-.97v-9.12h.97Z"/>
    <path class="cls-2" d="M322.57,51c.77,0,1.33.17,1.71.52s.56.89.56,1.65v4.37h-.71l-.19-.95h-.05c-.18.23-.37.43-.56.59s-.42.28-.68.36-.57.12-.94.12c-.39,0-.74-.07-1.04-.21s-.54-.34-.71-.62-.26-.63-.26-1.05c0-.64.25-1.13.76-1.48s1.28-.53,2.32-.56l1.11-.05v-.39c0-.55-.12-.94-.36-1.17s-.57-.33-1.01-.33c-.34,0-.66.05-.96.15s-.59.21-.87.35l-.3-.74c.29-.15.62-.28,1-.38s.77-.16,1.18-.16ZM323.88,54.36l-.98.04c-.8.03-1.37.16-1.69.39s-.49.56-.49.98c0,.37.11.64.33.81s.52.26.88.26c.57,0,1.04-.16,1.4-.47s.54-.79.54-1.42v-.59Z"/>
    <path class="cls-2" d="M328.63,60.41c-.84,0-1.49-.16-1.95-.47s-.69-.75-.69-1.32c0-.4.13-.75.38-1.03s.61-.47,1.06-.57c-.17-.08-.31-.2-.43-.35s-.18-.34-.18-.54c0-.23.07-.44.2-.62s.33-.35.6-.51c-.34-.14-.61-.37-.82-.69s-.31-.71-.31-1.14c0-.46.1-.85.29-1.18s.47-.58.83-.75.8-.26,1.32-.26c.11,0,.23,0,.34.01s.23.02.33.04.2.04.28.06h2.2v.63l-1.18.15c.12.15.21.34.29.55s.12.45.12.71c0,.64-.22,1.15-.65,1.53s-1.03.57-1.79.57c-.18,0-.36-.02-.55-.05-.19.11-.34.22-.44.35s-.15.28-.15.45c0,.12.04.22.11.3s.19.13.33.16.32.05.52.05h1.13c.7,0,1.24.15,1.61.44s.56.72.56,1.28c0,.71-.29,1.26-.87,1.63s-1.41.57-2.51.57ZM328.66,59.65c.53,0,.97-.05,1.32-.16s.61-.26.79-.46.26-.44.26-.72c0-.26-.06-.45-.18-.58s-.29-.22-.52-.26-.5-.07-.83-.07h-1.11c-.29,0-.54.04-.76.13s-.38.22-.5.4-.17.39-.17.66c0,.35.15.61.44.79s.71.27,1.25.27ZM328.91,54.51c.46,0,.81-.12,1.05-.35s.35-.58.35-1.03c0-.48-.12-.84-.36-1.08s-.59-.36-1.05-.36-.79.12-1.03.37-.36.61-.36,1.09c0,.44.12.77.36,1.01s.59.35,1.04.35Z"/>
    <path class="cls-2" d="M335.76,51c.77,0,1.33.17,1.71.52s.56.89.56,1.65v4.37h-.71l-.19-.95h-.05c-.18.23-.37.43-.56.59s-.42.28-.68.36-.57.12-.94.12c-.39,0-.74-.07-1.04-.21s-.54-.34-.71-.62-.26-.63-.26-1.05c0-.64.25-1.13.76-1.48s1.28-.53,2.32-.56l1.11-.05v-.39c0-.55-.12-.94-.36-1.17s-.57-.33-1.01-.33c-.34,0-.66.05-.96.15s-.59.21-.87.35l-.3-.74c.29-.15.62-.28,1-.38s.77-.16,1.18-.16ZM337.06,54.36l-.98.04c-.8.03-1.37.16-1.69.39s-.49.56-.49.98c0,.37.11.64.33.81s.52.26.88.26c.57,0,1.04-.16,1.4-.47s.54-.79.54-1.42v-.59Z"/>
    <path class="cls-2" d="M345.71,57.64c-.58,0-1.09-.12-1.53-.36s-.79-.6-1.03-1.09-.37-1.1-.37-1.85.13-1.41.39-1.91.62-.86,1.08-1.1.98-.36,1.56-.36c.32,0,.63.03.93.1s.54.15.74.24l-.29.81c-.2-.08-.42-.15-.68-.21s-.5-.09-.72-.09c-.45,0-.82.1-1.11.29s-.52.47-.66.84-.22.83-.22,1.37.07.96.21,1.33.36.65.64.84.64.29,1.06.29c.34,0,.65-.04.92-.11s.52-.16.74-.25v.87c-.21.11-.45.19-.72.25s-.58.09-.94.09Z"/>
    <path class="cls-2" d="M349.87,57.53h-.98v-9.12h.98v9.12Z"/>
    <path class="cls-2" d="M352.42,48.7c.16,0,.3.05.41.16s.17.26.17.48-.06.38-.17.48-.25.16-.41.16-.31-.05-.42-.16-.17-.27-.17-.48.06-.38.17-.48.25-.16.42-.16ZM352.89,51.1v6.42h-.97v-6.42h.97Z"/>
    <path class="cls-2" d="M357.52,57.64c-.58,0-1.09-.12-1.53-.36s-.79-.6-1.03-1.09-.37-1.1-.37-1.85.13-1.41.39-1.91.62-.86,1.08-1.1.98-.36,1.56-.36c.32,0,.63.03.93.1s.54.15.74.24l-.29.81c-.2-.08-.42-.15-.68-.21s-.5-.09-.72-.09c-.45,0-.82.1-1.11.29s-.52.47-.66.84-.22.83-.22,1.37.07.96.21,1.33.36.65.64.84.64.29,1.06.29c.34,0,.65-.04.92-.11s.52-.16.74-.25v.87c-.21.11-.45.19-.72.25s-.58.09-.94.09Z"/>
    <path class="cls-2" d="M361.66,48.41v4.73c0,.16,0,.35-.02.57s-.02.42-.03.59h.04c.08-.1.2-.25.36-.45s.29-.36.4-.48l2.13-2.27h1.14l-2.58,2.74,2.77,3.68h-1.17l-2.27-3.04-.78.71v2.33h-.97v-9.12h.97Z"/>
    <path class="cls-2" d="M14.41,65.39c.55,0,1.02.12,1.41.36s.69.58.9,1.02.31.94.31,1.53v.6h-4.44c.01.75.2,1.33.56,1.72s.88.59,1.54.59c.41,0,.77-.04,1.08-.11s.64-.18.97-.33v.86c-.32.14-.65.25-.96.32s-.69.1-1.13.1c-.62,0-1.16-.13-1.61-.38s-.82-.62-1.07-1.11-.38-1.09-.38-1.79.12-1.29.35-1.8.56-.9.98-1.17.92-.41,1.5-.41ZM14.39,66.18c-.52,0-.93.17-1.24.51s-.49.81-.55,1.42h3.4c0-.38-.06-.72-.18-1.01s-.29-.52-.52-.68-.54-.24-.9-.24Z"/>
    <path class="cls-2" d="M21.71,65.39c.76,0,1.34.19,1.73.56s.59.97.59,1.8v4.18h-.96v-4.12c0-.54-.12-.94-.37-1.2s-.62-.4-1.12-.4c-.71,0-1.21.2-1.5.6s-.43.99-.43,1.75v3.36h-.97v-6.42h.79l.15.93h.05c.14-.23.31-.42.52-.57s.45-.27.71-.35.54-.12.83-.12Z"/>
    <path class="cls-2" d="M30,63.36c-.08.3-.16.63-.24.98s-.15.69-.22,1.03-.12.65-.16.93h-1.03l-.07-.13c.07-.29.16-.59.27-.91s.23-.65.35-.98.26-.63.39-.92h.71ZM32.16,63.36c-.08.3-.16.63-.24.98s-.15.69-.22,1.03-.12.65-.16.93h-1.04l-.09-.13c.07-.29.16-.59.27-.91s.23-.65.36-.98.26-.63.4-.92h.71Z"/>
    <path class="cls-2" d="M38.85,71.93l-1.05-2.72h-3.43l-1.05,2.72h-1.01l3.35-8.6h.9l3.33,8.6h-1.03ZM37.5,68.32l-1-2.7c-.02-.07-.06-.19-.11-.35s-.11-.33-.16-.5-.1-.31-.13-.42c-.04.16-.08.32-.13.48s-.09.3-.13.44-.08.25-.11.34l-1.02,2.7h2.8Z"/>
    <path class="cls-2" d="M43.94,65.39c.8,0,1.44.28,1.92.83s.71,1.38.71,2.48c0,.73-.11,1.34-.33,1.84s-.53.87-.92,1.12-.86.38-1.4.38c-.34,0-.64-.04-.9-.13s-.48-.21-.66-.36-.34-.32-.46-.5h-.07c.01.15.03.34.04.55s.03.4.03.56v2.64h-.98v-9.29h.8l.13.95h.05c.12-.2.28-.37.46-.54s.4-.29.66-.39.57-.14.92-.14ZM43.77,66.21c-.45,0-.8.09-1.08.26s-.47.43-.59.77-.19.77-.2,1.29v.19c0,.54.06,1,.18,1.38s.32.66.59.86.65.29,1.11.29c.4,0,.73-.11,1-.32s.46-.51.59-.9.2-.83.2-1.33c0-.76-.15-1.36-.44-1.81s-.75-.67-1.36-.67Z"/>
    <path class="cls-2" d="M49.24,71.93h-.98v-9.12h.98v9.12Z"/>
    <path class="cls-2" d="M51.79,63.1c.16,0,.3.05.41.16s.17.26.17.48-.06.38-.17.48-.25.16-.41.16-.31-.05-.42-.16-.17-.27-.17-.48.06-.38.17-.48.25-.16.42-.16ZM52.26,65.5v6.42h-.97v-6.42h.97Z"/>
    <path class="cls-2" d="M56.89,72.04c-.58,0-1.09-.12-1.53-.36s-.79-.6-1.03-1.09-.37-1.1-.37-1.85.13-1.41.39-1.91.62-.86,1.08-1.1.98-.36,1.56-.36c.32,0,.63.03.93.1s.54.15.74.24l-.29.81c-.2-.08-.42-.15-.68-.21s-.5-.09-.72-.09c-.45,0-.82.1-1.11.29s-.52.47-.66.84-.22.83-.22,1.37.07.96.21,1.33.36.65.64.84.64.29,1.06.29c.34,0,.65-.04.92-.11s.52-.16.74-.25v.87c-.21.11-.45.19-.72.25s-.58.09-.94.09Z"/>
    <path class="cls-2" d="M62.47,65.4c.77,0,1.33.17,1.71.52s.56.89.56,1.65v4.37h-.71l-.19-.95h-.05c-.18.23-.37.43-.56.59s-.42.28-.68.36-.57.12-.94.12c-.39,0-.74-.07-1.04-.21s-.54-.34-.71-.62-.26-.63-.26-1.05c0-.64.25-1.13.76-1.48s1.28-.53,2.32-.56l1.11-.05v-.39c0-.55-.12-.94-.36-1.17s-.57-.33-1.01-.33c-.34,0-.66.05-.96.15s-.59.21-.87.35l-.3-.74c.29-.15.62-.28,1-.38s.77-.16,1.18-.16ZM63.77,68.76l-.98.04c-.8.03-1.37.16-1.69.39s-.49.56-.49.98c0,.37.11.64.33.81s.52.26.88.26c.57,0,1.04-.16,1.4-.47s.54-.79.54-1.42v-.59Z"/>
    <path class="cls-2" d="M69.65,65.39c.13,0,.26,0,.4.02s.27.03.38.06l-.12.9c-.11-.03-.22-.05-.35-.06s-.25-.02-.36-.02c-.26,0-.5.05-.73.16s-.43.25-.6.45-.31.43-.4.7-.15.57-.15.91v3.45h-.98v-6.42h.81l.11,1.18h.04c.13-.24.29-.46.48-.65s.41-.35.65-.47.52-.18.83-.18Z"/>
    <path class="cls-2" d="M77.16,65.4c.77,0,1.33.17,1.71.52s.56.89.56,1.65v4.37h-.71l-.19-.95h-.05c-.18.23-.37.43-.56.59s-.42.28-.68.36-.57.12-.94.12c-.39,0-.74-.07-1.04-.21s-.54-.34-.71-.62-.26-.63-.26-1.05c0-.64.25-1.13.76-1.48s1.28-.53,2.32-.56l1.11-.05v-.39c0-.55-.12-.94-.36-1.17s-.57-.33-1.01-.33c-.34,0-.66.05-.96.15s-.59.21-.87.35l-.3-.74c.29-.15.62-.28,1-.38s.77-.16,1.18-.16ZM78.46,68.76l-.98.04c-.8.03-1.37.16-1.69.39s-.49.56-.49.98c0,.37.11.64.33.81s.52.26.88.26c.57,0,1.04-.16,1.4-.47s.54-.79.54-1.42v-.59Z"/>
    <path class="cls-2" d="M82.4,62.81v2.72c0,.16,0,.31-.01.47s-.02.3-.04.44h.06c.13-.23.3-.42.51-.57s.44-.27.7-.35.54-.12.83-.12c.52,0,.95.08,1.29.25s.61.42.78.76.26.79.26,1.34v4.18h-.96v-4.12c0-.54-.12-.94-.37-1.2s-.62-.4-1.12-.4c-.48,0-.86.09-1.14.27s-.49.45-.61.8-.18.78-.18,1.29v3.36h-.97v-9.12h.97Z"/>
    <path class="cls-2" d="M94.32,68.7c0,.53-.07,1-.21,1.41s-.33.76-.59,1.05-.57.5-.93.65-.78.23-1.24.23c-.43,0-.82-.08-1.18-.23s-.67-.37-.93-.65-.46-.63-.6-1.05-.21-.88-.21-1.41c0-.7.12-1.3.36-1.8s.58-.87,1.02-1.13.97-.39,1.58-.39,1.1.13,1.54.39.78.64,1.03,1.13.37,1.09.37,1.79ZM89.44,68.7c0,.52.07.96.21,1.34s.35.67.63.88.65.31,1.1.31.81-.1,1.1-.31.5-.5.64-.88.21-.83.21-1.34-.07-.95-.21-1.33-.35-.66-.63-.86-.65-.3-1.11-.3c-.67,0-1.16.22-1.47.66s-.47,1.05-.47,1.83Z"/>
    <path class="cls-2" d="M98.92,65.39c.13,0,.26,0,.4.02s.27.03.38.06l-.12.9c-.11-.03-.22-.05-.35-.06s-.25-.02-.36-.02c-.26,0-.5.05-.73.16s-.43.25-.6.45-.31.43-.4.7-.15.57-.15.91v3.45h-.98v-6.42h.81l.11,1.18h.04c.13-.24.29-.46.48-.65s.41-.35.65-.47.52-.18.83-.18Z"/>
    <path class="cls-2" d="M103.31,65.4c.77,0,1.33.17,1.71.52s.56.89.56,1.65v4.37h-.71l-.19-.95h-.05c-.18.23-.37.43-.56.59s-.42.28-.68.36-.57.12-.94.12c-.39,0-.74-.07-1.04-.21s-.54-.34-.71-.62-.26-.63-.26-1.05c0-.64.25-1.13.76-1.48s1.28-.53,2.32-.56l1.11-.05v-.39c0-.55-.12-.94-.36-1.17s-.57-.33-1.01-.33c-.34,0-.66.05-.96.15s-.59.21-.87.35l-.3-.74c.29-.15.62-.28,1-.38s.77-.16,1.18-.16ZM104.61,68.76l-.98.04c-.8.03-1.37.16-1.69.39s-.49.56-.49.98c0,.37.11.64.33.81s.52.26.88.26c.57,0,1.04-.16,1.4-.47s.54-.79.54-1.42v-.59Z"/>
    <path class="cls-2" d="M108.34,63.36l.08.13c-.07.29-.16.6-.27.92s-.23.65-.36.97-.26.63-.39.91h-.7c.06-.22.12-.46.18-.71s.12-.51.17-.77.1-.52.15-.76.08-.47.11-.69h1.03ZM110.49,63.36l.09.13c-.07.29-.16.6-.27.92s-.23.65-.36.97-.26.63-.39.91h-.73c.08-.3.16-.62.25-.97s.16-.69.22-1.04.12-.65.16-.93h1.03Z"/>
    <path class="cls-2" d="M111.61,71.32c0-.27.07-.47.2-.58s.29-.17.49-.17.37.06.5.17.21.31.21.58-.07.47-.21.59-.3.18-.5.18-.35-.06-.49-.18-.2-.32-.2-.59Z"/>
  </g>
  <g>
    <line class="cls-6" x1="111.64" y1="106.79" x2="174.09" y2="106.79"/>
    <line class="cls-6" x1="205.91" y1="106.79" x2="268.36" y2="106.79"/>
    <g>
      <circle class="cls-7" cx="95.74" cy="106.79" r="9.74"/>
      <path class="cls-9" d="M96.43,109.9h-.84v-5.38c0-.21,0-.38,0-.53,0-.15,0-.28.01-.41s.01-.25.02-.38c-.11.11-.21.21-.3.28-.09.08-.21.17-.35.29l-.87.7-.45-.59,2.06-1.58h.72v7.59Z"/>
    </g>
    <g>
      <circle class="cls-9" cx="190" cy="106.79" r="9.74"/>
      <path class="cls-3" d="M192.46,109.9h-4.97v-.72l2.03-2.06c.38-.38.7-.72.95-1.02.26-.3.45-.59.59-.88.13-.29.2-.61.2-.95,0-.43-.13-.76-.38-.98-.25-.23-.59-.34-1-.34-.36,0-.69.06-.97.19-.28.12-.57.3-.86.53l-.46-.58c.2-.17.42-.32.66-.45s.49-.24.76-.31c.27-.08.56-.11.87-.11.47,0,.87.08,1.21.24.34.16.6.39.79.7.19.3.28.66.28,1.08s-.08.77-.24,1.12c-.16.34-.38.69-.67,1.02-.29.34-.62.69-1.01,1.07l-1.65,1.65v.04h3.88v.79Z"/>
    </g>
    <g>
      <circle class="cls-9" cx="284.26" cy="106.79" r="9.74"/>
      <path class="cls-3" d="M286.44,104.08c0,.34-.07.63-.2.88-.13.25-.32.45-.55.61s-.51.27-.83.33v.04c.6.08,1.05.27,1.36.58.3.31.45.72.45,1.22,0,.44-.1.83-.31,1.17-.21.34-.52.61-.95.8-.42.19-.97.29-1.63.29-.4,0-.77-.03-1.11-.1s-.67-.17-.98-.32v-.81c.32.16.66.28,1.03.37.37.09.73.13,1.07.13.69,0,1.19-.14,1.5-.41.31-.27.46-.65.46-1.13,0-.33-.09-.59-.26-.8-.17-.2-.42-.35-.74-.45-.32-.09-.71-.14-1.16-.14h-.76v-.74h.76c.41,0,.76-.06,1.05-.18s.51-.29.66-.51c.15-.22.23-.48.23-.78,0-.38-.13-.68-.38-.89-.26-.21-.6-.31-1.04-.31-.27,0-.52.03-.74.08s-.43.13-.62.23c-.19.1-.39.21-.58.34l-.44-.59c.28-.21.61-.4,1.01-.56.4-.16.85-.23,1.35-.23.78,0,1.36.18,1.74.53.39.35.58.8.58,1.35Z"/>
    </g>
  </g>
  <g>
    <rect class="cls-4" x="32.29" y="458.05" width="315.42" height="41.68" rx="5" ry="5"/>
    <g>
      <path class="cls-3" d="M152.38,483.06l-.98-2.78h-3.82l-.98,2.78h-1.73l3.72-10.04h1.82l3.71,10.04h-1.74ZM150.98,478.89l-.95-2.74c-.04-.12-.09-.29-.16-.5s-.14-.44-.21-.66-.12-.42-.17-.57c-.04.19-.1.4-.17.62-.07.23-.13.45-.19.65-.06.2-.11.36-.14.46l-.96,2.74h2.94Z"/>
      <path class="cls-3" d="M159.16,475.35c.9,0,1.62.33,2.16.98.54.66.82,1.63.82,2.93,0,.86-.13,1.58-.38,2.16-.25.58-.61,1.03-1.06,1.33-.45.3-.98.45-1.58.45-.38,0-.71-.05-1-.15-.28-.1-.52-.23-.72-.39-.2-.16-.37-.34-.51-.53h-.1c.02.18.04.38.07.6.02.22.03.43.03.61v3.08h-1.62v-10.92h1.32l.23,1.05h.08c.14-.21.31-.41.52-.59.2-.18.45-.33.74-.43.29-.11.63-.16,1.01-.16ZM158.73,476.67c-.44,0-.8.09-1.06.26-.27.18-.46.44-.58.79-.12.35-.19.79-.2,1.32v.23c0,.56.06,1.04.17,1.43.12.39.31.69.58.89.27.2.64.3,1.1.3.39,0,.71-.11.97-.32.26-.21.45-.52.58-.92.13-.4.19-.86.19-1.4,0-.82-.14-1.45-.43-1.9-.29-.45-.73-.67-1.33-.67Z"/>
      <path class="cls-3" d="M165.61,483.06h-1.62v-10.64h1.62v10.64Z"/>
      <path class="cls-3" d="M168.71,472.6c.25,0,.46.07.64.2.18.13.27.36.27.68s-.09.55-.27.68c-.18.14-.39.21-.64.21s-.47-.07-.65-.21-.27-.36-.27-.68.09-.55.27-.68.39-.2.65-.2ZM169.5,475.5v7.57h-1.61v-7.57h1.61Z"/>
      <path class="cls-3" d="M174.85,483.2c-.71,0-1.33-.14-1.86-.41-.52-.28-.93-.7-1.21-1.28-.28-.58-.42-1.31-.42-2.19s.16-1.67.46-2.26c.31-.58.74-1.01,1.29-1.29s1.18-.42,1.89-.42c.45,0,.86.04,1.23.13.37.09.68.2.93.33l-.48,1.29c-.28-.11-.56-.2-.85-.28-.29-.08-.57-.12-.84-.12-.44,0-.81.1-1.1.3-.29.2-.51.49-.66.88s-.22.87-.22,1.44.07,1.02.22,1.4c.15.38.36.67.65.86.29.19.64.29,1.06.29s.79-.05,1.11-.15.64-.23.93-.39v1.39c-.29.16-.59.29-.92.37-.33.08-.73.12-1.21.12Z"/>
      <path class="cls-3" d="M181.72,475.35c.96,0,1.68.21,2.17.64.49.42.73,1.08.73,1.98v5.09h-1.14l-.31-1.07h-.05c-.21.27-.43.5-.66.68-.23.18-.49.31-.79.4-.3.09-.66.13-1.09.13-.46,0-.86-.08-1.22-.25-.36-.17-.63-.42-.84-.76-.2-.34-.3-.77-.3-1.3,0-.78.29-1.37.87-1.76s1.46-.61,2.63-.65l1.31-.05v-.4c0-.52-.12-.89-.36-1.11-.24-.22-.58-.33-1.03-.33-.38,0-.75.05-1.1.16s-.7.24-1.04.4l-.53-1.13c.37-.2.8-.36,1.27-.48s.96-.18,1.47-.18ZM183.02,479.45l-.97.04c-.8.03-1.36.16-1.69.41-.32.24-.49.58-.49,1.01,0,.37.11.65.33.82.22.17.52.26.88.26.56,0,1.02-.16,1.38-.48.37-.32.55-.78.55-1.39v-.66Z"/>
      <path class="cls-3" d="M190.71,475.35c.13,0,.27,0,.42.02s.28.03.39.05l-.15,1.51c-.1-.03-.21-.05-.35-.06-.14-.02-.26-.02-.37-.02-.29,0-.56.05-.82.14s-.49.24-.69.43c-.2.19-.36.42-.47.71-.11.28-.17.61-.17.98v3.95h-1.62v-7.57h1.26l.22,1.33h.08c.15-.27.34-.51.56-.74.22-.22.48-.4.77-.54.29-.13.61-.2.95-.2Z"/>
      <path class="cls-3" d="M199.52,475.35c.96,0,1.68.21,2.17.64.49.42.73,1.08.73,1.98v5.09h-1.14l-.31-1.07h-.05c-.21.27-.43.5-.66.68-.23.18-.49.31-.79.4-.3.09-.66.13-1.09.13-.46,0-.86-.08-1.22-.25-.36-.17-.63-.42-.84-.76-.2-.34-.3-.77-.3-1.3,0-.78.29-1.37.87-1.76s1.46-.61,2.63-.65l1.31-.05v-.4c0-.52-.12-.89-.36-1.11-.24-.22-.58-.33-1.03-.33-.38,0-.75.05-1.1.16s-.7.24-1.04.4l-.53-1.13c.37-.2.8-.36,1.27-.48s.96-.18,1.47-.18ZM200.82,479.45l-.97.04c-.8.03-1.36.16-1.69.41-.32.24-.49.58-.49,1.01,0,.37.11.65.33.82.22.17.52.26.88.26.56,0,1.02-.16,1.38-.48.37-.32.55-.78.55-1.39v-.66Z"/>
      <path class="cls-3" d="M206.28,472.43v2.67c0,.28,0,.55-.02.81-.02.26-.03.47-.05.62h.09c.16-.26.36-.48.59-.65.23-.17.49-.3.78-.39.29-.09.6-.13.93-.13.58,0,1.07.1,1.48.29.41.19.72.49.93.9.22.41.32.93.32,1.58v4.94h-1.61v-4.63c0-.58-.12-1.02-.37-1.32-.24-.29-.62-.44-1.12-.44s-.87.1-1.16.3c-.29.2-.49.5-.61.89s-.18.87-.18,1.44v3.75h-1.61v-10.64h1.61Z"/>
      <path class="cls-3" d="M220.27,479.26c0,.63-.08,1.19-.25,1.67s-.4.9-.72,1.24-.69.59-1.13.77c-.44.17-.94.26-1.5.26-.52,0-1-.09-1.43-.26-.43-.17-.81-.43-1.12-.77-.32-.34-.56-.75-.74-1.24-.17-.49-.26-1.05-.26-1.67,0-.83.14-1.54.43-2.12.29-.58.7-1.02,1.24-1.33.54-.31,1.18-.46,1.92-.46.7,0,1.31.15,1.85.46s.95.75,1.25,1.33.45,1.29.45,2.12ZM214.78,479.26c0,.55.07,1.02.2,1.42.13.39.34.69.62.9.28.21.65.31,1.09.31s.8-.1,1.09-.31c.28-.21.49-.51.63-.9.13-.39.2-.86.2-1.42s-.07-1.01-.2-1.4c-.13-.38-.34-.68-.63-.88-.28-.2-.65-.3-1.09-.3-.67,0-1.15.22-1.46.67-.3.45-.46,1.08-.46,1.91Z"/>
      <path class="cls-3" d="M225.95,475.35c.13,0,.27,0,.42.02s.28.03.39.05l-.15,1.51c-.1-.03-.21-.05-.35-.06-.14-.02-.26-.02-.37-.02-.29,0-.56.05-.82.14s-.49.24-.69.43c-.2.19-.36.42-.47.71-.11.28-.17.61-.17.98v3.95h-1.62v-7.57h1.26l.22,1.33h.08c.15-.27.34-.51.56-.74.22-.22.48-.4.77-.54.29-.13.61-.2.95-.2Z"/>
      <path class="cls-3" d="M231.12,475.35c.96,0,1.68.21,2.17.64.49.42.74,1.08.74,1.98v5.09h-1.14l-.31-1.07h-.05c-.21.27-.44.5-.66.68-.23.18-.49.31-.79.4-.3.09-.66.13-1.09.13-.46,0-.86-.08-1.22-.25-.36-.17-.63-.42-.84-.76-.2-.34-.3-.77-.3-1.3,0-.78.29-1.37.87-1.76s1.46-.61,2.63-.65l1.31-.05v-.4c0-.52-.12-.89-.36-1.11s-.58-.33-1.03-.33c-.38,0-.75.05-1.1.16s-.7.24-1.04.4l-.53-1.13c.37-.2.8-.36,1.27-.48s.96-.18,1.47-.18ZM232.43,479.45l-.97.04c-.8.03-1.36.16-1.69.41-.32.24-.49.58-.49,1.01,0,.37.11.65.33.82.22.17.52.26.88.26.56,0,1.02-.16,1.38-.48.36-.32.55-.78.55-1.39v-.66Z"/>
    </g>
  </g>
  <g>
    <rect class="cls-8" x="32.29" y="156.59" width="315.42" height="41.68" rx="5" ry="5"/>
    <g>
      <path class="cls-5" d="M41.94,150.74h-2.02l-4.89-7.98h-.06c.02.27.04.55.05.86.02.3.03.61.04.93.01.32.02.64.03.96v5.22h-1.49v-9.99h2l4.89,7.92h.05c0-.23-.02-.5-.03-.8s-.03-.61-.04-.93c-.01-.32-.02-.63-.02-.93v-5.26h1.5v9.99Z"/>
      <path class="cls-5" d="M51.1,146.94c0,.63-.08,1.19-.25,1.67s-.4.9-.72,1.24-.69.59-1.13.77c-.44.17-.94.26-1.5.26-.52,0-1-.09-1.43-.26-.43-.17-.81-.43-1.12-.77-.32-.34-.56-.75-.74-1.24-.17-.49-.26-1.05-.26-1.67,0-.83.14-1.54.43-2.12.29-.58.7-1.02,1.24-1.33.54-.31,1.18-.46,1.92-.46.7,0,1.31.15,1.85.46s.95.75,1.25,1.33.45,1.29.45,2.12ZM45.61,146.94c0,.55.07,1.02.2,1.42.13.39.34.69.62.9.28.21.65.31,1.09.31s.8-.1,1.09-.31c.28-.21.49-.51.63-.9.13-.39.2-.86.2-1.42s-.07-1.01-.2-1.4c-.13-.38-.34-.68-.63-.88-.28-.2-.65-.3-1.09-.3-.67,0-1.15.22-1.46.67-.3.45-.46,1.08-.46,1.91Z"/>
      <path class="cls-5" d="M61.5,143.03c.85,0,1.49.22,1.92.66s.65,1.14.65,2.11v4.95h-1.61v-4.66c0-.58-.11-1.01-.33-1.3-.22-.29-.56-.43-1.02-.43-.64,0-1.1.2-1.38.61s-.42,1-.42,1.77v4.01h-1.61v-4.66c0-.39-.05-.71-.15-.97-.1-.26-.25-.45-.45-.58-.2-.13-.45-.19-.76-.19-.44,0-.79.1-1.06.3-.26.2-.45.49-.56.88-.11.39-.17.87-.17,1.43v3.78h-1.61v-7.57h1.26l.23,1.02h.09c.16-.26.35-.48.58-.65.23-.17.49-.3.77-.38.28-.08.58-.13.88-.13.57,0,1.04.1,1.43.3.39.2.68.5.87.91h.12c.24-.41.57-.71.99-.91s.87-.29,1.35-.29Z"/>
      <path class="cls-5" d="M67.91,140.1v2.56c0,.3,0,.59-.02.87-.02.28-.03.51-.04.67h.07c.21-.33.49-.61.86-.83.37-.23.84-.34,1.41-.34.9,0,1.62.33,2.17.99.55.66.82,1.63.82,2.92,0,.86-.12,1.58-.38,2.16-.25.58-.6,1.02-1.06,1.32-.45.3-.99.45-1.6.45-.57,0-1.04-.1-1.39-.31-.35-.21-.63-.46-.83-.75h-.12l-.29.92h-1.21v-10.64h1.61ZM69.76,144.35c-.46,0-.82.09-1.08.27-.27.18-.46.45-.58.81-.12.36-.18.82-.18,1.38v.14c0,.84.13,1.49.4,1.93s.75.67,1.46.67c.56,0,.99-.23,1.29-.68.3-.45.45-1.1.45-1.95s-.15-1.5-.45-1.93-.74-.65-1.31-.65Z"/>
      <path class="cls-5" d="M78.85,143.03c.13,0,.27,0,.42.02s.28.03.39.05l-.15,1.51c-.1-.03-.21-.05-.35-.06-.14-.02-.26-.02-.37-.02-.29,0-.56.05-.82.14s-.49.24-.69.43c-.2.19-.36.42-.47.71-.11.28-.17.61-.17.98v3.95h-1.62v-7.57h1.26l.22,1.33h.08c.15-.27.34-.51.56-.74.22-.22.48-.4.77-.54.29-.13.61-.2.95-.2Z"/>
      <path class="cls-5" d="M84.08,143.03c.67,0,1.25.14,1.74.42.48.28.85.67,1.11,1.18s.39,1.12.39,1.83v.86h-5.05c.02.73.22,1.3.59,1.7s.9.59,1.58.59c.48,0,.92-.05,1.3-.14.38-.09.78-.23,1.19-.41v1.31c-.38.18-.76.31-1.16.39-.39.08-.86.12-1.41.12-.74,0-1.4-.14-1.96-.43-.56-.29-1-.72-1.32-1.29s-.47-1.29-.47-2.15.14-1.57.43-2.16.69-1.04,1.21-1.35,1.13-.46,1.82-.46ZM84.08,144.24c-.51,0-.92.16-1.23.49-.31.33-.5.81-.55,1.44h3.44c0-.38-.07-.71-.19-1-.12-.29-.3-.52-.54-.68-.24-.17-.55-.25-.93-.25Z"/>
      <path class="cls-5" d="M91.62,143.17h1.75l1.55,4.32c.07.2.13.39.19.58.06.19.11.38.15.56.04.18.08.36.11.55h.04c.05-.24.11-.5.2-.8.08-.29.18-.59.28-.89l1.48-4.32h1.74l-3.25,8.61c-.19.49-.42.91-.69,1.26-.27.35-.59.61-.96.79-.37.18-.79.27-1.26.27-.23,0-.43-.01-.59-.04-.17-.03-.31-.05-.43-.08v-1.29c.1.02.22.04.36.06.15.02.3.03.45.03.29,0,.54-.06.75-.17.21-.11.39-.27.53-.48.15-.21.27-.44.36-.71l.27-.71-3.02-7.55Z"/>
      <path class="cls-5" d="M110.25,150.74l-.98-2.78h-3.82l-.98,2.78h-1.73l3.72-10.04h1.82l3.71,10.04h-1.74ZM108.85,146.56l-.95-2.74c-.04-.12-.09-.29-.16-.5s-.14-.44-.21-.66-.12-.42-.17-.57c-.04.19-.1.4-.17.62-.07.23-.13.45-.19.65-.06.2-.11.36-.14.46l-.96,2.74h2.94Z"/>
      <path class="cls-5" d="M117.03,143.03c.9,0,1.62.33,2.16.98.54.66.82,1.63.82,2.93,0,.86-.13,1.58-.38,2.16-.25.58-.61,1.03-1.06,1.33-.45.3-.98.45-1.58.45-.38,0-.71-.05-1-.15-.28-.1-.52-.23-.72-.39-.2-.16-.37-.34-.51-.53h-.1c.02.18.04.38.07.6.02.22.03.43.03.61v3.08h-1.62v-10.92h1.32l.23,1.05h.08c.14-.21.31-.41.52-.59.2-.18.45-.33.74-.43.29-.11.63-.16,1.01-.16ZM116.6,144.35c-.44,0-.8.09-1.06.26-.27.18-.46.44-.58.79-.12.35-.19.79-.2,1.32v.23c0,.56.06,1.04.17,1.43.12.39.31.69.58.89.27.2.64.3,1.1.3.39,0,.71-.11.97-.32.26-.21.45-.52.58-.92.13-.4.19-.86.19-1.4,0-.82-.14-1.45-.43-1.9-.29-.45-.73-.67-1.33-.67Z"/>
      <path class="cls-5" d="M124.88,143.03c.67,0,1.25.14,1.74.42.48.28.85.67,1.11,1.18s.39,1.12.39,1.83v.86h-5.05c.02.73.22,1.3.59,1.7s.9.59,1.58.59c.48,0,.92-.05,1.3-.14.38-.09.78-.23,1.19-.41v1.31c-.38.18-.76.31-1.16.39-.39.08-.86.12-1.41.12-.74,0-1.4-.14-1.96-.43-.56-.29-1-.72-1.32-1.29s-.47-1.29-.47-2.15.14-1.57.43-2.16.69-1.04,1.21-1.35,1.13-.46,1.82-.46ZM124.88,144.24c-.51,0-.92.16-1.23.49-.31.33-.5.81-.55,1.44h3.44c0-.38-.07-.71-.19-1-.12-.29-.3-.52-.54-.68-.24-.17-.55-.25-.93-.25Z"/>
      <path class="cls-5" d="M131.55,150.74h-1.62v-10.64h1.62v10.64Z"/>
      <path class="cls-5" d="M135.45,150.74h-1.62v-10.64h1.62v10.64Z"/>
      <path class="cls-5" d="M138.55,140.27c.25,0,.46.07.64.2.18.13.27.36.27.68s-.09.55-.27.68c-.18.14-.39.21-.64.21s-.47-.07-.65-.21-.27-.36-.27-.68.09-.55.27-.68.39-.2.65-.2ZM139.34,143.17v7.57h-1.61v-7.57h1.61Z"/>
      <path class="cls-5" d="M144.18,150.87c-.9,0-1.62-.33-2.16-.99-.54-.66-.82-1.63-.82-2.92s.28-2.28.83-2.95,1.28-1,2.19-1c.38,0,.71.05,1,.15.29.1.54.24.75.41.21.17.39.37.53.58h.08c-.02-.14-.05-.35-.08-.61-.03-.27-.04-.51-.04-.74v-2.72h1.61v10.64h-1.26l-.29-1.03h-.07c-.14.21-.31.41-.52.59-.21.18-.46.32-.74.42-.29.1-.62.15-1.01.15ZM144.64,149.57c.68,0,1.17-.2,1.45-.59.28-.4.43-.99.43-1.78v-.21c0-.85-.14-1.5-.41-1.95-.27-.45-.77-.68-1.49-.68-.58,0-1.02.23-1.32.7-.3.46-.46,1.11-.46,1.95s.15,1.47.46,1.91c.3.44.75.66,1.34.66Z"/>
      <path class="cls-5" d="M157.06,146.94c0,.63-.08,1.19-.25,1.67s-.4.9-.72,1.24-.69.59-1.13.77c-.44.17-.94.26-1.5.26-.52,0-1-.09-1.43-.26-.43-.17-.81-.43-1.12-.77-.32-.34-.56-.75-.74-1.24-.17-.49-.26-1.05-.26-1.67,0-.83.14-1.54.43-2.12.29-.58.7-1.02,1.24-1.33.54-.31,1.18-.46,1.92-.46.7,0,1.31.15,1.85.46s.95.75,1.25,1.33.45,1.29.45,2.12ZM151.57,146.94c0,.55.07,1.02.2,1.42.13.39.34.69.62.9.28.21.65.31,1.09.31s.8-.1,1.09-.31c.28-.21.49-.51.63-.9.13-.39.2-.86.2-1.42s-.07-1.01-.2-1.4c-.13-.38-.34-.68-.63-.88-.28-.2-.65-.3-1.09-.3-.67,0-1.15.22-1.46.67-.3.45-.46,1.08-.46,1.91Z"/>
    </g>
  </g>
  <rect class="cls-8" x="32.29" y="234.87" width="315.42" height="41.68" rx="5" ry="5"/>
  <g>
    <path class="cls-5" d="M41.94,228.97h-2.02l-4.89-7.98h-.06c.02.27.04.55.05.86.02.3.03.61.04.93.01.32.02.64.03.96v5.22h-1.49v-9.99h2l4.89,7.92h.05c0-.23-.02-.5-.03-.8s-.03-.61-.04-.93c-.01-.32-.02-.63-.02-.93v-5.26h1.5v9.99Z"/>
    <path class="cls-5" d="M51,221.4v7.57h-1.26l-.23-1.01h-.08c-.16.26-.36.47-.61.65-.25.17-.52.3-.82.38-.3.08-.62.12-.95.12-.56,0-1.05-.1-1.45-.29-.4-.19-.71-.49-.93-.9-.22-.41-.33-.93-.33-1.57v-4.94h1.62v4.64c0,.59.12,1.03.36,1.32s.61.44,1.12.44.87-.1,1.16-.3c.28-.2.49-.5.61-.89s.18-.87.18-1.44v-3.77h1.61ZM50.03,218.24v.14c-.11.13-.26.29-.44.47-.19.19-.39.38-.61.58-.22.2-.43.39-.65.58-.21.18-.41.34-.58.46h-1.07v-.18c.15-.17.32-.38.5-.62s.37-.49.55-.75c.18-.25.33-.49.45-.7h1.85Z"/>
    <path class="cls-5" d="M61.85,221.26c.85,0,1.49.22,1.92.66s.65,1.14.65,2.11v4.95h-1.61v-4.66c0-.58-.11-1.01-.33-1.3-.22-.29-.56-.43-1.02-.43-.64,0-1.1.2-1.38.61s-.42,1-.42,1.77v4.01h-1.61v-4.66c0-.39-.05-.71-.15-.97-.1-.26-.25-.45-.45-.58-.2-.13-.45-.19-.76-.19-.44,0-.79.1-1.06.3-.26.2-.45.49-.56.88-.11.39-.17.87-.17,1.43v3.78h-1.61v-7.57h1.26l.23,1.02h.09c.16-.26.35-.48.58-.65.23-.17.49-.3.77-.38.28-.08.58-.13.88-.13.57,0,1.04.1,1.43.3.39.2.68.5.87.91h.12c.24-.41.57-.71.99-.91s.87-.29,1.35-.29Z"/>
    <path class="cls-5" d="M69.67,221.26c.67,0,1.25.14,1.74.42.48.28.85.67,1.11,1.18s.39,1.12.39,1.83v.86h-5.05c.02.73.22,1.3.59,1.7s.9.59,1.58.59c.48,0,.92-.05,1.3-.14.38-.09.78-.23,1.19-.41v1.31c-.38.18-.76.31-1.16.39-.39.08-.86.12-1.41.12-.74,0-1.4-.14-1.96-.43-.56-.29-1-.72-1.32-1.29s-.47-1.29-.47-2.15.14-1.57.43-2.16.69-1.04,1.21-1.35,1.13-.46,1.82-.46ZM69.67,222.47c-.51,0-.92.16-1.23.49-.31.33-.5.81-.55,1.44h3.44c0-.38-.07-.71-.19-1-.12-.29-.3-.52-.54-.68-.24-.17-.55-.25-.93-.25Z"/>
    <path class="cls-5" d="M78.55,221.26c.13,0,.27,0,.42.02s.28.03.39.05l-.15,1.51c-.1-.03-.21-.05-.35-.06-.14-.02-.26-.02-.37-.02-.29,0-.56.05-.82.14s-.49.24-.69.43c-.2.19-.36.42-.47.71-.11.28-.17.61-.17.98v3.95h-1.62v-7.57h1.26l.22,1.33h.08c.15-.27.34-.51.56-.74.22-.22.48-.4.77-.54.29-.13.61-.2.95-.2Z"/>
    <path class="cls-5" d="M87.46,225.17c0,.63-.08,1.19-.25,1.67s-.4.9-.72,1.24-.69.59-1.13.77c-.44.17-.94.26-1.5.26-.52,0-1-.09-1.43-.26-.43-.17-.81-.43-1.12-.77-.32-.34-.56-.75-.74-1.24-.17-.49-.26-1.05-.26-1.67,0-.83.14-1.54.43-2.12.29-.58.7-1.02,1.24-1.33.54-.31,1.18-.46,1.92-.46.7,0,1.31.15,1.85.46s.95.75,1.25,1.33.45,1.29.45,2.12ZM81.97,225.17c0,.55.07,1.02.2,1.42.13.39.34.69.62.9.28.21.65.31,1.09.31s.8-.1,1.09-.31c.28-.21.49-.51.63-.9.13-.39.2-.86.2-1.42s-.07-1.01-.2-1.4c-.13-.38-.34-.68-.63-.88-.28-.2-.65-.3-1.09-.3-.67,0-1.15.22-1.46.67-.3.45-.46,1.08-.46,1.91Z"/>
    <path class="cls-5" d="M95.48,229.1c-.9,0-1.62-.33-2.16-.99-.54-.66-.82-1.63-.82-2.92s.28-2.28.83-2.95,1.28-1,2.19-1c.38,0,.71.05,1,.15.29.1.54.24.75.41.21.17.39.37.53.58h.08c-.02-.14-.05-.35-.08-.61-.03-.27-.04-.51-.04-.74v-2.72h1.61v10.64h-1.26l-.29-1.03h-.07c-.14.21-.31.41-.52.59-.21.18-.46.32-.74.42-.29.1-.62.15-1.01.15ZM95.94,227.8c.68,0,1.17-.2,1.45-.59.28-.4.43-.99.43-1.78v-.21c0-.85-.14-1.5-.41-1.95-.27-.45-.77-.68-1.49-.68-.58,0-1.02.23-1.32.7-.3.46-.46,1.11-.46,1.95s.15,1.47.46,1.91c.3.44.75.66,1.34.66Z"/>
    <path class="cls-5" d="M104.67,221.26c.67,0,1.25.14,1.74.42.48.28.85.67,1.11,1.18s.39,1.12.39,1.83v.86h-5.05c.02.73.22,1.3.59,1.7s.9.59,1.58.59c.48,0,.92-.05,1.3-.14.38-.09.78-.23,1.19-.41v1.31c-.38.18-.76.31-1.16.39-.39.08-.86.12-1.41.12-.74,0-1.4-.14-1.96-.43-.56-.29-1-.72-1.32-1.29s-.47-1.29-.47-2.15.14-1.57.43-2.16.69-1.04,1.21-1.35,1.13-.46,1.82-.46ZM104.67,222.47c-.51,0-.92.16-1.23.49-.31.33-.5.81-.55,1.44h3.44c0-.38-.07-.71-.19-1-.12-.29-.3-.52-.54-.68-.24-.17-.55-.25-.93-.25Z"/>
    <path class="cls-5" d="M116.41,229.1c-.71,0-1.33-.14-1.86-.41-.52-.28-.93-.7-1.21-1.28-.28-.58-.42-1.31-.42-2.19s.16-1.67.46-2.26c.31-.58.74-1.01,1.29-1.29s1.18-.42,1.89-.42c.45,0,.86.04,1.23.13.37.09.68.2.93.33l-.48,1.29c-.28-.11-.56-.2-.85-.28-.29-.08-.57-.12-.84-.12-.44,0-.81.1-1.1.3-.29.2-.51.49-.66.88s-.22.87-.22,1.44.07,1.02.22,1.4c.15.38.36.67.65.86.29.19.64.29,1.06.29s.79-.05,1.11-.15.64-.23.93-.39v1.39c-.29.16-.59.29-.92.37-.33.08-.73.12-1.21.12Z"/>
    <path class="cls-5" d="M123.33,221.26c.67,0,1.25.14,1.74.42.48.28.85.67,1.11,1.18s.39,1.12.39,1.83v.86h-5.05c.02.73.22,1.3.59,1.7s.9.59,1.58.59c.48,0,.92-.05,1.3-.14.38-.09.78-.23,1.19-.41v1.31c-.38.18-.76.31-1.16.39-.39.08-.86.12-1.41.12-.74,0-1.4-.14-1.96-.43-.56-.29-1-.72-1.32-1.29s-.47-1.29-.47-2.15.14-1.57.43-2.16.69-1.04,1.21-1.35,1.13-.46,1.82-.46ZM123.33,222.47c-.51,0-.92.16-1.23.49-.31.33-.5.81-.55,1.44h3.44c0-.38-.07-.71-.19-1-.12-.29-.3-.52-.54-.68-.24-.17-.55-.25-.93-.25ZM125.56,218.24v.14c-.11.13-.26.29-.44.47-.19.19-.39.38-.61.58-.22.2-.43.39-.65.58-.21.18-.41.34-.58.46h-1.07v-.18c.15-.17.32-.38.5-.62s.37-.49.55-.75c.18-.25.33-.49.45-.7h1.85Z"/>
    <path class="cls-5" d="M130.92,229.1c-.9,0-1.62-.33-2.16-.99-.54-.66-.82-1.63-.82-2.92s.28-2.28.83-2.95,1.28-1,2.19-1c.38,0,.71.05,1,.15.29.1.54.24.75.41.21.17.39.37.53.58h.08c-.02-.14-.05-.35-.08-.61-.03-.27-.04-.51-.04-.74v-2.72h1.61v10.64h-1.26l-.29-1.03h-.07c-.14.21-.31.41-.52.59-.21.18-.46.32-.74.42-.29.1-.62.15-1.01.15ZM131.37,227.8c.68,0,1.17-.2,1.45-.59.28-.4.43-.99.43-1.78v-.21c0-.85-.14-1.5-.41-1.95-.27-.45-.77-.68-1.49-.68-.58,0-1.02.23-1.32.7-.3.46-.46,1.11-.46,1.95s.15,1.47.46,1.91c.3.44.75.66,1.34.66Z"/>
    <path class="cls-5" d="M143.69,221.4v7.57h-1.26l-.23-1.01h-.08c-.16.26-.36.47-.61.65-.25.17-.52.3-.82.38-.3.08-.62.12-.95.12-.56,0-1.05-.1-1.45-.29-.4-.19-.71-.49-.93-.9-.22-.41-.33-.93-.33-1.57v-4.94h1.62v4.64c0,.59.12,1.03.36,1.32s.61.44,1.12.44.87-.1,1.16-.3c.28-.2.49-.5.61-.89s.18-.87.18-1.44v-3.77h1.61Z"/>
    <path class="cls-5" d="M147.6,228.97h-1.62v-10.64h1.62v10.64Z"/>
    <path class="cls-5" d="M152.86,221.26c.96,0,1.68.21,2.17.64.49.42.73,1.08.73,1.98v5.09h-1.14l-.31-1.07h-.05c-.21.27-.43.5-.66.68-.23.18-.49.31-.79.4-.3.09-.66.13-1.09.13-.46,0-.86-.08-1.22-.25-.36-.17-.63-.42-.84-.76-.2-.34-.3-.77-.3-1.3,0-.78.29-1.37.87-1.76s1.46-.61,2.63-.65l1.31-.05v-.4c0-.52-.12-.89-.36-1.11-.24-.22-.58-.33-1.03-.33-.38,0-.75.05-1.1.16s-.7.24-1.04.4l-.53-1.13c.37-.2.8-.36,1.27-.48s.96-.18,1.47-.18ZM154.17,225.35l-.97.04c-.8.03-1.36.16-1.69.41-.32.24-.49.58-.49,1.01,0,.37.11.65.33.82.22.17.52.26.88.26.56,0,1.02-.16,1.38-.48.37-.32.55-.78.55-1.39v-.66Z"/>
  </g>
  <rect class="cls-8" x="32.29" y="312.93" width="315.42" height="41.68" rx="5" ry="5"/>
  <g>
    <path class="cls-5" d="M41.94,307.25h-2.02l-4.89-7.98h-.06c.02.27.04.55.05.86.02.3.03.61.04.93.01.32.02.64.03.96v5.22h-1.49v-9.99h2l4.89,7.92h.05c0-.23-.02-.5-.03-.8s-.03-.61-.04-.93c-.01-.32-.02-.63-.02-.93v-5.26h1.5v9.99Z"/>
    <path class="cls-5" d="M51,299.68v7.57h-1.26l-.23-1.01h-.08c-.16.26-.36.47-.61.65-.25.17-.52.3-.82.38-.3.08-.62.12-.95.12-.56,0-1.05-.1-1.45-.29-.4-.19-.71-.49-.93-.9-.22-.41-.33-.93-.33-1.57v-4.94h1.62v4.64c0,.59.12,1.03.36,1.32s.61.44,1.12.44.87-.1,1.16-.3c.28-.2.49-.5.61-.89s.18-.87.18-1.44v-3.77h1.61ZM50.03,296.52v.14c-.11.13-.26.29-.44.47-.19.19-.39.38-.61.58-.22.2-.43.39-.65.58-.21.18-.41.34-.58.46h-1.07v-.18c.15-.17.32-.38.5-.62s.37-.49.55-.75c.18-.25.33-.49.45-.7h1.85Z"/>
    <path class="cls-5" d="M61.85,299.54c.85,0,1.49.22,1.92.66s.65,1.14.65,2.11v4.95h-1.61v-4.66c0-.58-.11-1.01-.33-1.3-.22-.29-.56-.43-1.02-.43-.64,0-1.1.2-1.38.61s-.42,1-.42,1.77v4.01h-1.61v-4.66c0-.39-.05-.71-.15-.97-.1-.26-.25-.45-.45-.58-.2-.13-.45-.19-.76-.19-.44,0-.79.1-1.06.3-.26.2-.45.49-.56.88-.11.39-.17.87-.17,1.43v3.78h-1.61v-7.57h1.26l.23,1.02h.09c.16-.26.35-.48.58-.65.23-.17.49-.3.77-.38.28-.08.58-.13.88-.13.57,0,1.04.1,1.43.3.39.2.68.5.87.91h.12c.24-.41.57-.71.99-.91s.87-.29,1.35-.29Z"/>
    <path class="cls-5" d="M69.67,299.54c.67,0,1.25.14,1.74.42.48.28.85.67,1.11,1.18s.39,1.12.39,1.83v.86h-5.05c.02.73.22,1.3.59,1.7s.9.59,1.58.59c.48,0,.92-.05,1.3-.14.38-.09.78-.23,1.19-.41v1.31c-.38.18-.76.31-1.16.39-.39.08-.86.12-1.41.12-.74,0-1.4-.14-1.96-.43-.56-.29-1-.72-1.32-1.29s-.47-1.29-.47-2.15.14-1.57.43-2.16.69-1.04,1.21-1.35,1.13-.46,1.82-.46ZM69.67,300.75c-.51,0-.92.16-1.23.49-.31.33-.5.81-.55,1.44h3.44c0-.38-.07-.71-.19-1-.12-.29-.3-.52-.54-.68-.24-.17-.55-.25-.93-.25Z"/>
    <path class="cls-5" d="M78.55,299.54c.13,0,.27,0,.42.02s.28.03.39.05l-.15,1.51c-.1-.03-.21-.05-.35-.06-.14-.02-.26-.02-.37-.02-.29,0-.56.05-.82.14s-.49.24-.69.43c-.2.19-.36.42-.47.71-.11.28-.17.61-.17.98v3.95h-1.62v-7.57h1.26l.22,1.33h.08c.15-.27.34-.51.56-.74.22-.22.48-.4.77-.54.29-.13.61-.2.95-.2Z"/>
    <path class="cls-5" d="M87.46,303.45c0,.63-.08,1.19-.25,1.67s-.4.9-.72,1.24-.69.59-1.13.77c-.44.17-.94.26-1.5.26-.52,0-1-.09-1.43-.26-.43-.17-.81-.43-1.12-.77-.32-.34-.56-.75-.74-1.24-.17-.49-.26-1.05-.26-1.67,0-.83.14-1.54.43-2.12.29-.58.7-1.02,1.24-1.33.54-.31,1.18-.46,1.92-.46.7,0,1.31.15,1.85.46s.95.75,1.25,1.33.45,1.29.45,2.12ZM81.97,303.45c0,.55.07,1.02.2,1.42.13.39.34.69.62.9.28.21.65.31,1.09.31s.8-.1,1.09-.31c.28-.21.49-.51.63-.9.13-.39.2-.86.2-1.42s-.07-1.01-.2-1.4c-.13-.38-.34-.68-.63-.88-.28-.2-.65-.3-1.09-.3-.67,0-1.15.22-1.46.67-.3.45-.46,1.08-.46,1.91Z"/>
    <path class="cls-5" d="M95.48,307.39c-.9,0-1.62-.33-2.16-.99-.54-.66-.82-1.63-.82-2.92s.28-2.28.83-2.95,1.28-1,2.19-1c.38,0,.71.05,1,.15.29.1.54.24.75.41.21.17.39.37.53.58h.08c-.02-.14-.05-.35-.08-.61-.03-.27-.04-.51-.04-.74v-2.72h1.61v10.64h-1.26l-.29-1.03h-.07c-.14.21-.31.41-.52.59-.21.18-.46.32-.74.42-.29.1-.62.15-1.01.15ZM95.94,306.08c.68,0,1.17-.2,1.45-.59.28-.4.43-.99.43-1.78v-.21c0-.85-.14-1.5-.41-1.95-.27-.45-.77-.68-1.49-.68-.58,0-1.02.23-1.32.7-.3.46-.46,1.11-.46,1.95s.15,1.47.46,1.91c.3.44.75.66,1.34.66Z"/>
    <path class="cls-5" d="M104.67,299.54c.67,0,1.25.14,1.74.42.48.28.85.67,1.11,1.18s.39,1.12.39,1.83v.86h-5.05c.02.73.22,1.3.59,1.7s.9.59,1.58.59c.48,0,.92-.05,1.3-.14.38-.09.78-.23,1.19-.41v1.31c-.38.18-.76.31-1.16.39-.39.08-.86.12-1.41.12-.74,0-1.4-.14-1.96-.43-.56-.29-1-.72-1.32-1.29s-.47-1.29-.47-2.15.14-1.57.43-2.16.69-1.04,1.21-1.35,1.13-.46,1.82-.46ZM104.67,300.75c-.51,0-.92.16-1.23.49-.31.33-.5.81-.55,1.44h3.44c0-.38-.07-.71-.19-1-.12-.29-.3-.52-.54-.68-.24-.17-.55-.25-.93-.25Z"/>
    <path class="cls-5" d="M116.18,306.09c.21,0,.42-.02.62-.06.21-.04.39-.08.56-.14v1.22c-.18.08-.41.14-.69.2-.28.05-.58.08-.88.08-.43,0-.81-.07-1.16-.21-.34-.14-.61-.39-.81-.74-.2-.35-.3-.84-.3-1.46v-4.06h-1.03v-.72l1.11-.57.53-1.62h1.01v1.68h2.17v1.23h-2.17v4.04c0,.38.1.67.29.85s.44.28.76.28Z"/>
    <path class="cls-5" d="M121.91,299.54c.67,0,1.25.14,1.74.42.48.28.85.67,1.11,1.18s.39,1.12.39,1.83v.86h-5.05c.02.73.22,1.3.59,1.7s.9.59,1.58.59c.48,0,.92-.05,1.3-.14.38-.09.78-.23,1.19-.41v1.31c-.38.18-.76.31-1.16.39-.39.08-.86.12-1.41.12-.74,0-1.4-.14-1.96-.43-.56-.29-1-.72-1.32-1.29s-.47-1.29-.47-2.15.14-1.57.43-2.16.69-1.04,1.21-1.35,1.13-.46,1.82-.46ZM121.91,300.75c-.51,0-.92.16-1.23.49-.31.33-.5.81-.55,1.44h3.44c0-.38-.07-.71-.19-1-.12-.29-.3-.52-.54-.68-.24-.17-.55-.25-.93-.25Z"/>
    <path class="cls-5" d="M128.58,307.25h-1.62v-10.64h1.62v10.64Z"/>
    <path class="cls-5" d="M133.88,299.54c.67,0,1.25.14,1.74.42.48.28.85.67,1.11,1.18s.39,1.12.39,1.83v.86h-5.05c.02.73.22,1.3.59,1.7s.9.59,1.58.59c.48,0,.92-.05,1.3-.14.38-.09.78-.23,1.19-.41v1.31c-.38.18-.76.31-1.16.39-.39.08-.86.12-1.41.12-.74,0-1.4-.14-1.96-.43-.56-.29-1-.72-1.32-1.29s-.47-1.29-.47-2.15.14-1.57.43-2.16.69-1.04,1.21-1.35,1.13-.46,1.82-.46ZM133.88,300.75c-.51,0-.92.16-1.23.49-.31.33-.5.81-.55,1.44h3.44c0-.38-.07-.71-.19-1-.12-.29-.3-.52-.54-.68-.24-.17-.55-.25-.93-.25ZM136.11,296.52v.14c-.11.13-.26.29-.44.47-.19.19-.39.38-.61.58-.22.2-.43.39-.65.58-.21.18-.41.34-.58.46h-1.07v-.18c.15-.17.32-.38.5-.62s.37-.49.55-.75c.18-.25.33-.49.45-.7h1.85Z"/>
    <path class="cls-5" d="M142.71,300.91h-1.84v6.34h-1.61v-6.34h-1.23v-.78l1.23-.47v-.53c0-.64.1-1.15.31-1.53s.5-.65.88-.82c.38-.17.83-.25,1.36-.25.35,0,.66.03.95.09s.53.12.72.2l-.42,1.21c-.15-.05-.33-.1-.52-.14s-.4-.06-.62-.06c-.36,0-.63.11-.8.34s-.26.56-.26.99v.51h1.84v1.23Z"/>
    <path class="cls-5" d="M150.7,303.45c0,.63-.08,1.19-.25,1.67s-.4.9-.72,1.24-.69.59-1.13.77c-.44.17-.94.26-1.5.26-.52,0-1-.09-1.43-.26-.43-.17-.81-.43-1.12-.77-.32-.34-.56-.75-.74-1.24-.17-.49-.26-1.05-.26-1.67,0-.83.14-1.54.43-2.12.29-.58.7-1.02,1.24-1.33.54-.31,1.18-.46,1.92-.46.7,0,1.31.15,1.85.46s.95.75,1.25,1.33.45,1.29.45,2.12ZM145.21,303.45c0,.55.07,1.02.2,1.42.13.39.34.69.62.9.28.21.65.31,1.09.31s.8-.1,1.09-.31c.28-.21.49-.51.63-.9.13-.39.2-.86.2-1.42s-.07-1.01-.2-1.4c-.13-.38-.34-.68-.63-.88-.28-.2-.65-.3-1.09-.3-.67,0-1.15.22-1.46.67-.3.45-.46,1.08-.46,1.91Z"/>
    <path class="cls-5" d="M156.49,299.54c.85,0,1.52.22,1.99.66.48.44.71,1.14.71,2.12v4.94h-1.61v-4.63c0-.58-.12-1.02-.36-1.32-.24-.29-.62-.44-1.12-.44-.73,0-1.24.23-1.53.68-.29.45-.43,1.1-.43,1.96v3.76h-1.61v-7.57h1.26l.23,1.03h.09c.16-.26.37-.48.61-.65.24-.17.52-.3.82-.39.3-.09.62-.13.95-.13Z"/>
    <path class="cls-5" d="M168.14,303.45c0,.63-.08,1.19-.25,1.67s-.4.9-.72,1.24-.69.59-1.13.77c-.44.17-.94.26-1.5.26-.52,0-1-.09-1.43-.26-.43-.17-.81-.43-1.12-.77-.32-.34-.56-.75-.74-1.24-.17-.49-.26-1.05-.26-1.67,0-.83.14-1.54.43-2.12.29-.58.7-1.02,1.24-1.33.54-.31,1.18-.46,1.92-.46.7,0,1.31.15,1.85.46s.95.75,1.25,1.33.45,1.29.45,2.12ZM162.65,303.45c0,.55.07,1.02.2,1.42.13.39.34.69.62.9.28.21.65.31,1.09.31s.8-.1,1.09-.31c.28-.21.49-.51.63-.9.13-.39.2-.86.2-1.42s-.07-1.01-.2-1.4c-.13-.38-.34-.68-.63-.88-.28-.2-.65-.3-1.09-.3-.67,0-1.15.22-1.46.67-.3.45-.46,1.08-.46,1.91Z"/>
  </g>
  <rect class="cls-8" x="32.29" y="390.98" width="315.42" height="41.68" rx="5" ry="5"/>
  <g>
    <path class="cls-5" d="M37.91,385.3l-2.88-8.34h-.06c.01.19.03.44.05.76.02.32.03.67.05,1.04.01.37.02.72.02,1.06v5.48h-1.49v-9.99h2.3l2.77,7.98h.04l2.86-7.98h2.3v9.99h-1.57v-5.56c0-.31,0-.63.01-.99,0-.35.02-.69.04-1.01.02-.32.03-.57.04-.77h-.06l-2.98,8.33h-1.45Z"/>
    <path class="cls-5" d="M53.03,381.5c0,.63-.08,1.19-.25,1.67s-.4.9-.72,1.24-.69.59-1.13.77c-.44.17-.94.26-1.5.26-.52,0-1-.09-1.43-.26-.43-.17-.81-.43-1.12-.77-.32-.34-.56-.75-.74-1.24-.17-.49-.26-1.05-.26-1.67,0-.83.14-1.54.43-2.12.29-.58.7-1.02,1.24-1.33.54-.31,1.18-.46,1.92-.46.7,0,1.31.15,1.85.46s.95.75,1.25,1.33.45,1.29.45,2.12ZM47.55,381.5c0,.55.07,1.02.2,1.42.13.39.34.69.62.9.28.21.65.31,1.09.31s.8-.1,1.09-.31c.28-.21.49-.51.63-.9.13-.39.2-.86.2-1.42s-.07-1.01-.2-1.4c-.13-.38-.34-.68-.63-.88-.28-.2-.65-.3-1.09-.3-.67,0-1.15.22-1.46.67-.3.45-.46,1.08-.46,1.91Z"/>
    <path class="cls-5" d="M58.82,377.59c.85,0,1.52.22,1.99.66.48.44.71,1.14.71,2.12v4.94h-1.61v-4.63c0-.58-.12-1.02-.36-1.32-.24-.29-.62-.44-1.12-.44-.73,0-1.24.23-1.53.68-.29.45-.43,1.1-.43,1.96v3.76h-1.61v-7.57h1.26l.23,1.03h.09c.16-.26.37-.48.61-.65.24-.17.52-.3.82-.39.3-.09.62-.13.95-.13Z"/>
    <path class="cls-5" d="M66.59,384.14c.21,0,.42-.02.62-.06.21-.04.39-.08.56-.14v1.22c-.18.08-.41.14-.69.2-.28.05-.58.08-.88.08-.43,0-.81-.07-1.16-.21-.34-.14-.61-.39-.81-.74-.2-.35-.3-.84-.3-1.46v-4.06h-1.03v-.72l1.11-.57.53-1.62h1.01v1.68h2.17v1.23h-2.17v4.04c0,.38.1.67.29.85s.44.28.76.28Z"/>
    <path class="cls-5" d="M76.01,381.5c0,.63-.08,1.19-.25,1.67s-.4.9-.72,1.24-.69.59-1.13.77c-.44.17-.94.26-1.5.26-.52,0-1-.09-1.43-.26-.43-.17-.81-.43-1.12-.77-.32-.34-.56-.75-.74-1.24-.17-.49-.26-1.05-.26-1.67,0-.83.14-1.54.43-2.12.29-.58.7-1.02,1.24-1.33.54-.31,1.18-.46,1.92-.46.7,0,1.31.15,1.85.46s.95.75,1.25,1.33.45,1.29.45,2.12ZM70.52,381.5c0,.55.07,1.02.2,1.42.13.39.34.69.62.9.28.21.65.31,1.09.31s.8-.1,1.09-.31c.28-.21.49-.51.63-.9.13-.39.2-.86.2-1.42s-.07-1.01-.2-1.4c-.13-.38-.34-.68-.63-.88-.28-.2-.65-.3-1.09-.3-.67,0-1.15.22-1.46.67-.3.45-.46,1.08-.46,1.91Z"/>
    <path class="cls-5" d="M84.46,377.59c.96,0,1.68.21,2.17.64.49.42.73,1.08.73,1.98v5.09h-1.14l-.31-1.07h-.05c-.21.27-.43.5-.66.68-.23.18-.49.31-.79.4-.3.09-.66.13-1.09.13-.46,0-.86-.08-1.22-.25-.36-.17-.63-.42-.84-.76-.2-.34-.3-.77-.3-1.3,0-.78.29-1.37.87-1.76s1.46-.61,2.63-.65l1.31-.05v-.4c0-.52-.12-.89-.36-1.11-.24-.22-.58-.33-1.03-.33-.38,0-.75.05-1.1.16s-.7.24-1.04.4l-.53-1.13c.37-.2.8-.36,1.27-.48s.96-.18,1.47-.18ZM85.76,381.69l-.97.04c-.8.03-1.36.16-1.69.41-.32.24-.49.58-.49,1.01,0,.37.11.65.33.82.22.17.52.26.88.26.56,0,1.02-.16,1.38-.48.37-.32.55-.78.55-1.39v-.66Z"/>
    <path class="cls-5" d="M98.34,383.14c0,.5-.12.92-.36,1.26-.24.34-.59.6-1.06.78-.46.18-1.03.26-1.7.26-.53,0-.98-.04-1.36-.11-.38-.07-.74-.19-1.08-.34v-1.39c.37.17.77.31,1.22.44.45.12.87.18,1.27.18.52,0,.9-.08,1.14-.25.23-.17.35-.39.35-.67,0-.16-.05-.31-.14-.44-.09-.13-.27-.26-.52-.4-.25-.14-.63-.3-1.12-.5-.48-.19-.88-.38-1.21-.58-.33-.19-.58-.43-.75-.69-.17-.27-.25-.62-.25-1.04,0-.67.27-1.19.8-1.53.53-.35,1.24-.52,2.11-.52.46,0,.9.05,1.32.14.41.09.82.23,1.21.41l-.51,1.21c-.34-.15-.68-.27-1.03-.37-.34-.1-.69-.15-1.05-.15-.41,0-.73.06-.95.19-.22.13-.33.31-.33.54,0,.18.05.33.16.45.11.12.29.25.54.37.26.12.62.28,1.08.46.45.17.84.35,1.17.54.33.19.58.42.76.69s.27.63.27,1.06Z"/>
    <path class="cls-5" d="M106.76,381.5c0,.63-.08,1.19-.25,1.67s-.4.9-.72,1.24-.69.59-1.13.77c-.44.17-.94.26-1.5.26-.52,0-1-.09-1.43-.26-.43-.17-.81-.43-1.12-.77-.32-.34-.56-.75-.74-1.24-.17-.49-.26-1.05-.26-1.67,0-.83.14-1.54.43-2.12.29-.58.7-1.02,1.24-1.33.54-.31,1.18-.46,1.92-.46.7,0,1.31.15,1.85.46s.95.75,1.25,1.33.45,1.29.45,2.12ZM101.28,381.5c0,.55.07,1.02.2,1.42.13.39.34.69.62.9.28.21.65.31,1.09.31s.8-.1,1.09-.31c.28-.21.49-.51.63-.9.13-.39.2-.86.2-1.42s-.07-1.01-.2-1.4c-.13-.38-.34-.68-.63-.88-.28-.2-.65-.3-1.09-.3-.67,0-1.15.22-1.46.67-.3.45-.46,1.08-.46,1.91Z"/>
    <path class="cls-5" d="M110.22,385.3h-1.62v-10.64h1.62v10.64Z"/>
    <path class="cls-5" d="M113.33,374.84c.25,0,.46.07.64.2.18.13.27.36.27.68s-.09.55-.27.68c-.18.14-.39.21-.64.21s-.47-.07-.65-.21-.27-.36-.27-.68.09-.55.27-.68.39-.2.65-.2ZM114.12,377.74v7.57h-1.61v-7.57h1.61Z"/>
    <path class="cls-5" d="M119.47,385.44c-.71,0-1.33-.14-1.86-.41-.52-.28-.93-.7-1.21-1.28-.28-.58-.42-1.31-.42-2.19s.16-1.67.46-2.26c.31-.58.74-1.01,1.29-1.29s1.18-.42,1.89-.42c.45,0,.86.04,1.23.13.37.09.68.2.93.33l-.48,1.29c-.28-.11-.56-.2-.85-.28-.29-.08-.57-.12-.84-.12-.44,0-.81.1-1.1.3-.29.2-.51.49-.66.88s-.22.87-.22,1.44.07,1.02.22,1.4c.15.38.36.67.65.86.29.19.64.29,1.06.29s.79-.05,1.11-.15.64-.23.93-.39v1.39c-.29.16-.59.29-.92.37-.33.08-.73.12-1.21.12Z"/>
    <path class="cls-5" d="M124.18,374.84c.25,0,.46.07.64.2.18.13.27.36.27.68s-.09.55-.27.68c-.18.14-.39.21-.64.21s-.47-.07-.65-.21-.27-.36-.27-.68.09-.55.27-.68.39-.2.65-.2ZM124.98,377.74v7.57h-1.61v-7.57h1.61Z"/>
    <path class="cls-5" d="M130.09,384.14c.21,0,.42-.02.62-.06.21-.04.39-.08.56-.14v1.22c-.18.08-.41.14-.69.2-.28.05-.58.08-.88.08-.43,0-.81-.07-1.16-.21-.34-.14-.61-.39-.81-.74-.2-.35-.3-.84-.3-1.46v-4.06h-1.03v-.72l1.11-.57.53-1.62h1.01v1.68h2.17v1.23h-2.17v4.04c0,.38.1.67.29.85s.44.28.76.28Z"/>
    <path class="cls-5" d="M135.78,377.59c.96,0,1.68.21,2.17.64.49.42.73,1.08.73,1.98v5.09h-1.14l-.31-1.07h-.05c-.21.27-.43.5-.66.68-.23.18-.49.31-.79.4-.3.09-.66.13-1.09.13-.46,0-.86-.08-1.22-.25-.36-.17-.63-.42-.84-.76-.2-.34-.3-.77-.3-1.3,0-.78.29-1.37.87-1.76s1.46-.61,2.63-.65l1.31-.05v-.4c0-.52-.12-.89-.36-1.11-.24-.22-.58-.33-1.03-.33-.38,0-.75.05-1.1.16s-.7.24-1.04.4l-.53-1.13c.37-.2.8-.36,1.27-.48s.96-.18,1.47-.18ZM137.08,381.69l-.97.04c-.8.03-1.36.16-1.69.41-.32.24-.49.58-.49,1.01,0,.37.11.65.33.82.22.17.52.26.88.26.56,0,1.02-.16,1.38-.48.37-.32.55-.78.55-1.39v-.66Z"/>
    <path class="cls-5" d="M144.77,377.59c.13,0,.27,0,.42.02s.28.03.39.05l-.15,1.51c-.1-.03-.21-.05-.35-.06-.14-.02-.26-.02-.37-.02-.29,0-.56.05-.82.14s-.49.24-.69.43c-.2.19-.36.42-.47.71-.11.28-.17.61-.17.98v3.95h-1.62v-7.57h1.26l.22,1.33h.08c.15-.27.34-.51.56-.74.22-.22.48-.4.77-.54.29-.13.61-.2.95-.2Z"/>
  </g>
</svg>