<?xml version="1.0" encoding="UTF-8"?>
<svg id="Layer_1" data-name="Layer 1" xmlns="http://www.w3.org/2000/svg" viewBox="0 0 380 42">
  <defs>
    <style>
      .cls-1 {
        fill: #fff;
      }
    </style>
  </defs>
  <path class="cls-1" d="M9.82,15.17c0,.38-.09.71-.28.97-.19.27-.45.47-.79.61s-.74.21-1.2.21c-.24,0-.47-.01-.69-.04s-.42-.06-.6-.1-.34-.1-.48-.16v-.72c.22.09.49.18.8.25.32.08.65.12.99.12.32,0,.59-.04.82-.13s.39-.21.51-.37c.12-.16.17-.36.17-.59s-.05-.4-.15-.55-.26-.28-.48-.4c-.22-.12-.53-.25-.92-.39-.27-.1-.51-.2-.72-.32-.21-.12-.38-.25-.52-.39s-.25-.32-.32-.51-.11-.41-.11-.66c0-.34.09-.64.26-.88.17-.24.42-.43.72-.56s.66-.2,1.07-.2c.34,0,.66.03.95.1.29.06.56.15.8.26l-.23.64c-.23-.1-.48-.18-.74-.24-.26-.06-.53-.1-.8-.1s-.51.04-.7.12c-.19.08-.33.19-.43.34s-.15.32-.15.52c0,.23.05.41.14.56s.25.28.46.4.49.24.83.36c.38.14.7.28.96.44.26.15.46.34.6.56s.21.5.21.84Z"/>
  <path class="cls-1" d="M15,12.06v4.82h-.6l-.11-.68h-.04c-.1.17-.23.31-.39.42s-.34.2-.53.26c-.2.06-.41.09-.63.09-.38,0-.7-.06-.96-.18s-.45-.31-.58-.57c-.13-.26-.2-.59-.2-.99v-3.16h.74v3.1c0,.4.09.7.27.9.18.2.46.3.83.3s.64-.07.85-.2.37-.33.46-.6c.09-.26.14-.58.14-.96v-2.54h.73Z"/>
  <path class="cls-1" d="M18.47,16.97c-.43,0-.82-.09-1.15-.27s-.59-.45-.77-.82-.28-.83-.28-1.38.1-1.06.29-1.43c.19-.37.46-.65.81-.82s.73-.27,1.17-.27c.24,0,.47.02.7.07.22.05.41.11.55.18l-.22.61c-.15-.06-.32-.11-.51-.16s-.37-.07-.54-.07c-.33,0-.61.07-.83.22s-.39.35-.5.63c-.11.28-.17.62-.17,1.03s.05.72.16,1,.27.49.48.63c.21.15.48.22.8.22.25,0,.48-.03.69-.08s.39-.12.56-.19v.65c-.16.08-.34.15-.54.19-.2.04-.43.07-.71.07Z"/>
  <path class="cls-1" d="M24.83,12.06v4.82h-.6l-.11-.68h-.04c-.1.17-.23.31-.39.42s-.34.2-.53.26c-.2.06-.41.09-.63.09-.38,0-.7-.06-.96-.18s-.45-.31-.58-.57c-.13-.26-.2-.59-.2-.99v-3.16h.74v3.1c0,.4.09.7.27.9.18.2.46.3.83.3s.64-.07.85-.2.37-.33.46-.6c.09-.26.14-.58.14-.96v-2.54h.73Z"/>
  <path class="cls-1" d="M28.56,11.98c.1,0,.2,0,.3.02s.2.02.28.04l-.09.68c-.08-.02-.17-.04-.26-.05s-.19-.02-.27-.02c-.19,0-.38.04-.55.12-.17.08-.32.19-.45.33-.13.15-.23.32-.3.52s-.11.43-.11.68v2.58h-.73v-4.82h.61l.08.89h.03c.1-.18.22-.34.36-.49.14-.15.3-.27.49-.35.19-.09.39-.13.62-.13Z"/>
  <path class="cls-1" d="M33.16,15.56c0,.31-.08.57-.23.78-.15.21-.37.37-.66.47-.29.11-.63.16-1.02.16-.34,0-.63-.03-.87-.08s-.46-.13-.65-.22v-.67c.2.1.43.18.7.26s.55.12.83.12c.42,0,.72-.07.91-.2s.28-.32.28-.55c0-.13-.04-.25-.11-.35-.08-.1-.2-.2-.38-.29s-.42-.2-.73-.31c-.31-.12-.57-.23-.8-.35-.22-.12-.4-.26-.52-.42s-.18-.38-.18-.65c0-.41.16-.72.49-.94.33-.22.76-.33,1.3-.33.29,0,.56.03.81.09.25.06.49.13.71.23l-.25.58c-.2-.08-.41-.16-.64-.22s-.46-.09-.69-.09c-.34,0-.6.06-.78.17-.18.11-.27.26-.27.46,0,.15.04.27.12.37.08.1.22.19.4.27s.43.18.73.3c.3.11.56.23.78.34.22.12.39.26.51.43.12.17.18.38.18.65Z"/>
  <path class="cls-1" d="M36.14,11.99c.57,0,1,.13,1.28.39s.42.67.42,1.23v3.27h-.53l-.14-.71h-.04c-.13.18-.28.32-.42.44-.15.12-.32.21-.51.27-.19.06-.43.09-.71.09-.29,0-.55-.05-.78-.15s-.41-.26-.54-.47-.2-.47-.2-.79c0-.48.19-.85.57-1.11s.96-.4,1.74-.42l.83-.04v-.29c0-.42-.09-.71-.27-.87s-.43-.25-.76-.25c-.25,0-.49.04-.72.11s-.45.16-.65.26l-.22-.55c.22-.11.47-.21.75-.29s.58-.12.89-.12ZM37.11,14.51l-.73.03c-.6.02-1.02.12-1.27.29s-.37.42-.37.73c0,.28.08.48.25.61s.39.2.66.2c.43,0,.78-.12,1.05-.36s.41-.59.41-1.07v-.44Z"/>
  <path class="cls-1" d="M40.07,16.88h-.73v-6.84h.73v6.84Z"/>
  <path class="cls-1" d="M43.46,11.98c.41,0,.76.09,1.05.27s.52.44.67.76.23.71.23,1.14v.45h-3.33c0,.57.15,1,.42,1.29s.66.44,1.15.44c.3,0,.57-.03.81-.08s.48-.14.73-.25v.64c-.24.11-.48.19-.72.24-.24.05-.52.07-.85.07-.46,0-.87-.09-1.21-.28-.34-.19-.61-.47-.8-.83s-.29-.81-.29-1.34.09-.97.26-1.35c.17-.38.42-.67.74-.88.32-.21.69-.31,1.12-.31ZM43.46,12.57c-.39,0-.7.13-.93.38s-.37.61-.41,1.07h2.55c0-.29-.05-.54-.13-.76s-.22-.39-.39-.51-.4-.18-.68-.18Z"/>
  <path class="cls-1" d="M49.78,15.56c0,.31-.08.57-.23.78-.15.21-.37.37-.66.47-.29.11-.63.16-1.02.16-.34,0-.63-.03-.87-.08s-.46-.13-.65-.22v-.67c.2.1.43.18.7.26s.55.12.83.12c.42,0,.72-.07.91-.2s.28-.32.28-.55c0-.13-.04-.25-.11-.35-.08-.1-.2-.2-.38-.29s-.42-.2-.73-.31c-.31-.12-.57-.23-.8-.35-.22-.12-.4-.26-.52-.42s-.18-.38-.18-.65c0-.41.16-.72.49-.94.33-.22.76-.33,1.3-.33.29,0,.56.03.81.09.25.06.49.13.71.23l-.25.58c-.2-.08-.41-.16-.64-.22s-.46-.09-.69-.09c-.34,0-.6.06-.78.17-.18.11-.27.26-.27.46,0,.15.04.27.12.37.08.1.22.19.4.27s.43.18.73.3c.3.11.56.23.78.34.22.12.39.26.51.43.12.17.18.38.18.65Z"/>
  <path class="cls-1" d="M57.02,10.04h.61v9.02h-.61v-9.02Z"/>
  <path class="cls-1" d="M68.1,11.02c-.35,0-.67.06-.96.18-.28.12-.52.3-.72.53-.2.23-.35.51-.46.83s-.16.69-.16,1.1c0,.54.08,1.01.25,1.4.17.4.42.7.76.92.33.22.75.33,1.26.33.29,0,.56-.02.81-.07.25-.05.5-.11.74-.18v.65c-.23.09-.48.15-.74.2-.26.04-.56.06-.92.06-.65,0-1.2-.14-1.64-.41-.44-.27-.77-.65-.98-1.15-.22-.5-.33-1.08-.33-1.75,0-.49.07-.93.2-1.33.14-.4.33-.75.6-1.04.26-.29.58-.52.97-.68.38-.16.82-.24,1.32-.24.33,0,.64.03.94.1s.57.16.82.28l-.3.63c-.21-.09-.43-.17-.67-.24-.25-.07-.51-.1-.79-.1Z"/>
  <path class="cls-1" d="M75.07,14.46c0,.4-.05.75-.15,1.06s-.25.57-.44.79-.43.38-.7.49c-.27.11-.58.17-.93.17-.32,0-.62-.06-.89-.17-.27-.11-.5-.28-.69-.49-.2-.21-.35-.48-.45-.79s-.16-.66-.16-1.06c0-.53.09-.98.27-1.35s.43-.65.77-.85c.33-.19.73-.29,1.19-.29s.82.1,1.15.29c.33.2.59.48.77.85.18.37.27.82.27,1.34ZM71.4,14.46c0,.39.05.72.15,1.01s.26.5.47.66.49.23.83.23.61-.08.82-.23c.22-.16.37-.38.48-.66s.15-.62.15-1.01-.05-.72-.15-1-.26-.5-.47-.65-.49-.23-.83-.23c-.5,0-.87.17-1.1.5-.23.33-.35.79-.35,1.38Z"/>
  <path class="cls-1" d="M78.61,11.98c.57,0,1,.14,1.3.42s.44.73.44,1.35v3.14h-.72v-3.09c0-.4-.09-.7-.27-.9s-.46-.3-.84-.3c-.53,0-.91.15-1.12.45s-.33.74-.33,1.31v2.52h-.73v-4.82h.59l.11.69h.04c.1-.17.23-.31.39-.43.16-.12.34-.2.53-.26.2-.06.4-.09.62-.09Z"/>
  <path class="cls-1" d="M83.41,16.37c.12,0,.24-.01.37-.03s.23-.05.31-.07v.57c-.08.04-.2.07-.35.1s-.3.04-.44.04c-.25,0-.49-.04-.69-.13-.21-.09-.37-.24-.5-.46s-.19-.51-.19-.89v-2.86h-.69v-.36l.69-.29.29-1.05h.44v1.12h1.41v.57h-1.41v2.83c0,.3.07.53.21.68s.32.22.56.22Z"/>
  <path class="cls-1" d="M86.86,11.99c.57,0,1,.13,1.28.39s.42.67.42,1.23v3.27h-.53l-.14-.71h-.04c-.13.18-.28.32-.42.44-.15.12-.32.21-.51.27-.19.06-.43.09-.71.09-.29,0-.55-.05-.78-.15s-.41-.26-.54-.47-.2-.47-.2-.79c0-.48.19-.85.57-1.11s.96-.4,1.74-.42l.83-.04v-.29c0-.42-.09-.71-.27-.87s-.43-.25-.76-.25c-.25,0-.49.04-.72.11s-.45.16-.65.26l-.22-.55c.22-.11.47-.21.75-.29s.58-.12.89-.12ZM87.84,14.51l-.73.03c-.6.02-1.02.12-1.27.29s-.37.42-.37.73c0,.28.08.48.25.61s.39.2.66.2c.43,0,.78-.12,1.05-.36s.41-.59.41-1.07v-.44ZM88.06,9.99v.09c-.06.08-.14.19-.24.31-.1.12-.21.24-.34.37s-.25.25-.37.37c-.12.12-.24.22-.35.3h-.49v-.11c.09-.11.2-.25.31-.4s.22-.32.33-.48.19-.32.26-.45h.88Z"/>
  <path class="cls-1" d="M91.99,16.97c-.43,0-.82-.09-1.15-.27s-.59-.45-.77-.82-.28-.83-.28-1.38.1-1.06.29-1.43c.19-.37.46-.65.81-.82s.73-.27,1.17-.27c.24,0,.47.02.7.07.22.05.41.11.55.18l-.22.61c-.15-.06-.32-.11-.51-.16s-.37-.07-.54-.07c-.33,0-.61.07-.83.22s-.39.35-.5.63c-.11.28-.17.62-.17,1.03s.05.72.16,1,.27.49.48.63c.21.15.48.22.8.22.25,0,.48-.03.69-.08s.39-.12.56-.19v.65c-.16.08-.34.15-.54.19-.2.04-.43.07-.71.07Z"/>
  <path class="cls-1" d="M95.93,16.37c.12,0,.24-.01.37-.03s.23-.05.31-.07v.57c-.08.04-.2.07-.35.1s-.3.04-.44.04c-.25,0-.49-.04-.69-.13-.21-.09-.37-.24-.5-.46s-.19-.51-.19-.89v-2.86h-.69v-.36l.69-.29.29-1.05h.44v1.12h1.41v.57h-1.41v2.83c0,.3.07.53.21.68s.32.22.56.22Z"/>
  <path class="cls-1" d="M99.43,11.98c.41,0,.76.09,1.05.27s.52.44.67.76.23.71.23,1.14v.45h-3.33c0,.57.15,1,.42,1.29s.66.44,1.15.44c.3,0,.57-.03.81-.08s.48-.14.73-.25v.64c-.24.11-.48.19-.72.24-.24.05-.52.07-.85.07-.46,0-.87-.09-1.21-.28-.34-.19-.61-.47-.8-.83s-.29-.81-.29-1.34.09-.97.26-1.35c.17-.38.42-.67.74-.88.32-.21.69-.31,1.12-.31ZM99.42,12.57c-.39,0-.7.13-.93.38s-.37.61-.41,1.07h2.55c0-.29-.05-.54-.13-.76s-.22-.39-.39-.51-.4-.18-.68-.18Z"/>
  <path class="cls-1" d="M104.91,11.98c.57,0,1,.14,1.3.42s.44.73.44,1.35v3.14h-.72v-3.09c0-.4-.09-.7-.27-.9s-.46-.3-.84-.3c-.53,0-.91.15-1.12.45s-.33.74-.33,1.31v2.52h-.73v-4.82h.59l.11.69h.04c.1-.17.23-.31.39-.43.16-.12.34-.2.53-.26.2-.06.4-.09.62-.09Z"/>
  <path class="cls-1" d="M112.3,14.46c0,.4-.05.75-.15,1.06s-.25.57-.44.79-.43.38-.7.49c-.27.11-.58.17-.93.17-.32,0-.62-.06-.89-.17-.27-.11-.5-.28-.69-.49-.2-.21-.35-.48-.45-.79s-.16-.66-.16-1.06c0-.53.09-.98.27-1.35s.43-.65.77-.85c.33-.19.73-.29,1.19-.29s.82.1,1.15.29c.33.2.59.48.77.85.18.37.27.82.27,1.34ZM108.64,14.46c0,.39.05.72.15,1.01s.26.5.47.66.49.23.83.23.61-.08.82-.23c.22-.16.37-.38.48-.66s.15-.62.15-1.01-.05-.72-.15-1-.26-.5-.47-.65-.49-.23-.83-.23c-.5,0-.87.17-1.1.5-.23.33-.35.79-.35,1.38Z"/>
  <path class="cls-1" d="M116.68,15.56c0,.31-.08.57-.23.78-.15.21-.37.37-.66.47-.29.11-.63.16-1.02.16-.34,0-.63-.03-.87-.08s-.46-.13-.65-.22v-.67c.2.1.43.18.7.26s.55.12.83.12c.42,0,.72-.07.91-.2s.28-.32.28-.55c0-.13-.04-.25-.11-.35-.08-.1-.2-.2-.38-.29s-.42-.2-.73-.31c-.31-.12-.57-.23-.8-.35-.22-.12-.4-.26-.52-.42s-.18-.38-.18-.65c0-.41.16-.72.49-.94.33-.22.76-.33,1.3-.33.29,0,.56.03.81.09.25.06.49.13.71.23l-.25.58c-.2-.08-.41-.16-.64-.22s-.46-.09-.69-.09c-.34,0-.6.06-.78.17-.18.11-.27.26-.27.46,0,.15.04.27.12.37.08.1.22.19.4.27s.43.18.73.3c.3.11.56.23.78.34.22.12.39.26.51.43.12.17.18.38.18.65Z"/>
  <path class="cls-1" d="M123.92,10.04h.61v9.02h-.61v-9.02Z"/>
  <path class="cls-1" d="M133.94,10.46c.83,0,1.43.16,1.82.49.38.32.57.79.57,1.39,0,.27-.04.53-.13.78-.09.24-.23.46-.43.65-.2.19-.46.33-.78.44-.32.11-.72.16-1.19.16h-.78v2.53h-.75v-6.42h1.68ZM133.87,11.09h-.86v2.62h.7c.41,0,.75-.04,1.03-.13s.48-.23.62-.43c.14-.2.21-.46.21-.79,0-.43-.14-.75-.41-.96-.27-.21-.7-.31-1.28-.31Z"/>
  <path class="cls-1" d="M141.72,14.46c0,.4-.05.75-.15,1.06s-.25.57-.44.79-.43.38-.7.49c-.27.11-.58.17-.93.17-.32,0-.62-.06-.89-.17-.27-.11-.5-.28-.69-.49-.2-.21-.35-.48-.45-.79s-.16-.66-.16-1.06c0-.53.09-.98.27-1.35s.43-.65.77-.85c.33-.19.73-.29,1.19-.29s.82.1,1.15.29c.33.2.59.48.77.85.18.37.27.82.27,1.34ZM138.05,14.46c0,.39.05.72.15,1.01s.26.5.47.66.49.23.83.23.61-.08.82-.23c.22-.16.37-.38.48-.66s.15-.62.15-1.01-.05-.72-.15-1-.26-.5-.47-.65-.49-.23-.83-.23c-.5,0-.87.17-1.1.5-.23.33-.35.79-.35,1.38Z"/>
  <path class="cls-1" d="M143.71,16.88h-.73v-6.84h.73v6.84Z"/>
  <path class="cls-1" d="M146.89,9.99v.09c-.06.08-.14.19-.24.31-.1.12-.21.24-.34.37s-.25.25-.37.37-.24.22-.34.3h-.49v-.11c.09-.11.2-.25.31-.4s.22-.32.33-.48.19-.32.26-.45h.88ZM145.98,16.88h-.73v-4.82h.73v4.82Z"/>
  <path class="cls-1" d="M149.08,16.37c.12,0,.24-.01.37-.03s.23-.05.31-.07v.57c-.08.04-.2.07-.35.1s-.3.04-.44.04c-.25,0-.49-.04-.69-.13-.21-.09-.37-.24-.5-.46s-.19-.51-.19-.89v-2.86h-.69v-.36l.69-.29.29-1.05h.44v1.12h1.41v.57h-1.41v2.83c0,.3.07.53.21.68s.32.22.56.22Z"/>
  <path class="cls-1" d="M151.1,10.26c.12,0,.22.04.31.12.09.08.13.2.13.36s-.04.28-.13.36-.19.12-.31.12-.23-.04-.31-.12c-.08-.08-.12-.2-.12-.36s.04-.28.12-.36c.08-.08.19-.12.31-.12ZM151.46,12.06v4.82h-.73v-4.82h.73Z"/>
  <path class="cls-1" d="M154.93,16.97c-.43,0-.82-.09-1.15-.27s-.59-.45-.77-.82-.28-.83-.28-1.38.1-1.06.29-1.43c.19-.37.46-.65.81-.82s.73-.27,1.17-.27c.24,0,.47.02.7.07.22.05.41.11.55.18l-.22.61c-.15-.06-.32-.11-.51-.16s-.37-.07-.54-.07c-.33,0-.61.07-.83.22s-.39.35-.5.63c-.11.28-.17.62-.17,1.03s.05.72.16,1,.27.49.48.63c.21.15.48.22.8.22.25,0,.48-.03.69-.08s.39-.12.56-.19v.65c-.16.08-.34.15-.54.19-.2.04-.43.07-.71.07Z"/>
  <path class="cls-1" d="M159.12,11.99c.57,0,1,.13,1.28.39s.42.67.42,1.23v3.27h-.53l-.14-.71h-.04c-.13.18-.28.32-.42.44-.15.12-.32.21-.51.27-.19.06-.43.09-.71.09-.29,0-.55-.05-.78-.15s-.41-.26-.54-.47-.2-.47-.2-.79c0-.48.19-.85.57-1.11s.96-.4,1.74-.42l.83-.04v-.29c0-.42-.09-.71-.27-.87s-.43-.25-.76-.25c-.25,0-.49.04-.72.11s-.45.16-.65.26l-.22-.55c.22-.11.47-.21.75-.29s.58-.12.89-.12ZM160.09,14.51l-.73.03c-.6.02-1.02.12-1.27.29s-.37.42-.37.73c0,.28.08.48.25.61s.39.2.66.2c.43,0,.78-.12,1.05-.36s.41-.59.41-1.07v-.44Z"/>
  <path class="cls-1" d="M165.43,15.56c0,.31-.08.57-.23.78-.15.21-.37.37-.66.47-.29.11-.63.16-1.02.16-.34,0-.63-.03-.87-.08s-.46-.13-.65-.22v-.67c.2.1.43.18.7.26s.55.12.83.12c.42,0,.72-.07.91-.2s.28-.32.28-.55c0-.13-.04-.25-.11-.35-.08-.1-.2-.2-.38-.29s-.42-.2-.73-.31c-.31-.12-.57-.23-.8-.35-.22-.12-.4-.26-.52-.42s-.18-.38-.18-.65c0-.41.16-.72.49-.94.33-.22.76-.33,1.3-.33.29,0,.56.03.81.09.25.06.49.13.71.23l-.25.58c-.2-.08-.41-.16-.64-.22s-.46-.09-.69-.09c-.34,0-.6.06-.78.17-.18.11-.27.26-.27.46,0,.15.04.27.12.37.08.1.22.19.4.27s.43.18.73.3c.3.11.56.23.78.34.22.12.39.26.51.43.12.17.18.38.18.65Z"/>
  <path class="cls-1" d="M170.66,16.97c-.61,0-1.09-.21-1.45-.62-.36-.42-.53-1.03-.53-1.85s.18-1.46.54-1.88c.36-.42.85-.63,1.45-.63.25,0,.48.03.67.1s.35.16.49.27c.14.11.25.24.35.38h.05c-.01-.09-.02-.22-.04-.37s-.02-.29-.02-.39v-1.93h.73v6.84h-.59l-.11-.69h-.03c-.09.14-.21.27-.35.39s-.3.21-.5.28c-.19.07-.42.1-.68.1ZM170.77,16.36c.52,0,.88-.15,1.09-.44s.32-.73.32-1.31v-.13c0-.61-.1-1.08-.31-1.41-.2-.33-.57-.49-1.11-.49-.45,0-.78.17-1.01.52s-.33.81-.33,1.41.11,1.05.33,1.37c.22.32.56.48,1.01.48Z"/>
  <path class="cls-1" d="M176.3,11.98c.41,0,.76.09,1.05.27s.52.44.67.76.23.71.23,1.14v.45h-3.33c0,.57.15,1,.42,1.29s.66.44,1.15.44c.3,0,.57-.03.81-.08s.48-.14.73-.25v.64c-.24.11-.48.19-.72.24-.24.05-.52.07-.85.07-.46,0-.87-.09-1.21-.28-.34-.19-.61-.47-.8-.83s-.29-.81-.29-1.34.09-.97.26-1.35c.17-.38.42-.67.74-.88.32-.21.69-.31,1.12-.31ZM176.29,12.57c-.39,0-.7.13-.93.38s-.37.61-.41,1.07h2.55c0-.29-.05-.54-.13-.76s-.22-.39-.39-.51-.4-.18-.68-.18Z"/>
  <path class="cls-1" d="M183.63,10.46c.83,0,1.43.16,1.82.49.38.32.57.79.57,1.39,0,.27-.04.53-.13.78-.09.24-.23.46-.43.65-.2.19-.46.33-.78.44-.32.11-.72.16-1.19.16h-.78v2.53h-.75v-6.42h1.68ZM183.56,11.09h-.86v2.62h.7c.41,0,.75-.04,1.03-.13s.48-.23.62-.43c.14-.2.21-.46.21-.79,0-.43-.14-.75-.41-.96-.27-.21-.7-.31-1.28-.31Z"/>
  <path class="cls-1" d="M189.44,11.98c.1,0,.2,0,.3.02s.2.02.28.04l-.09.68c-.08-.02-.17-.04-.26-.05s-.19-.02-.27-.02c-.19,0-.38.04-.55.12-.17.08-.32.19-.45.33-.13.15-.23.32-.3.52s-.11.43-.11.68v2.58h-.73v-4.82h.61l.08.89h.03c.1-.18.22-.34.36-.49.14-.15.3-.27.49-.35.19-.09.39-.13.62-.13Z"/>
  <path class="cls-1" d="M191.31,10.26c.12,0,.22.04.31.12.09.08.13.2.13.36s-.04.28-.13.36c-.09.08-.19.12-.31.12s-.23-.04-.31-.12c-.08-.08-.12-.2-.12-.36s.04-.28.12-.36c.08-.08.19-.12.31-.12ZM191.66,12.06v4.82h-.73v-4.82h.73Z"/>
  <path class="cls-1" d="M194.26,16.88l-1.83-4.82h.78l1.06,2.91c.07.2.15.42.22.66s.13.43.16.58h.03c.04-.15.09-.34.18-.58.08-.24.16-.46.22-.66l1.06-2.91h.78l-1.83,4.82h-.83Z"/>
  <path class="cls-1" d="M199.5,11.99c.57,0,1,.13,1.28.39s.42.67.42,1.23v3.27h-.53l-.14-.71h-.04c-.13.18-.28.32-.42.44-.15.12-.32.21-.51.27-.19.06-.43.09-.71.09-.29,0-.55-.05-.78-.15-.23-.1-.41-.26-.54-.47-.13-.21-.2-.47-.2-.79,0-.48.19-.85.57-1.11s.96-.4,1.74-.42l.83-.04v-.29c0-.42-.09-.71-.27-.87s-.43-.25-.76-.25c-.25,0-.49.04-.72.11s-.45.16-.65.26l-.22-.55c.22-.11.47-.21.75-.29s.58-.12.89-.12ZM200.48,14.51l-.73.03c-.6.02-1.02.12-1.27.29s-.37.42-.37.73c0,.28.08.48.25.61s.39.2.66.2c.43,0,.78-.12,1.05-.36s.41-.59.41-1.07v-.44Z"/>
  <path class="cls-1" d="M204.63,16.97c-.43,0-.82-.09-1.15-.27s-.59-.45-.77-.82-.28-.83-.28-1.38.1-1.06.29-1.43c.19-.37.46-.65.81-.82s.73-.27,1.17-.27c.24,0,.47.02.7.07.22.05.41.11.55.18l-.22.61c-.15-.06-.32-.11-.51-.16-.19-.05-.37-.07-.54-.07-.33,0-.61.07-.83.22-.22.14-.39.35-.5.63-.11.28-.17.62-.17,1.03s.05.72.16,1c.11.28.27.49.48.63.21.15.48.22.8.22.25,0,.49-.03.69-.08s.39-.12.56-.19v.65c-.16.08-.34.15-.54.19-.2.04-.43.07-.71.07Z"/>
  <path class="cls-1" d="M207.38,10.26c.12,0,.22.04.31.12.09.08.13.2.13.36s-.04.28-.13.36c-.09.08-.19.12-.31.12s-.23-.04-.31-.12c-.08-.08-.12-.2-.12-.36s.04-.28.12-.36c.08-.08.19-.12.31-.12ZM207.74,12.06v4.82h-.73v-4.82h.73Z"/>
  <path class="cls-1" d="M211,16.97c-.61,0-1.09-.21-1.45-.62-.36-.42-.53-1.03-.53-1.85s.18-1.46.54-1.88c.36-.42.85-.63,1.45-.63.25,0,.48.03.67.1s.35.16.49.27c.14.11.25.24.35.38h.05c-.01-.09-.02-.22-.04-.37s-.02-.29-.02-.39v-1.93h.73v6.84h-.59l-.11-.69h-.03c-.09.14-.21.27-.34.39-.14.12-.3.21-.5.28-.19.07-.42.1-.68.1ZM211.11,16.36c.52,0,.88-.15,1.09-.44s.32-.73.32-1.31v-.13c0-.61-.1-1.08-.3-1.41-.2-.33-.57-.49-1.11-.49-.45,0-.78.17-1.01.52s-.33.81-.33,1.41.11,1.05.33,1.37c.22.32.56.48,1.01.48Z"/>
  <path class="cls-1" d="M216.59,11.99c.57,0,1,.13,1.28.39s.42.67.42,1.23v3.27h-.53l-.14-.71h-.04c-.13.18-.28.32-.42.44-.15.12-.32.21-.51.27-.19.06-.43.09-.71.09-.29,0-.55-.05-.78-.15-.23-.1-.41-.26-.54-.47-.13-.21-.2-.47-.2-.79,0-.48.19-.85.57-1.11s.96-.4,1.74-.42l.83-.04v-.29c0-.42-.09-.71-.27-.87s-.43-.25-.76-.25c-.25,0-.49.04-.72.11s-.45.16-.65.26l-.22-.55c.22-.11.47-.21.75-.29s.58-.12.89-.12ZM217.57,14.51l-.73.03c-.6.02-1.02.12-1.27.29s-.37.42-.37.73c0,.28.08.48.25.61s.39.2.66.2c.43,0,.78-.12,1.05-.36s.41-.59.41-1.07v-.44Z"/>
  <path class="cls-1" d="M221.5,16.97c-.61,0-1.09-.21-1.45-.62-.36-.42-.53-1.03-.53-1.85s.18-1.46.54-1.88c.36-.42.85-.63,1.45-.63.25,0,.48.03.67.1s.35.16.49.27c.14.11.25.24.35.38h.05c-.01-.09-.02-.22-.04-.37s-.02-.29-.02-.39v-1.93h.73v6.84h-.59l-.11-.69h-.03c-.09.14-.21.27-.35.39-.14.12-.3.21-.5.28-.19.07-.42.1-.68.1ZM221.62,16.36c.52,0,.88-.15,1.09-.44s.32-.73.32-1.31v-.13c0-.61-.1-1.08-.31-1.41-.2-.33-.57-.49-1.11-.49-.45,0-.78.17-1.01.52s-.33.81-.33,1.41.11,1.05.33,1.37c.22.32.56.48,1.01.48Z"/>
  <path class="cls-1" d="M231.37,10.04h.61v9.02h-.61v-9.02Z"/>
  <path class="cls-1" d="M241.68,16.88h-.75v-5.77h-2.02v-.66h4.79v.66h-2.01v5.77Z"/>
  <path class="cls-1" d="M246.4,11.98c.41,0,.76.09,1.05.27s.52.44.67.76.23.71.23,1.14v.45h-3.33c0,.57.15,1,.42,1.29s.66.44,1.15.44c.3,0,.57-.03.81-.08s.48-.14.73-.25v.64c-.24.11-.48.19-.72.24-.24.05-.52.07-.85.07-.46,0-.87-.09-1.21-.28-.34-.19-.61-.47-.8-.83s-.29-.81-.29-1.34.09-.97.26-1.35c.17-.38.42-.67.74-.88.32-.21.69-.31,1.12-.31ZM246.4,12.57c-.39,0-.7.13-.93.38s-.37.61-.41,1.07h2.55c0-.29-.05-.54-.13-.76-.09-.22-.22-.39-.39-.51s-.4-.18-.68-.18Z"/>
  <path class="cls-1" d="M251.79,11.98c.1,0,.2,0,.3.02s.2.02.28.04l-.09.68c-.08-.02-.17-.04-.26-.05s-.19-.02-.27-.02c-.19,0-.38.04-.55.12-.17.08-.32.19-.45.33-.13.15-.23.32-.3.52s-.11.43-.11.68v2.58h-.73v-4.82h.61l.08.89h.03c.1-.18.22-.34.36-.49.14-.15.3-.27.49-.35.19-.09.39-.13.62-.13Z"/>
  <path class="cls-1" d="M258.51,11.98c.53,0,.93.14,1.2.42.27.28.4.72.4,1.33v3.16h-.72v-3.12c0-.39-.08-.68-.25-.88-.17-.19-.42-.29-.75-.29-.47,0-.8.13-1.02.4s-.32.67-.32,1.19v2.69h-.72v-3.12c0-.26-.04-.48-.11-.65-.07-.17-.19-.3-.33-.39-.15-.09-.33-.13-.56-.13-.32,0-.58.07-.77.2s-.33.33-.42.59c-.09.26-.13.58-.13.96v2.55h-.73v-4.82h.59l.11.68h.04c.1-.17.22-.31.37-.42s.31-.2.49-.26.38-.09.58-.09c.37,0,.67.07.92.2.25.14.43.34.54.62h.04c.16-.28.38-.49.65-.62.28-.14.58-.2.91-.2Z"/>
  <path class="cls-1" d="M261.99,10.26c.12,0,.22.04.31.12.09.08.13.2.13.36s-.04.28-.13.36c-.09.08-.19.12-.31.12s-.23-.04-.31-.12c-.08-.08-.12-.2-.12-.36s.04-.28.12-.36c.08-.08.19-.12.31-.12ZM262.34,12.06v4.82h-.73v-4.82h.73Z"/>
  <path class="cls-1" d="M266.17,11.98c.57,0,1,.14,1.3.42s.44.73.44,1.35v3.14h-.72v-3.09c0-.4-.09-.7-.28-.9-.18-.2-.46-.3-.84-.3-.53,0-.91.15-1.12.45s-.33.74-.33,1.31v2.52h-.73v-4.82h.59l.11.69h.04c.1-.17.23-.31.39-.43.16-.12.34-.2.53-.26.2-.06.4-.09.62-.09Z"/>
  <path class="cls-1" d="M273.56,14.46c0,.4-.05.75-.15,1.06s-.25.57-.44.79-.43.38-.7.49c-.27.11-.58.17-.93.17-.32,0-.62-.06-.89-.17-.27-.11-.5-.28-.69-.49-.2-.21-.35-.48-.45-.79-.11-.31-.16-.66-.16-1.06,0-.53.09-.98.27-1.35s.43-.65.77-.85c.33-.19.73-.29,1.19-.29s.82.1,1.15.29c.33.2.59.48.77.85.18.37.27.82.27,1.34ZM269.89,14.46c0,.39.05.72.15,1.01s.26.5.47.66.49.23.83.23.61-.08.82-.23c.22-.16.38-.38.48-.66s.15-.62.15-1.01-.05-.72-.15-1-.26-.5-.47-.65-.49-.23-.83-.23c-.5,0-.87.17-1.1.5-.23.33-.35.79-.35,1.38Z"/>
  <path class="cls-1" d="M277.93,15.56c0,.31-.08.57-.23.78-.15.21-.37.37-.66.47-.29.11-.63.16-1.02.16-.34,0-.63-.03-.88-.08s-.46-.13-.65-.22v-.67c.2.1.43.18.7.26s.55.12.83.12c.42,0,.72-.07.91-.2s.28-.32.28-.55c0-.13-.04-.25-.11-.35-.08-.1-.2-.2-.38-.29s-.42-.2-.73-.31c-.31-.12-.57-.23-.8-.35-.22-.12-.4-.26-.52-.42-.12-.17-.18-.38-.18-.65,0-.41.16-.72.49-.94.33-.22.76-.33,1.3-.33.29,0,.56.03.81.09.25.06.49.13.71.23l-.25.58c-.2-.08-.41-.16-.64-.22s-.46-.09-.69-.09c-.34,0-.6.06-.78.17-.18.11-.27.26-.27.46,0,.15.04.27.12.37.08.1.22.19.4.27s.43.18.73.3c.3.11.56.23.78.34.22.12.39.26.51.43.12.17.18.38.18.65Z"/>
  <path class="cls-1" d="M280.69,12.06h.78l1.06,2.79c.06.16.12.32.17.47s.1.29.14.43.07.27.1.4h.03c.04-.15.1-.34.18-.58s.16-.48.25-.73l1.01-2.79h.79l-2.1,5.52c-.11.3-.24.55-.39.77-.15.22-.33.39-.54.51-.21.12-.47.18-.76.18-.14,0-.26,0-.36-.02-.11-.02-.2-.03-.27-.06v-.58c.06.01.14.03.23.04.09.01.19.02.29.02.18,0,.34-.03.47-.1.13-.07.25-.17.34-.3s.18-.29.25-.47l.26-.68-1.93-4.83Z"/>
  <path class="cls-1" d="M291.15,11.02c-.35,0-.67.06-.96.18-.28.12-.52.3-.72.53-.2.23-.35.51-.46.83s-.16.69-.16,1.1c0,.54.08,1.01.25,1.4.17.4.42.7.76.92.33.22.75.33,1.26.33.29,0,.56-.02.81-.07.25-.05.5-.11.74-.18v.65c-.23.09-.48.15-.74.2-.26.04-.56.06-.92.06-.65,0-1.2-.14-1.64-.41-.44-.27-.77-.65-.98-1.15-.22-.5-.33-1.08-.33-1.75,0-.49.07-.93.2-1.33.14-.4.33-.75.6-1.04.26-.29.58-.52.97-.68.38-.16.82-.24,1.32-.24.33,0,.64.03.94.1s.57.16.82.28l-.3.63c-.21-.09-.43-.17-.67-.24-.25-.07-.51-.1-.79-.1Z"/>
  <path class="cls-1" d="M298.11,14.46c0,.4-.05.75-.15,1.06s-.25.57-.44.79-.43.38-.7.49c-.27.11-.58.17-.93.17-.32,0-.62-.06-.89-.17-.27-.11-.5-.28-.69-.49-.2-.21-.35-.48-.45-.79-.11-.31-.16-.66-.16-1.06,0-.53.09-.98.27-1.35s.43-.65.77-.85c.33-.19.73-.29,1.19-.29s.82.1,1.15.29c.33.2.59.48.77.85.18.37.27.82.27,1.34ZM294.45,14.46c0,.39.05.72.15,1.01s.26.5.47.66.49.23.83.23.61-.08.82-.23c.22-.16.38-.38.48-.66s.15-.62.15-1.01-.05-.72-.15-1-.26-.5-.47-.65-.49-.23-.83-.23c-.5,0-.87.17-1.1.5-.23.33-.35.79-.35,1.38Z"/>
  <path class="cls-1" d="M301.66,11.98c.57,0,1,.14,1.3.42s.44.73.44,1.35v3.14h-.72v-3.09c0-.4-.09-.7-.28-.9-.18-.2-.46-.3-.84-.3-.53,0-.91.15-1.12.45s-.33.74-.33,1.31v2.52h-.73v-4.82h.59l.11.69h.04c.1-.17.23-.31.39-.43.16-.12.34-.2.53-.26.2-.06.4-.09.62-.09Z"/>
  <path class="cls-1" d="M306.61,16.97c-.61,0-1.09-.21-1.45-.62-.36-.42-.53-1.03-.53-1.85s.18-1.46.54-1.88c.36-.42.85-.63,1.45-.63.25,0,.48.03.67.1s.35.16.49.27c.14.11.25.24.35.38h.05c-.01-.09-.02-.22-.04-.37s-.02-.29-.02-.39v-1.93h.73v6.84h-.59l-.11-.69h-.03c-.09.14-.21.27-.35.39-.14.12-.3.21-.5.28-.19.07-.42.1-.68.1ZM306.72,16.36c.52,0,.88-.15,1.09-.44s.32-.73.32-1.31v-.13c0-.61-.1-1.08-.31-1.41-.2-.33-.57-.49-1.11-.49-.45,0-.78.17-1.01.52s-.33.81-.33,1.41.11,1.05.33,1.37c.22.32.56.48,1.01.48Z"/>
  <path class="cls-1" d="M310.78,10.26c.12,0,.22.04.31.12.09.08.13.2.13.36s-.04.28-.13.36c-.09.08-.19.12-.31.12s-.23-.04-.31-.12c-.08-.08-.12-.2-.12-.36s.04-.28.12-.36c.08-.08.19-.12.31-.12ZM311.13,12.06v4.82h-.73v-4.82h.73Z"/>
  <path class="cls-1" d="M314.6,16.97c-.43,0-.82-.09-1.15-.27s-.59-.45-.77-.82-.28-.83-.28-1.38.1-1.06.29-1.43c.2-.37.46-.65.81-.82s.73-.27,1.17-.27c.24,0,.47.02.7.07.22.05.41.11.55.18l-.22.61c-.15-.06-.32-.11-.51-.16-.19-.05-.37-.07-.54-.07-.33,0-.61.07-.83.22-.22.14-.39.35-.5.63-.11.28-.17.62-.17,1.03s.05.72.16,1c.11.28.27.49.48.63.21.15.48.22.8.22.25,0,.48-.03.69-.08s.39-.12.56-.19v.65c-.16.08-.34.15-.54.19-.2.04-.43.07-.71.07Z"/>
  <path class="cls-1" d="M317.36,10.26c.12,0,.22.04.31.12.09.08.13.2.13.36s-.04.28-.13.36c-.09.08-.19.12-.31.12s-.23-.04-.31-.12c-.08-.08-.12-.2-.12-.36s.04-.28.12-.36c.08-.08.19-.12.31-.12ZM317.71,12.06v4.82h-.73v-4.82h.73Z"/>
  <path class="cls-1" d="M323.41,14.46c0,.4-.05.75-.15,1.06s-.25.57-.44.79-.43.38-.7.49c-.27.11-.58.17-.93.17-.32,0-.62-.06-.89-.17-.27-.11-.5-.28-.69-.49-.2-.21-.35-.48-.45-.79-.11-.31-.16-.66-.16-1.06,0-.53.09-.98.27-1.35s.43-.65.77-.85c.33-.19.73-.29,1.19-.29s.82.1,1.15.29c.33.2.59.48.77.85.18.37.27.82.27,1.34ZM319.74,14.46c0,.39.05.72.15,1.01s.26.5.47.66.49.23.83.23.61-.08.82-.23c.22-.16.38-.38.48-.66s.15-.62.15-1.01-.05-.72-.15-1-.26-.5-.47-.65-.49-.23-.83-.23c-.5,0-.87.17-1.1.5-.23.33-.35.79-.35,1.38Z"/>
  <path class="cls-1" d="M326.95,11.98c.57,0,1,.14,1.3.42s.44.73.44,1.35v3.14h-.72v-3.09c0-.4-.09-.7-.28-.9-.18-.2-.46-.3-.84-.3-.53,0-.91.15-1.12.45s-.33.74-.33,1.31v2.52h-.73v-4.82h.59l.11.69h.04c.1-.17.23-.31.39-.43.16-.12.34-.2.53-.26.2-.06.4-.09.62-.09Z"/>
  <path class="cls-1" d="M332.04,11.98c.41,0,.76.09,1.05.27s.52.44.67.76.23.71.23,1.14v.45h-3.33c0,.57.15,1,.42,1.29s.66.44,1.15.44c.3,0,.57-.03.81-.08s.48-.14.73-.25v.64c-.24.11-.48.19-.72.24-.24.05-.52.07-.85.07-.46,0-.87-.09-1.21-.28-.34-.19-.61-.47-.8-.83s-.29-.81-.29-1.34.09-.97.26-1.35c.17-.38.42-.67.74-.88.32-.21.69-.31,1.12-.31ZM332.04,12.57c-.39,0-.7.13-.93.38s-.37.61-.41,1.07h2.55c0-.29-.05-.54-.13-.76-.09-.22-.22-.39-.39-.51s-.4-.18-.68-.18Z"/>
  <path class="cls-1" d="M338.36,15.56c0,.31-.08.57-.23.78-.15.21-.37.37-.66.47-.29.11-.63.16-1.02.16-.34,0-.63-.03-.88-.08s-.46-.13-.65-.22v-.67c.2.1.43.18.7.26s.55.12.83.12c.42,0,.72-.07.91-.2s.28-.32.28-.55c0-.13-.04-.25-.11-.35-.08-.1-.2-.2-.38-.29s-.42-.2-.73-.31c-.31-.12-.57-.23-.8-.35-.22-.12-.4-.26-.52-.42-.12-.17-.18-.38-.18-.65,0-.41.16-.72.49-.94.33-.22.76-.33,1.3-.33.29,0,.56.03.81.09.25.06.49.13.71.23l-.25.58c-.2-.08-.41-.16-.64-.22s-.46-.09-.69-.09c-.34,0-.6.06-.78.17-.18.11-.27.26-.27.46,0,.15.04.27.12.37.08.1.22.19.4.27s.43.18.73.3c.3.11.56.23.78.34.22.12.39.26.51.43.12.17.18.38.18.65Z"/>
  <path class="cls-1" d="M345.6,10.04h.61v9.02h-.61v-9.02Z"/>
  <path class="cls-1" d="M354.69,16.88h-.75v-6.42h3.58v.66h-2.83v2.36h2.66v.65h-2.66v2.76Z"/>
  <path class="cls-1" d="M362.61,16.88l-.79-2.04h-2.57l-.79,2.04h-.76l2.51-6.45h.67l2.5,6.45h-.77ZM361.6,14.18l-.75-2.03c-.02-.05-.05-.14-.09-.26-.04-.12-.08-.24-.12-.37s-.07-.23-.1-.31c-.03.12-.06.24-.09.36-.03.12-.07.23-.1.33-.03.1-.06.19-.08.26l-.76,2.03h2.1Z"/>
  <path class="cls-1" d="M369.85,13.66c0,.53-.07,1-.21,1.43-.14.43-.36.79-.64,1.09-.28.3-.64.51-1.06.65l1.51,1.59h-1.07l-1.24-1.45s-.08,0-.12,0c-.04,0-.08,0-.12,0-.5,0-.93-.08-1.3-.24-.37-.16-.68-.38-.92-.68-.25-.29-.43-.64-.55-1.05-.12-.41-.18-.86-.18-1.35,0-.66.11-1.23.33-1.73.22-.5.54-.88.99-1.16.44-.28.99-.41,1.66-.41s1.17.14,1.61.41c.44.27.76.66.99,1.15.22.49.34,1.08.34,1.75ZM364.73,13.66c0,.54.08,1.02.23,1.42s.39.71.71.92c.32.22.73.33,1.22.33s.91-.11,1.22-.33c.32-.22.55-.52.71-.92s.23-.87.23-1.42c0-.83-.17-1.48-.52-1.94-.35-.47-.89-.7-1.62-.7-.5,0-.91.11-1.23.32s-.56.52-.72.91c-.16.39-.24.86-.24,1.41Z"/>
  <path class="cls-1" d="M374.28,15.56c0,.31-.08.57-.23.78-.15.21-.37.37-.66.47-.29.11-.63.16-1.02.16-.34,0-.63-.03-.87-.08s-.46-.13-.65-.22v-.67c.2.1.43.18.7.26.27.08.55.12.83.12.42,0,.72-.07.91-.2.19-.13.28-.32.28-.55,0-.13-.04-.25-.11-.35-.08-.1-.2-.2-.38-.29s-.42-.2-.73-.31c-.31-.12-.57-.23-.8-.35-.22-.12-.4-.26-.52-.42-.12-.17-.18-.38-.18-.65,0-.41.17-.72.5-.94.33-.22.76-.33,1.3-.33.29,0,.56.03.82.09.25.06.49.13.71.23l-.25.58c-.2-.08-.41-.16-.64-.22-.23-.06-.46-.09-.69-.09-.34,0-.6.06-.78.17-.18.11-.27.26-.27.46,0,.15.04.27.12.37.08.1.22.19.4.27s.43.18.73.3c.3.11.56.23.78.34.22.12.39.26.51.43.12.17.18.38.18.65Z"/>
  <path class="cls-1" d="M116.15,31.11c0-.27.03-.54.08-.8.05-.26.13-.51.24-.74s.25-.45.41-.65h.39c-.24.31-.41.65-.53,1.03s-.18.77-.18,1.16c0,.26.03.52.08.77.05.25.13.5.24.73.11.23.23.46.39.66h-.38c-.17-.2-.3-.41-.41-.64-.11-.23-.19-.47-.24-.73-.05-.26-.08-.52-.08-.79Z"/>
  <path class="cls-1" d="M119.44,29.23c-.2,0-.37.03-.53.1-.16.07-.29.17-.4.29-.11.13-.19.28-.25.46s-.09.38-.09.61c0,.3.05.56.14.78.09.22.23.39.42.51.19.12.42.18.7.18.16,0,.31-.01.45-.04.14-.03.28-.06.41-.1v.36c-.13.05-.27.08-.41.11-.14.02-.31.04-.51.04-.36,0-.67-.08-.91-.23-.24-.15-.43-.36-.55-.64-.12-.27-.18-.6-.18-.97,0-.27.04-.52.11-.74.08-.22.19-.42.33-.58.15-.16.32-.29.54-.38.21-.09.46-.13.73-.13.18,0,.35.02.52.05s.32.09.45.15l-.17.35c-.11-.05-.24-.1-.37-.14-.14-.04-.28-.06-.44-.06Z"/>
  <path class="cls-1" d="M121.85,31.11c0,.27-.03.54-.08.79-.05.26-.13.5-.24.73-.11.23-.25.44-.41.64h-.38c.16-.21.29-.43.39-.66.11-.24.18-.48.24-.73.05-.25.08-.51.08-.77s-.03-.53-.08-.78-.13-.5-.24-.74c-.11-.24-.24-.46-.39-.67h.39c.17.2.31.42.41.65.11.23.19.48.24.74.05.26.08.53.08.8Z"/>
  <path class="cls-1" d="M125.36,29.23c-.2,0-.37.03-.53.1-.16.07-.29.17-.4.29-.11.13-.19.28-.25.46s-.09.38-.09.61c0,.3.05.56.14.78.09.22.23.39.42.51.19.12.42.18.7.18.16,0,.31-.01.45-.04.14-.03.28-.06.41-.1v.36c-.13.05-.27.08-.41.11-.14.02-.31.04-.51.04-.36,0-.67-.08-.91-.23-.24-.15-.43-.36-.55-.64-.12-.27-.18-.6-.18-.97,0-.27.04-.52.11-.74.08-.22.19-.42.33-.58.15-.16.32-.29.54-.38.21-.09.46-.13.73-.13.18,0,.35.02.52.05s.32.09.45.15l-.17.35c-.11-.05-.24-.1-.37-.14-.14-.04-.28-.06-.44-.06Z"/>
  <path class="cls-1" d="M129.23,31.14c0,.22-.03.42-.09.59s-.14.32-.25.44-.24.21-.39.27c-.15.06-.32.09-.52.09-.18,0-.34-.03-.49-.09-.15-.06-.28-.15-.39-.27-.11-.12-.19-.26-.25-.44-.06-.17-.09-.37-.09-.59,0-.29.05-.54.15-.75.1-.21.24-.36.43-.47.18-.11.4-.16.66-.16s.46.05.64.16c.18.11.33.27.43.47.1.21.15.45.15.75ZM127.19,31.14c0,.21.03.4.09.56s.15.28.26.37.27.13.46.13.34-.04.46-.13c.12-.09.21-.21.27-.37s.09-.34.09-.56-.03-.4-.09-.55c-.06-.16-.15-.28-.26-.36s-.27-.13-.46-.13c-.28,0-.48.09-.61.28-.13.18-.19.44-.19.76Z"/>
  <path class="cls-1" d="M131.19,29.76c.33,0,.6.11.8.34s.3.57.3,1.04c0,.3-.05.56-.14.77s-.22.36-.38.47c-.17.11-.36.16-.58.16-.14,0-.27-.02-.37-.06s-.2-.09-.28-.15-.14-.13-.19-.21h-.03c0,.06.01.14.02.23,0,.09.01.17.01.23v1.1h-.41v-3.87h.33l.05.4h.02c.05-.08.12-.16.19-.22.07-.07.17-.12.27-.16.11-.04.24-.06.38-.06ZM131.12,30.1c-.19,0-.33.04-.45.11-.11.07-.2.18-.25.32-.05.14-.08.32-.08.54v.08c0,.23.02.42.07.57.05.16.13.27.25.36.11.08.27.12.46.12.17,0,.3-.04.42-.13s.19-.21.25-.37c.05-.16.08-.34.08-.55,0-.32-.06-.57-.18-.75-.12-.19-.31-.28-.56-.28Z"/>
  <path class="cls-1" d="M132.57,29.81h.43l.59,1.55c.03.09.07.18.1.26.03.08.06.16.08.24s.04.15.05.22h.02c.02-.08.06-.19.1-.32.04-.13.09-.27.14-.41l.56-1.55h.44l-1.16,3.07c-.06.16-.13.31-.22.43-.08.12-.18.22-.3.28-.12.07-.26.1-.42.1-.08,0-.14,0-.2-.01-.06,0-.11-.02-.15-.03v-.32s.08.02.13.02c.05,0,.1,0,.16,0,.1,0,.19-.02.26-.06.07-.04.14-.09.19-.17s.1-.16.14-.26l.15-.38-1.07-2.68Z"/>
  <path class="cls-1" d="M136.71,29.76c.05,0,.11,0,.17,0,.06,0,.11.01.16.02l-.05.38s-.09-.02-.15-.03-.1,0-.15,0c-.11,0-.21.02-.3.06-.09.04-.18.11-.25.19-.07.08-.13.18-.17.29-.04.11-.06.24-.06.38v1.44h-.41v-2.68h.34l.04.49h.02c.06-.1.12-.19.2-.27.08-.08.17-.15.27-.2.1-.05.22-.07.35-.07Z"/>
  <path class="cls-1" d="M137.74,28.8c.07,0,.12.02.17.06.05.04.07.11.07.2s-.02.16-.07.2c-.05.04-.1.07-.17.07s-.13-.02-.17-.07c-.05-.04-.07-.11-.07-.2s.02-.16.07-.2c.05-.04.1-.06.17-.06ZM137.94,29.81v2.68h-.41v-2.68h.41Z"/>
  <path class="cls-1" d="M139.55,33.68c-.35,0-.62-.07-.81-.2-.19-.13-.29-.31-.29-.55,0-.17.05-.31.16-.43.11-.12.25-.2.44-.24-.07-.03-.13-.08-.18-.15-.05-.06-.07-.14-.07-.22,0-.1.03-.18.08-.26.05-.07.14-.15.25-.21-.14-.06-.25-.15-.34-.29-.09-.14-.13-.29-.13-.48,0-.19.04-.36.12-.49.08-.14.2-.24.35-.31s.33-.11.55-.11c.05,0,.09,0,.14,0,.05,0,.09,0,.14.02.04,0,.08.02.11.03h.92v.26l-.49.06c.05.06.09.14.12.23s.05.19.05.3c0,.27-.09.48-.27.64-.18.16-.43.24-.74.24-.07,0-.15,0-.23-.02-.08.04-.14.09-.18.15-.04.05-.06.12-.06.19,0,.05.02.09.05.12.03.03.08.05.14.07.06.01.13.02.22.02h.47c.29,0,.51.06.67.18.16.12.23.3.23.53,0,.3-.12.52-.36.68s-.59.24-1.04.24ZM139.56,33.36c.22,0,.4-.02.55-.07.15-.04.25-.11.33-.19.07-.08.11-.18.11-.3,0-.11-.02-.19-.07-.24-.05-.05-.12-.09-.21-.11-.09-.02-.21-.03-.35-.03h-.46c-.12,0-.23.02-.31.06s-.16.09-.21.17c-.05.07-.07.16-.07.27,0,.15.06.25.18.33.12.08.3.11.52.11ZM139.66,31.23c.19,0,.34-.05.44-.15s.15-.24.15-.43c0-.2-.05-.35-.15-.45-.1-.1-.25-.15-.44-.15s-.33.05-.43.15c-.1.1-.15.25-.15.45,0,.18.05.32.15.42s.25.15.43.15Z"/>
  <path class="cls-1" d="M141.92,28.68v1.14c0,.06,0,.13,0,.2,0,.07,0,.13-.02.18h.03c.06-.09.13-.17.21-.24.08-.06.18-.11.29-.15.11-.03.22-.05.35-.05.21,0,.39.03.54.1.14.07.25.17.32.32.07.14.11.33.11.56v1.74h-.4v-1.72c0-.22-.05-.39-.15-.5-.1-.11-.26-.17-.47-.17-.2,0-.36.04-.48.11-.12.08-.2.19-.25.33-.05.15-.08.33-.08.54v1.4h-.41v-3.8h.41Z"/>
  <path class="cls-1" d="M145.44,32.2c.07,0,.14,0,.21-.02s.13-.03.17-.04v.31s-.11.04-.2.05c-.08.01-.17.02-.25.02-.14,0-.27-.02-.39-.07-.12-.05-.21-.13-.28-.25-.07-.12-.1-.28-.1-.49v-1.59h-.38v-.2l.38-.16.16-.58h.24v.62h.78v.32h-.78v1.57c0,.17.04.29.12.38.08.08.18.12.31.12Z"/>
  <path class="cls-1" d="M147.72,28.91h1.01c.45,0,.78.07,1.01.2s.34.36.34.68c0,.14-.03.26-.08.37-.05.11-.13.2-.23.27s-.23.12-.37.15v.02c.16.02.29.07.42.13s.21.16.28.27.1.27.1.45c0,.22-.05.41-.15.56-.1.15-.25.27-.43.34-.19.08-.41.12-.66.12h-1.23v-3.57ZM148.14,30.44h.68c.31,0,.53-.05.65-.15.12-.1.18-.25.18-.45s-.07-.35-.21-.44c-.14-.09-.37-.13-.68-.13h-.62v1.18ZM148.14,30.79v1.34h.74c.32,0,.54-.06.67-.19.13-.12.2-.29.2-.5,0-.14-.03-.25-.09-.35-.06-.1-.16-.17-.29-.22-.13-.05-.31-.08-.53-.08h-.71Z"/>
  <path class="cls-1" d="M151.89,29.76c.32,0,.56.07.71.21s.23.37.23.69v1.82h-.3l-.08-.4h-.02c-.07.1-.15.18-.23.25-.08.07-.18.12-.28.15-.11.03-.24.05-.39.05-.16,0-.31-.03-.43-.09-.13-.06-.23-.14-.3-.26-.07-.12-.11-.26-.11-.44,0-.27.11-.47.32-.62s.53-.22.97-.23l.46-.02v-.16c0-.23-.05-.39-.15-.49s-.24-.14-.42-.14c-.14,0-.27.02-.4.06s-.25.09-.36.14l-.12-.31c.12-.06.26-.11.42-.16s.32-.07.49-.07ZM152.43,31.16l-.41.02c-.33.01-.57.07-.71.16s-.21.23-.21.41c0,.15.05.27.14.34s.22.11.37.11c.24,0,.43-.07.58-.2s.23-.33.23-.59v-.25Z"/>
  <path class="cls-1" d="M154.94,29.76c.32,0,.56.08.72.23.16.16.24.4.24.75v1.74h-.4v-1.72c0-.22-.05-.39-.15-.5-.1-.11-.26-.17-.47-.17-.3,0-.5.08-.62.25s-.18.41-.18.73v1.4h-.41v-2.68h.33l.06.39h.02c.06-.09.13-.17.22-.24.09-.06.19-.11.3-.15.11-.03.22-.05.34-.05Z"/>
  <path class="cls-1" d="M157.99,29.76c.33,0,.6.11.8.34s.3.57.3,1.04c0,.3-.05.56-.14.77s-.22.36-.38.47c-.17.11-.36.16-.58.16-.14,0-.27-.02-.37-.06s-.2-.09-.28-.15-.14-.13-.19-.21h-.03c0,.06.01.14.02.23,0,.09.01.17.01.23v1.1h-.41v-3.87h.33l.05.4h.02c.05-.08.12-.16.19-.22.07-.07.17-.12.27-.16.11-.04.24-.06.38-.06ZM157.92,30.1c-.19,0-.33.04-.45.11-.11.07-.2.18-.25.32-.05.14-.08.32-.08.54v.08c0,.23.02.42.07.57.05.16.13.27.25.36.11.08.27.12.46.12.17,0,.3-.04.42-.13s.19-.21.25-.37c.05-.16.08-.34.08-.55,0-.32-.06-.57-.18-.75-.12-.19-.31-.28-.56-.28Z"/>
  <path class="cls-1" d="M161.01,29.76c.05,0,.11,0,.17,0,.06,0,.11.01.16.02l-.05.38s-.09-.02-.15-.03-.1,0-.15,0c-.11,0-.21.02-.3.06-.09.04-.18.11-.25.19-.07.08-.13.18-.17.29-.04.11-.06.24-.06.38v1.44h-.41v-2.68h.34l.04.49h.02c.06-.1.12-.19.2-.27.08-.08.17-.15.27-.2.1-.05.22-.07.35-.07Z"/>
  <path class="cls-1" d="M164.15,31.14c0,.22-.03.42-.09.59s-.14.32-.25.44-.24.21-.39.27c-.15.06-.32.09-.52.09-.18,0-.34-.03-.49-.09-.15-.06-.28-.15-.39-.27-.11-.12-.19-.26-.25-.44-.06-.17-.09-.37-.09-.59,0-.29.05-.54.15-.75.1-.21.24-.36.43-.47.18-.11.4-.16.66-.16s.46.05.64.16c.18.11.33.27.43.47.1.21.15.45.15.75ZM162.11,31.14c0,.21.03.4.09.56s.15.28.26.37.27.13.46.13.34-.04.46-.13c.12-.09.21-.21.27-.37s.09-.34.09-.56-.03-.4-.09-.55c-.06-.16-.15-.28-.26-.36s-.27-.13-.46-.13c-.28,0-.48.09-.61.28-.13.18-.19.44-.19.76Z"/>
  <path class="cls-1" d="M169,32.48h-.48l-1.95-3h-.02c0,.08.01.17.02.27,0,.1.01.21.02.32,0,.12,0,.23,0,.35v2.05h-.39v-3.57h.48l1.94,2.99h.02c0-.06,0-.14-.01-.24,0-.1,0-.22-.01-.34,0-.12,0-.23,0-.34v-2.07h.39v3.57Z"/>
  <path class="cls-1" d="M170.12,28.8c.07,0,.12.02.17.06.05.04.07.11.07.2s-.02.16-.07.2c-.05.04-.1.07-.17.07s-.13-.02-.17-.07c-.05-.04-.07-.11-.07-.2s.02-.16.07-.2c.05-.04.1-.06.17-.06ZM170.31,29.81v2.68h-.41v-2.68h.41Z"/>
  <path class="cls-1" d="M172.24,32.53c-.24,0-.45-.05-.64-.15s-.33-.25-.43-.45-.15-.46-.15-.77.05-.59.16-.79c.11-.21.26-.36.45-.46s.41-.15.65-.15c.13,0,.26.01.39.04.12.03.23.06.31.1l-.12.34c-.08-.03-.18-.06-.28-.09-.11-.03-.21-.04-.3-.04-.19,0-.34.04-.46.12-.12.08-.21.2-.28.35-.06.15-.09.35-.09.57s.03.4.09.55c.06.15.15.27.27.35.12.08.27.12.44.12.14,0,.27-.02.38-.04.11-.03.22-.07.31-.11v.36c-.09.05-.19.08-.3.1-.11.02-.24.04-.39.04Z"/>
  <path class="cls-1" d="M174.57,29.76c.32,0,.56.07.71.21s.23.37.23.69v1.82h-.3l-.08-.4h-.02c-.07.1-.15.18-.23.25-.08.07-.18.12-.28.15-.11.03-.24.05-.39.05-.16,0-.31-.03-.43-.09-.13-.06-.23-.14-.3-.26-.07-.12-.11-.26-.11-.44,0-.27.11-.47.32-.62s.53-.22.97-.23l.46-.02v-.16c0-.23-.05-.39-.15-.49s-.24-.14-.42-.14c-.14,0-.27.02-.4.06s-.25.09-.36.14l-.12-.31c.12-.06.26-.11.42-.16s.32-.07.49-.07ZM175.11,31.16l-.41.02c-.33.01-.57.07-.71.16s-.21.23-.21.41c0,.15.05.27.14.34s.22.11.37.11c.24,0,.43-.07.58-.2s.23-.33.23-.59v-.25Z"/>
  <path class="cls-1" d="M177.56,29.76c.05,0,.11,0,.17,0,.06,0,.11.01.16.02l-.05.38s-.09-.02-.15-.03-.1,0-.15,0c-.11,0-.21.02-.3.06-.09.04-.18.11-.25.19-.07.08-.13.18-.17.29-.04.11-.06.24-.06.38v1.44h-.41v-2.68h.34l.04.49h.02c.06-.1.12-.19.2-.27.08-.08.17-.15.27-.2.1-.05.22-.07.35-.07Z"/>
  <path class="cls-1" d="M179.39,29.76c.32,0,.56.07.71.21s.23.37.23.69v1.82h-.3l-.08-.4h-.02c-.07.1-.15.18-.23.25-.08.07-.18.12-.28.15-.11.03-.24.05-.39.05-.16,0-.31-.03-.43-.09-.13-.06-.23-.14-.3-.26-.07-.12-.11-.26-.11-.44,0-.27.11-.47.32-.62s.53-.22.97-.23l.46-.02v-.16c0-.23-.05-.39-.15-.49s-.24-.14-.42-.14c-.14,0-.27.02-.4.06s-.25.09-.36.14l-.12-.31c.12-.06.26-.11.42-.16s.32-.07.49-.07ZM179.93,31.16l-.41.02c-.33.01-.57.07-.71.16s-.21.23-.21.41c0,.15.05.27.14.34s.22.11.37.11c.24,0,.43-.07.58-.2s.23-.33.23-.59v-.25Z"/>
  <path class="cls-1" d="M181.91,33.68c-.35,0-.62-.07-.81-.2-.19-.13-.29-.31-.29-.55,0-.17.05-.31.16-.43.11-.12.25-.2.44-.24-.07-.03-.13-.08-.18-.15-.05-.06-.07-.14-.07-.22,0-.1.03-.18.08-.26.05-.07.14-.15.25-.21-.14-.06-.25-.15-.34-.29-.09-.14-.13-.29-.13-.48,0-.19.04-.36.12-.49.08-.14.2-.24.35-.31s.33-.11.55-.11c.05,0,.09,0,.14,0,.05,0,.09,0,.14.02.04,0,.08.02.11.03h.92v.26l-.49.06c.05.06.09.14.12.23s.05.19.05.3c0,.27-.09.48-.27.64-.18.16-.43.24-.74.24-.07,0-.15,0-.23-.02-.08.04-.14.09-.18.15-.04.05-.06.12-.06.19,0,.05.02.09.05.12.03.03.08.05.14.07.06.01.13.02.22.02h.47c.29,0,.51.06.67.18.16.12.23.3.23.53,0,.3-.12.52-.36.68s-.59.24-1.04.24ZM181.93,33.36c.22,0,.4-.02.55-.07.15-.04.25-.11.33-.19.07-.08.11-.18.11-.3,0-.11-.02-.19-.07-.24-.05-.05-.12-.09-.21-.11-.09-.02-.21-.03-.35-.03h-.46c-.12,0-.23.02-.31.06s-.16.09-.21.17c-.05.07-.07.16-.07.27,0,.15.06.25.18.33.12.08.3.11.52.11ZM182.03,31.23c.19,0,.34-.05.44-.15s.15-.24.15-.43c0-.2-.05-.35-.15-.45-.1-.1-.25-.15-.44-.15s-.33.05-.43.15c-.1.1-.15.25-.15.45,0,.18.05.32.15.42s.25.15.43.15Z"/>
  <path class="cls-1" d="M186.09,29.81v2.68h-.33l-.06-.38h-.02c-.06.09-.13.17-.21.23s-.19.11-.3.14c-.11.03-.23.05-.35.05-.21,0-.39-.03-.53-.1s-.25-.17-.32-.32c-.07-.14-.11-.33-.11-.55v-1.75h.41v1.72c0,.22.05.39.15.5.1.11.25.17.46.17s.36-.04.47-.11c.12-.07.2-.19.26-.33.05-.15.08-.32.08-.54v-1.41h.41Z"/>
  <path class="cls-1" d="M187.95,29.76c.32,0,.56.07.71.21s.23.37.23.69v1.82h-.3l-.08-.4h-.02c-.07.1-.15.18-.23.25-.08.07-.18.12-.28.15-.11.03-.24.05-.39.05-.16,0-.31-.03-.43-.09-.13-.06-.23-.14-.3-.26-.07-.12-.11-.26-.11-.44,0-.27.11-.47.32-.62s.53-.22.97-.23l.46-.02v-.16c0-.23-.05-.39-.15-.49s-.24-.14-.42-.14c-.14,0-.27.02-.4.06s-.25.09-.36.14l-.12-.31c.12-.06.26-.11.42-.16s.32-.07.49-.07ZM188.49,31.16l-.41.02c-.33.01-.57.07-.71.16s-.21.23-.21.41c0,.15.05.27.14.34s.22.11.37.11c.24,0,.43-.07.58-.2s.23-.33.23-.59v-.25Z"/>
  <path class="cls-1" d="M189.67,32.23c0-.11.03-.19.08-.24.06-.05.12-.07.2-.07s.15.02.21.07c.06.05.09.13.09.24s-.03.19-.09.25c-.06.05-.13.08-.21.08s-.15-.03-.2-.08c-.06-.05-.08-.13-.08-.25Z"/>
  <path class="cls-1" d="M193.5,32.48h-.42v-3.2h-1.12v-.37h2.66v.37h-1.12v3.2Z"/>
  <path class="cls-1" d="M197.4,31.14c0,.22-.03.42-.09.59-.06.17-.14.32-.25.44s-.24.21-.39.27c-.15.06-.32.09-.52.09-.18,0-.34-.03-.49-.09-.15-.06-.28-.15-.39-.27-.11-.12-.19-.26-.25-.44s-.09-.37-.09-.59c0-.29.05-.54.15-.75.1-.21.24-.36.43-.47.18-.11.4-.16.66-.16s.46.05.64.16c.18.11.33.27.43.47.1.21.15.45.15.75ZM195.36,31.14c0,.21.03.4.08.56.06.16.15.28.26.37.12.09.27.13.46.13s.34-.04.46-.13c.12-.09.21-.21.26-.37.06-.16.09-.34.09-.56s-.03-.4-.09-.55c-.06-.16-.14-.28-.26-.36-.12-.08-.27-.13-.46-.13-.28,0-.48.09-.61.28-.13.18-.19.44-.19.76Z"/>
  <path class="cls-1" d="M199.05,32.53c-.34,0-.61-.12-.8-.35-.2-.23-.3-.57-.3-1.03s.1-.81.3-1.04c.2-.23.47-.35.81-.35.14,0,.26.02.37.06.11.04.2.09.27.15.08.06.14.13.19.21h.03c0-.05-.01-.12-.02-.21,0-.09,0-.16,0-.21v-1.07h.41v3.8h-.33l-.06-.38h-.02c-.05.08-.11.15-.19.22s-.17.12-.28.15c-.11.04-.23.06-.38.06ZM199.12,32.19c.29,0,.49-.08.61-.24.12-.16.18-.4.18-.73v-.07c0-.34-.06-.6-.17-.78-.11-.18-.32-.27-.62-.27-.25,0-.44.1-.56.29-.12.19-.19.45-.19.78s.06.58.18.76c.12.18.31.27.56.27Z"/>
  <path class="cls-1" d="M203.47,31.14c0,.22-.03.42-.08.59-.06.17-.14.32-.25.44s-.24.21-.39.27c-.15.06-.32.09-.52.09-.18,0-.34-.03-.49-.09-.15-.06-.28-.15-.39-.27s-.19-.26-.25-.44c-.06-.17-.09-.37-.09-.59,0-.29.05-.54.15-.75.1-.21.24-.36.43-.47.18-.11.41-.16.66-.16s.46.05.64.16c.18.11.33.27.43.47.1.21.15.45.15.75ZM201.43,31.14c0,.21.03.4.09.56.06.16.14.28.26.37.12.09.27.13.46.13s.34-.04.46-.13c.12-.09.21-.21.27-.37.06-.16.08-.34.08-.56s-.03-.4-.08-.55c-.06-.16-.15-.28-.26-.36-.12-.08-.27-.13-.46-.13-.28,0-.48.09-.61.28-.13.18-.19.44-.19.76Z"/>
  <path class="cls-1" d="M205.9,31.75c0,.17-.04.31-.13.43-.09.12-.21.2-.37.26-.16.06-.35.09-.57.09-.19,0-.35-.01-.49-.04s-.26-.07-.36-.12v-.37c.11.05.24.1.39.15s.31.07.46.07c.23,0,.4-.04.5-.11.1-.07.16-.18.16-.31,0-.07-.02-.14-.06-.19-.04-.06-.11-.11-.21-.16-.1-.05-.23-.11-.41-.17-.17-.06-.32-.13-.44-.19-.12-.06-.22-.14-.29-.24-.07-.09-.1-.21-.1-.36,0-.23.09-.4.27-.52.18-.12.42-.18.72-.18.16,0,.31.02.45.05.14.03.27.07.39.13l-.14.32c-.11-.05-.23-.09-.35-.12-.13-.03-.25-.05-.38-.05-.19,0-.33.03-.43.09-.1.06-.15.15-.15.25,0,.08.02.15.07.21.05.05.12.1.22.15s.24.1.41.17c.17.06.31.13.43.19.12.07.22.15.28.24.07.09.1.21.1.36Z"/>
  <path class="cls-1" d="M208.26,32.48h-.41v-3.8h.41v3.8Z"/>
  <path class="cls-1" d="M211.42,31.14c0,.22-.03.42-.09.59-.06.17-.14.32-.25.44s-.24.21-.39.27c-.15.06-.32.09-.52.09-.18,0-.34-.03-.49-.09-.15-.06-.28-.15-.39-.27-.11-.12-.19-.26-.25-.44s-.09-.37-.09-.59c0-.29.05-.54.15-.75.1-.21.24-.36.43-.47.18-.11.4-.16.66-.16s.46.05.64.16c.18.11.33.27.43.47.1.21.15.45.15.75ZM209.38,31.14c0,.21.03.4.08.56.06.16.15.28.26.37.12.09.27.13.46.13s.34-.04.46-.13c.12-.09.21-.21.26-.37.06-.16.09-.34.09-.56s-.03-.4-.09-.55c-.06-.16-.14-.28-.26-.36-.12-.08-.27-.13-.46-.13-.28,0-.48.09-.61.28-.13.18-.19.44-.19.76Z"/>
  <path class="cls-1" d="M213.85,31.75c0,.17-.04.31-.13.43-.09.12-.21.2-.37.26-.16.06-.35.09-.57.09-.19,0-.35-.01-.49-.04s-.26-.07-.36-.12v-.37c.11.05.24.1.39.15s.31.07.46.07c.23,0,.4-.04.5-.11.1-.07.16-.18.16-.31,0-.07-.02-.14-.06-.19-.04-.06-.11-.11-.21-.16-.1-.05-.23-.11-.41-.17-.17-.06-.32-.13-.44-.19-.12-.06-.22-.14-.29-.24s-.1-.21-.1-.36c0-.23.09-.4.28-.52.18-.12.42-.18.72-.18.16,0,.31.02.45.05.14.03.27.07.39.13l-.14.32c-.11-.05-.23-.09-.35-.12-.12-.03-.25-.05-.38-.05-.19,0-.33.03-.43.09-.1.06-.15.15-.15.25,0,.08.02.15.07.21.05.05.12.1.22.15s.24.1.41.17c.17.06.31.13.43.19.12.07.22.15.28.24.07.09.1.21.1.36Z"/>
  <path class="cls-1" d="M216.75,32.53c-.34,0-.61-.12-.8-.35-.2-.23-.3-.57-.3-1.03s.1-.81.3-1.04c.2-.23.47-.35.81-.35.14,0,.26.02.37.06.11.04.2.09.27.15.08.06.14.13.19.21h.03c0-.05-.01-.12-.02-.21,0-.09,0-.16,0-.21v-1.07h.41v3.8h-.33l-.06-.38h-.02c-.05.08-.11.15-.19.22s-.17.12-.28.15c-.11.04-.23.06-.38.06ZM216.82,32.19c.29,0,.49-.08.61-.24.12-.16.18-.4.18-.73v-.07c0-.34-.06-.6-.17-.78-.11-.18-.32-.27-.62-.27-.25,0-.44.1-.56.29-.12.19-.19.45-.19.78s.06.58.18.76c.12.18.31.27.56.27Z"/>
  <path class="cls-1" d="M219.89,29.76c.23,0,.42.05.59.15.16.1.29.24.37.42.09.18.13.39.13.64v.25h-1.85c0,.31.08.55.23.72s.37.25.64.25c.17,0,.32-.02.45-.05.13-.03.27-.08.41-.14v.36c-.13.06-.27.1-.4.13s-.29.04-.47.04c-.26,0-.48-.05-.67-.16-.19-.11-.34-.26-.45-.46-.11-.2-.16-.45-.16-.75s.05-.54.15-.75c.1-.21.23-.37.41-.49s.38-.17.62-.17ZM219.89,30.09c-.22,0-.39.07-.52.21-.13.14-.21.34-.23.59h1.42c0-.16-.03-.3-.08-.42-.05-.12-.12-.22-.22-.28-.1-.07-.22-.1-.38-.1Z"/>
  <path class="cls-1" d="M222.88,29.76c.05,0,.11,0,.17,0,.06,0,.11.01.16.02l-.05.38s-.09-.02-.15-.03-.1,0-.15,0c-.11,0-.21.02-.3.06-.09.04-.18.11-.25.19-.07.08-.13.18-.17.29-.04.11-.06.24-.06.38v1.44h-.41v-2.68h.34l.04.49h.02c.06-.1.12-.19.2-.27.08-.08.17-.15.27-.2s.22-.07.35-.07Z"/>
  <path class="cls-1" d="M224.74,29.76c.23,0,.42.05.59.15.16.1.29.24.37.42.09.18.13.39.13.64v.25h-1.85c0,.31.08.55.23.72s.36.25.64.25c.17,0,.32-.02.45-.05.13-.03.26-.08.41-.14v.36c-.14.06-.27.1-.4.13-.13.03-.29.04-.47.04-.26,0-.48-.05-.67-.16-.19-.11-.34-.26-.45-.46-.11-.2-.16-.45-.16-.75s.05-.54.15-.75c.1-.21.23-.37.41-.49.18-.11.38-.17.62-.17ZM224.74,30.09c-.22,0-.39.07-.52.21-.13.14-.21.34-.23.59h1.42c0-.16-.03-.3-.07-.42-.05-.12-.12-.22-.22-.28-.1-.07-.22-.1-.38-.1Z"/>
  <path class="cls-1" d="M227.59,32.53c-.24,0-.45-.05-.64-.15-.18-.1-.33-.25-.43-.45s-.15-.46-.15-.77.05-.59.16-.79c.11-.21.26-.36.45-.46s.41-.15.65-.15c.13,0,.26.01.39.04.12.03.23.06.31.1l-.12.34c-.08-.03-.18-.06-.28-.09s-.21-.04-.3-.04c-.19,0-.34.04-.46.12s-.21.2-.28.35c-.06.15-.09.35-.09.57s.03.4.09.55.15.27.27.35c.12.08.27.12.44.12.14,0,.27-.02.38-.04.11-.03.22-.07.31-.11v.36c-.09.05-.19.08-.3.1-.11.02-.24.04-.39.04Z"/>
  <path class="cls-1" d="M229.32,28.68v1.14c0,.06,0,.13,0,.2,0,.07,0,.13-.02.18h.03c.05-.09.12-.17.21-.24.08-.06.18-.11.29-.15.11-.03.22-.05.35-.05.21,0,.39.03.54.1.14.07.25.17.32.32.07.14.11.33.11.56v1.74h-.4v-1.72c0-.22-.05-.39-.15-.5-.1-.11-.26-.17-.47-.17s-.36.04-.48.11c-.12.08-.2.19-.25.33-.05.15-.08.33-.08.54v1.4h-.41v-3.8h.41Z"/>
  <path class="cls-1" d="M234.29,31.14c0,.22-.03.42-.08.59-.06.17-.14.32-.25.44s-.24.21-.39.27c-.15.06-.32.09-.52.09-.18,0-.34-.03-.49-.09-.15-.06-.28-.15-.39-.27s-.19-.26-.25-.44c-.06-.17-.09-.37-.09-.59,0-.29.05-.54.15-.75.1-.21.24-.36.43-.47.18-.11.41-.16.66-.16s.46.05.64.16c.18.11.33.27.43.47.1.21.15.45.15.75ZM232.25,31.14c0,.21.03.4.09.56.06.16.14.28.26.37.12.09.27.13.46.13s.34-.04.46-.13c.12-.09.21-.21.27-.37.06-.16.08-.34.08-.56s-.03-.4-.08-.55c-.06-.16-.15-.28-.26-.36-.12-.08-.27-.13-.46-.13-.28,0-.48.09-.61.28-.13.18-.19.44-.19.76Z"/>
  <path class="cls-1" d="M236.72,31.75c0,.17-.04.31-.13.43-.09.12-.21.2-.37.26-.16.06-.35.09-.57.09-.19,0-.35-.01-.49-.04s-.26-.07-.36-.12v-.37c.11.05.24.1.39.15s.31.07.46.07c.23,0,.4-.04.5-.11.1-.07.16-.18.16-.31,0-.07-.02-.14-.06-.19-.04-.06-.11-.11-.21-.16-.1-.05-.23-.11-.41-.17-.17-.06-.32-.13-.44-.19-.12-.06-.22-.14-.29-.24-.07-.09-.1-.21-.1-.36,0-.23.09-.4.27-.52.18-.12.42-.18.72-.18.16,0,.31.02.45.05.14.03.27.07.39.13l-.14.32c-.11-.05-.23-.09-.35-.12-.13-.03-.25-.05-.38-.05-.19,0-.33.03-.43.09-.1.06-.15.15-.15.25,0,.08.02.15.07.21.05.05.12.1.22.15s.24.1.41.17c.17.06.31.13.43.19.12.07.22.15.28.24.07.09.1.21.1.36Z"/>
  <path class="cls-1" d="M239.89,29.76c.05,0,.11,0,.17,0,.06,0,.11.01.16.02l-.05.38s-.09-.02-.15-.03-.1,0-.15,0c-.11,0-.21.02-.3.06-.09.04-.18.11-.25.19-.07.08-.13.18-.17.29-.04.11-.06.24-.06.38v1.44h-.41v-2.68h.34l.04.49h.02c.06-.1.12-.19.2-.27.08-.08.17-.15.27-.2s.22-.07.35-.07Z"/>
  <path class="cls-1" d="M241.74,29.76c.23,0,.42.05.59.15.16.1.29.24.37.42.09.18.13.39.13.64v.25h-1.85c0,.31.08.55.23.72s.36.25.64.25c.17,0,.32-.02.45-.05.13-.03.26-.08.41-.14v.36c-.14.06-.27.1-.4.13-.13.03-.29.04-.47.04-.26,0-.48-.05-.67-.16-.19-.11-.34-.26-.45-.46-.11-.2-.16-.45-.16-.75s.05-.54.15-.75c.1-.21.23-.37.41-.49.18-.11.38-.17.62-.17ZM241.74,30.09c-.22,0-.39.07-.52.21-.13.14-.21.34-.23.59h1.42c0-.16-.03-.3-.07-.42-.05-.12-.12-.22-.22-.28-.1-.07-.22-.1-.38-.1Z"/>
  <path class="cls-1" d="M245.25,31.75c0,.17-.04.31-.13.43-.09.12-.21.2-.37.26-.16.06-.35.09-.57.09-.19,0-.35-.01-.49-.04s-.26-.07-.36-.12v-.37c.11.05.24.1.39.15s.31.07.46.07c.23,0,.4-.04.5-.11.1-.07.16-.18.16-.31,0-.07-.02-.14-.06-.19-.04-.06-.11-.11-.21-.16-.1-.05-.23-.11-.41-.17-.17-.06-.32-.13-.44-.19-.12-.06-.22-.14-.29-.24s-.1-.21-.1-.36c0-.23.09-.4.28-.52.18-.12.42-.18.72-.18.16,0,.31.02.45.05.14.03.27.07.39.13l-.14.32c-.11-.05-.23-.09-.35-.12-.12-.03-.25-.05-.38-.05-.19,0-.33.03-.43.09-.1.06-.15.15-.15.25,0,.08.02.15.07.21.05.05.12.1.22.15s.24.1.41.17c.17.06.31.13.43.19.12.07.22.15.28.24.07.09.1.21.1.36Z"/>
  <path class="cls-1" d="M246.93,29.76c.23,0,.42.05.59.15.16.1.29.24.37.42.09.18.13.39.13.64v.25h-1.85c0,.31.08.55.23.72s.36.25.64.25c.17,0,.32-.02.45-.05.13-.03.26-.08.41-.14v.36c-.14.06-.27.1-.4.13-.13.03-.29.04-.47.04-.26,0-.48-.05-.67-.16-.19-.11-.34-.26-.45-.46-.11-.2-.16-.45-.16-.75s.05-.54.15-.75c.1-.21.23-.37.41-.49.18-.11.38-.17.62-.17ZM246.93,30.09c-.22,0-.39.07-.52.21-.13.14-.21.34-.23.59h1.42c0-.16-.03-.3-.07-.42-.05-.12-.12-.22-.22-.28-.1-.07-.22-.1-.38-.1Z"/>
  <path class="cls-1" d="M249.93,29.76c.05,0,.11,0,.17,0,.06,0,.11.01.16.02l-.05.38s-.09-.02-.15-.03-.1,0-.15,0c-.11,0-.21.02-.3.06-.09.04-.18.11-.25.19-.07.08-.13.18-.17.29-.04.11-.06.24-.06.38v1.44h-.41v-2.68h.34l.04.49h.02c.05-.1.12-.19.2-.27.08-.08.17-.15.27-.2.1-.05.22-.07.34-.07Z"/>
  <path class="cls-1" d="M251.34,32.48l-1.02-2.68h.43l.59,1.62c.04.11.08.23.12.37.04.13.07.24.09.32h.02c.02-.08.05-.19.1-.32.04-.13.09-.26.12-.36l.59-1.62h.43l-1.02,2.68h-.46Z"/>
  <path class="cls-1" d="M254.25,29.76c.32,0,.56.07.71.21.15.14.23.37.23.69v1.82h-.29l-.08-.4h-.02c-.08.1-.15.18-.23.25-.08.07-.18.12-.28.15-.11.03-.24.05-.39.05-.16,0-.31-.03-.43-.09s-.23-.14-.3-.26-.11-.26-.11-.44c0-.27.11-.47.32-.62.21-.14.53-.22.97-.23l.46-.02v-.16c0-.23-.05-.39-.15-.49-.1-.09-.24-.14-.42-.14-.14,0-.27.02-.4.06s-.25.09-.36.14l-.12-.31c.12-.06.26-.11.42-.16s.32-.07.49-.07ZM254.79,31.16l-.41.02c-.33.01-.57.07-.71.16s-.21.23-.21.41c0,.15.05.27.14.34s.22.11.37.11c.24,0,.43-.07.58-.2s.23-.33.23-.59v-.25Z"/>
  <path class="cls-1" d="M256.98,32.53c-.34,0-.61-.12-.8-.35-.2-.23-.3-.57-.3-1.03s.1-.81.3-1.04c.2-.23.47-.35.81-.35.14,0,.26.02.37.06.11.04.2.09.27.15.08.06.14.13.19.21h.03c0-.05-.01-.12-.02-.21,0-.09,0-.16,0-.21v-1.07h.41v3.8h-.33l-.06-.38h-.02c-.05.08-.11.15-.19.22s-.17.12-.28.15c-.11.04-.23.06-.38.06ZM257.05,32.19c.29,0,.49-.08.61-.24.12-.16.18-.4.18-.73v-.07c0-.34-.06-.6-.17-.78-.11-.18-.32-.27-.62-.27-.25,0-.44.1-.56.29-.12.19-.19.45-.19.78s.06.58.18.76c.12.18.31.27.56.27Z"/>
  <path class="cls-1" d="M261.4,31.14c0,.22-.03.42-.08.59-.06.17-.14.32-.25.44s-.24.21-.39.27c-.15.06-.32.09-.52.09-.18,0-.34-.03-.49-.09-.15-.06-.28-.15-.39-.27s-.19-.26-.25-.44c-.06-.17-.09-.37-.09-.59,0-.29.05-.54.15-.75.1-.21.24-.36.43-.47.18-.11.41-.16.66-.16s.46.05.64.16c.18.11.33.27.43.47.1.21.15.45.15.75ZM259.36,31.14c0,.21.03.4.09.56.06.16.14.28.26.37.12.09.27.13.46.13s.34-.04.46-.13c.12-.09.21-.21.27-.37.06-.16.08-.34.08-.56s-.03-.4-.08-.55c-.06-.16-.15-.28-.26-.36-.12-.08-.27-.13-.46-.13-.28,0-.48.09-.61.28-.13.18-.19.44-.19.76Z"/>
  <path class="cls-1" d="M263.83,31.75c0,.17-.04.31-.13.43-.09.12-.21.2-.37.26-.16.06-.35.09-.57.09-.19,0-.35-.01-.49-.04s-.26-.07-.36-.12v-.37c.11.05.24.1.39.15s.31.07.46.07c.23,0,.4-.04.5-.11.1-.07.16-.18.16-.31,0-.07-.02-.14-.06-.19-.04-.06-.11-.11-.21-.16-.1-.05-.23-.11-.41-.17-.17-.06-.32-.13-.44-.19-.12-.06-.22-.14-.29-.24-.07-.09-.1-.21-.1-.36,0-.23.09-.4.27-.52.18-.12.42-.18.72-.18.16,0,.31.02.45.05.14.03.27.07.39.13l-.14.32c-.11-.05-.23-.09-.35-.12-.13-.03-.25-.05-.38-.05-.19,0-.33.03-.43.09-.1.06-.15.15-.15.25,0,.08.02.15.07.21.05.05.12.1.22.15s.24.1.41.17c.17.06.31.13.43.19.12.07.22.15.28.24.07.09.1.21.1.36Z"/>
</svg>