<?xml version="1.0" encoding="UTF-8"?>
<svg id="Capa_1" xmlns="http://www.w3.org/2000/svg" version="1.1" xmlns:xlink="http://www.w3.org/1999/xlink" viewBox="0 0 800 386">
  <!-- Generator: Adobe Illustrator 29.2.1, SVG Export Plug-In . SVG Version: 2.1.0 Build 116)  -->
  <defs>
    <style>
      .st0 {
        fill: #44474b;
      }
    </style>
  </defs>
  <path class="st0" d="M631.1,128.1c-14,0-25.4,11.4-25.4,25.5v24.9h50.9v-24.9c0-14.1-11.5-25.5-25.5-25.5Z"/>
  <path class="st0" d="M701.7,7.1H98.3C44.3,7.1,0,51.4,0,105.4v173.3c0,54.1,44.3,98.3,98.3,98.3h603.5c54,0,98.3-44.2,98.3-98.3V105.4c0-54-44.3-98.3-98.3-98.3ZM213.8,218.8l23.6,25.7-40.8,30.6-16.7-30.6c-2.5-4.4-6.3-13-11.8-25.7-5.9,14-9.9,22.5-11.8,25.7l-17,30.6-42-30.6,25.4-25.7c7.1-7.1,14.1-13.1,20.9-18.1-7-.6-16.2-1.9-27.5-4.1l-35.1-5.7,16.3-47.9,31.5,14.3c3.3,1.5,11.6,6.2,24.7,14-2.8-12.7-4.6-22.2-5.4-28.4l-4.5-34.3h50.1l-4.1,34.3c-.9,8.3-2.8,17.8-5.7,28.4,5.8-2.9,9.6-4.8,11.4-5.9,6.3-3.5,11.2-6,14.5-7.5l31.5-15,15.6,47.9-34.9,7.3c-6.4,1.2-15.8,2-28.4,2.5,8.5,6.7,15.2,12.7,20.2,18.1ZM444.9,218.8l23.6,25.7-40.8,30.6-16.7-30.6c-2.5-4.4-6.3-13-11.7-25.7-6,14-9.9,22.5-11.8,25.7l-17,30.6-42-30.6,25.4-25.7c7.1-7.1,14.1-13.1,20.9-18.1-6.9-.6-16.2-1.9-27.5-4.1l-35.2-5.7,16.3-47.9,31.5,14.3c3.3,1.5,11.6,6.2,24.7,14-2.9-12.7-4.7-22.2-5.4-28.4l-4.5-34.2h50.1l-4.1,34.2c-.9,8.3-2.8,17.8-5.7,28.4,5.7-2.9,9.5-4.8,11.4-5.9,6.3-3.5,11.2-6,14.5-7.5l31.6-15,15.6,47.9-34.9,7.3c-6.4,1.2-15.8,2-28.4,2.5,8.5,6.7,15.1,12.7,20.1,18.1ZM703.8,262.2c0,10.5-8.6,19.1-19.1,19.1h-107.1c-10.5,0-19.1-8.6-19.1-19.1v-64.6c0-10.5,8.6-19.1,19.1-19.1h2.6v-24.9c0-28.1,22.9-51,51-51s51,22.9,51,51v24.9h2.6c10.5,0,19.1,8.6,19.1,19.1v64.6h0Z"/>
</svg>