<svg width="51" height="50" viewBox="0 0 51 50" fill="none" xmlns="http://www.w3.org/2000/svg">
<path fill-rule="evenodd" clip-rule="evenodd" d="M23.1562 7.02832C23.5877 7.02832 23.9375 7.37808 23.9375 7.80957V22.6533C23.9375 23.0848 23.5877 23.4346 23.1562 23.4346H8.3125C7.88101 23.4346 7.53125 23.0848 7.53125 22.6533V7.80957C7.53125 7.37808 7.88101 7.02832 8.3125 7.02832H23.1562ZM20.6172 10.3486H10.8516V20.1143H20.6172V10.3486ZM44.7057 14.6302C45.0108 14.9353 45.0108 15.4299 44.7057 15.735L35.8668 24.5739C35.5618 24.879 35.0671 24.879 34.762 24.5739L25.9232 15.735C25.6181 15.4299 25.6181 14.9353 25.9232 14.6302L34.7621 5.79131C35.0671 5.48623 35.5618 5.48623 35.8669 5.79131L44.7057 14.6302ZM40.5625 15.1826L35.3145 9.93457L30.0664 15.1826L35.3145 20.4307L40.5625 15.1826ZM23.1562 26.5596C23.5877 26.5596 23.9375 26.9094 23.9375 27.3408V42.1846C23.9375 42.6161 23.5877 42.9658 23.1562 42.9658H8.3125C7.88101 42.9658 7.53125 42.6161 7.53125 42.1846V27.3408C7.53125 26.9094 7.88101 26.5596 8.3125 26.5596H23.1562ZM20.6172 29.8799H10.8516V39.6455H20.6172V29.8799ZM42.6875 26.5596C43.119 26.5596 43.4688 26.9094 43.4688 27.3408V42.1846C43.4688 42.6161 43.119 42.9658 42.6875 42.9658H27.8438C27.4123 42.9658 27.0625 42.6161 27.0625 42.1846V27.3408C27.0625 26.9094 27.4123 26.5596 27.8438 26.5596H42.6875ZM40.1484 29.8799H30.3828V39.6455H40.1484V29.8799Z" fill="#014745"/>
</svg>
