<svg width="30" height="30" viewBox="0 0 30 30" fill="none" xmlns="http://www.w3.org/2000/svg">
<g clip-path="url(#clip0_2764_346)">
<mask id="mask0_2764_346" style="mask-type:luminance" maskUnits="userSpaceOnUse" x="0" y="0" width="30" height="30">
<path d="M30 0H0V30H30V0Z" fill="white"/>
</mask>
<g mask="url(#mask0_2764_346)">
<path d="M23.7095 18.583C23.0953 17.9435 22.3545 17.6016 21.5694 17.6016C20.7906 17.6016 20.0434 17.9372 19.4039 18.5767L17.4031 20.5712C17.2385 20.4825 17.0739 20.4002 16.9156 20.3179C16.6876 20.2039 16.4723 20.0963 16.2887 19.9823C14.4145 18.792 12.7113 17.2407 11.0777 15.2335C10.2863 14.2331 9.75441 13.391 9.36817 12.5362C9.88737 12.0614 10.3686 11.5675 10.8371 11.0926C11.0144 10.9153 11.1917 10.7317 11.369 10.5544C12.6987 9.22479 12.6987 7.50256 11.369 6.1729L9.64044 4.44434C9.44415 4.24806 9.24154 4.04544 9.05159 3.84283C8.67169 3.45026 8.27279 3.04504 7.86123 2.66514C7.24705 2.0573 6.51258 1.73438 5.74011 1.73438C4.96764 1.73438 4.2205 2.0573 3.58733 2.66514C3.581 2.67147 3.581 2.67147 3.57466 2.67781L1.42188 4.84958C0.611426 5.66004 0.149212 6.64778 0.0479045 7.79381C-0.104056 9.64267 0.44047 11.3649 0.858363 12.4919C1.8841 15.2589 3.41637 17.8232 5.70212 20.5712C8.4754 23.8827 11.8122 26.4976 15.6239 28.3402C17.0802 29.0303 19.024 29.8471 21.1958 29.9864C21.3288 29.9928 21.4681 29.9991 21.5947 29.9991C23.0573 29.9991 24.2857 29.4736 25.2481 28.4288C25.2544 28.4162 25.2671 28.4098 25.2734 28.3972C25.6027 27.9983 25.9826 27.6374 26.3815 27.2511C26.6537 26.9915 26.9323 26.7193 27.2046 26.4343C27.8314 25.7822 28.1607 25.0224 28.1607 24.2436C28.1607 23.4584 27.8251 22.705 27.1856 22.0718L23.7095 18.583ZM25.9762 25.2503C25.9699 25.2566 25.9699 25.2503 25.9762 25.2503C25.7293 25.5162 25.476 25.7568 25.2038 26.0228C24.7922 26.4153 24.3743 26.8269 23.9818 27.2891C23.3422 27.9729 22.5888 28.2959 21.601 28.2959C21.5061 28.2959 21.4047 28.2959 21.3098 28.2895C19.4293 28.1692 17.6817 27.4347 16.371 26.8079C12.7873 25.073 9.64044 22.61 7.02544 19.4885C4.86633 16.8861 3.4227 14.4801 2.46662 11.8967C1.87777 10.3201 1.66249 9.09181 1.75747 7.93312C1.82078 7.19231 2.10571 6.57813 2.63124 6.0526L4.79035 3.89349C5.10061 3.60223 5.42985 3.44394 5.75277 3.44394C6.15167 3.44394 6.47459 3.68455 6.6772 3.88716C6.68353 3.89349 6.68986 3.89982 6.6962 3.90616C7.08243 4.26706 7.44967 4.64063 7.8359 5.03953C8.03218 5.24215 8.2348 5.44475 8.43741 5.6537L10.166 7.38226C10.8371 8.05342 10.8371 8.67392 10.166 9.34508C9.98235 9.5287 9.80506 9.71233 9.62144 9.88962C9.08958 10.4341 8.58304 10.9407 8.03219 11.4345C8.01952 11.4472 8.00686 11.4535 8.00053 11.4662C7.456 12.0107 7.55731 12.5426 7.67128 12.9035C7.67761 12.9225 7.68394 12.9415 7.69027 12.9605C8.13982 14.0495 8.77299 15.0753 9.73541 16.2973L9.74175 16.3036C11.4893 18.4564 13.3318 20.1343 15.3643 21.4196C15.6239 21.5842 15.8898 21.7172 16.1431 21.8438C16.371 21.9578 16.5863 22.0655 16.7699 22.1794C16.7953 22.1921 16.8206 22.2111 16.8459 22.2238C17.0612 22.3314 17.2638 22.382 17.4728 22.382C17.9983 22.382 18.3275 22.0528 18.4352 21.9452L20.6006 19.7797C20.8159 19.5644 21.1578 19.3048 21.5567 19.3048C21.9493 19.3048 22.2722 19.5518 22.4685 19.767C22.4748 19.7734 22.4748 19.7734 22.4811 19.7797L25.9699 23.2685C26.6221 23.9143 26.6221 24.5791 25.9762 25.2503Z" fill="#00BC72"/>
<path d="M16.2127 7.13318C17.8717 7.41177 19.3786 8.1969 20.5816 9.39993C21.7846 10.603 22.5634 12.1099 22.8484 13.7688C22.918 14.1867 23.2789 14.478 23.6905 14.478C23.7411 14.478 23.7855 14.4717 23.8361 14.4653C24.3047 14.3893 24.6149 13.9461 24.5389 13.4776C24.197 11.4704 23.2473 9.64053 21.7973 8.19057C20.3474 6.74061 18.5175 5.79086 16.5103 5.44894C16.0418 5.37296 15.6049 5.68322 15.5226 6.14543C15.4403 6.60765 15.7442 7.0572 16.2127 7.13318Z" fill="#00BC72"/>
<path d="M29.9652 13.2336C29.4016 9.92848 27.844 6.92092 25.4507 4.52754C23.0573 2.13415 20.0497 0.576553 16.7446 0.0130316C16.2823 -0.0692806 15.8455 0.247305 15.7631 0.709519C15.6872 1.17807 15.9974 1.61495 16.466 1.69727C19.4165 2.19747 22.1075 3.59678 24.2476 5.73056C26.3877 7.87068 27.7807 10.5617 28.2809 13.5122C28.3506 13.9301 28.7115 14.2214 29.123 14.2214C29.1737 14.2214 29.218 14.215 29.2687 14.2087C29.7309 14.1391 30.0475 13.6958 29.9652 13.2336Z" fill="#00BC72"/>
</g>
</g>
<defs>
<clipPath id="clip0_2764_346">
<rect width="30" height="30" fill="white"/>
</clipPath>
</defs>
</svg>
