<svg width="51" height="50" viewBox="0 0 51 50" fill="none" xmlns="http://www.w3.org/2000/svg">
<g clip-path="url(#clip0_2345_93)">
<path d="M39.2224 50C42.1232 50 44.9052 48.8477 46.9564 46.7965C49.0076 44.7453 50.1599 41.9633 50.1599 39.0625C50.1599 36.1617 49.0076 33.3797 46.9564 31.3285C44.9052 29.2773 42.1232 28.125 39.2224 28.125C36.3216 28.125 33.5396 29.2773 31.4884 31.3285C29.4373 33.3797 28.2849 36.1617 28.2849 39.0625C28.2849 41.9633 29.4373 44.7453 31.4884 46.7965C33.5396 48.8477 36.3216 50 39.2224 50ZM44.4693 35.9594L40.2974 42.9156C40.1141 43.2212 39.8635 43.481 39.5646 43.6752C39.2658 43.8694 38.9266 43.9929 38.5729 44.0363C38.2192 44.0797 37.8602 44.0418 37.5233 43.9256C37.1864 43.8094 36.8804 43.6179 36.6287 43.3656L34.2099 40.95C33.9165 40.6566 33.7517 40.2587 33.7517 39.8438C33.7517 39.4288 33.9165 39.0309 34.2099 38.7375C34.5033 38.4441 34.9012 38.2793 35.3162 38.2793C35.7311 38.2793 36.129 38.4441 36.4224 38.7375L38.1318 40.45L41.788 34.3531C41.8935 34.1771 42.0326 34.0235 42.1974 33.9012C42.3622 33.7789 42.5495 33.6903 42.7486 33.6404C42.9477 33.5905 43.1546 33.5803 43.3576 33.6103C43.5606 33.6404 43.7557 33.7102 43.9318 33.8156C44.1078 33.9211 44.2614 34.0602 44.3837 34.225C44.506 34.3898 44.5946 34.5771 44.6445 34.7762C44.6944 34.9752 44.7046 35.1822 44.6746 35.3852C44.6445 35.5882 44.5748 35.7833 44.4693 35.9594ZM34.5349 15.625C34.5349 18.1114 33.5472 20.496 31.789 22.2541C30.0309 24.0123 27.6463 25 25.1599 25C22.6735 25 20.2889 24.0123 18.5308 22.2541C16.7726 20.496 15.7849 18.1114 15.7849 15.625C15.7849 13.1386 16.7726 10.754 18.5308 8.99587C20.2889 7.23772 22.6735 6.25 25.1599 6.25C27.6463 6.25 30.0309 7.23772 31.789 8.99587C33.5472 10.754 34.5349 13.1386 34.5349 15.625ZM25.1599 21.875C26.8175 21.875 28.4072 21.2165 29.5793 20.0444C30.7514 18.8723 31.4099 17.2826 31.4099 15.625C31.4099 13.9674 30.7514 12.3777 29.5793 11.2056C28.4072 10.0335 26.8175 9.375 25.1599 9.375C23.5023 9.375 21.9126 10.0335 20.7405 11.2056C19.5684 12.3777 18.9099 13.9674 18.9099 15.625C18.9099 17.2826 19.5684 18.8723 20.7405 20.0444C21.9126 21.2165 23.5023 21.875 25.1599 21.875Z" fill="#014745"/>
<path d="M25.9599 43.75C25.6021 42.735 25.362 41.6823 25.2443 40.6125H9.53491C9.53804 39.8438 10.0162 37.5312 12.1349 35.4125C14.1724 33.375 18.0068 31.25 25.1599 31.25C25.9724 31.25 26.7432 31.276 27.4724 31.3281C28.1787 30.2625 29.0224 29.2969 29.9849 28.4594C28.5266 28.2406 26.9182 28.1292 25.1599 28.125C9.53491 28.125 6.40991 37.5 6.40991 40.625C6.40991 43.75 9.53491 43.75 9.53491 43.75H25.9599Z" fill="#014745"/>
</g>
<defs>
<clipPath id="clip0_2345_93">
<rect width="50" height="50" fill="white" transform="translate(0.159912)"/>
</clipPath>
</defs>
</svg>
