<svg width="30" height="30" viewBox="0 0 30 30" fill="none" xmlns="http://www.w3.org/2000/svg">
<path d="M20.0084 19.8214C23.2007 14.812 22.7994 15.437 22.8914 15.3064C24.0537 13.6671 24.668 11.7376 24.668 9.72656C24.668 4.39336 20.3402 0 15 0C9.67723 0 5.33203 4.38469 5.33203 9.72656C5.33203 11.7363 5.95922 13.7163 7.15957 15.3777L9.99152 19.8214C6.96369 20.2867 1.81641 21.6734 1.81641 24.7266C1.81641 25.8396 2.54285 27.4257 6.00363 28.6617C8.42016 29.5247 11.6151 30 15 30C21.3296 30 28.1836 28.2145 28.1836 24.7266C28.1836 21.6728 23.0423 20.2877 20.0084 19.8214ZM8.62787 14.4108C8.6182 14.3957 8.60812 14.381 8.59758 14.3664C7.59873 12.9923 7.08984 11.3637 7.08984 9.72656C7.08984 5.33098 10.6293 1.75781 15 1.75781C19.3617 1.75781 22.9102 5.33256 22.9102 9.72656C22.9102 11.3664 22.4109 12.9397 21.4661 14.2776C21.3814 14.3893 21.8231 13.703 15 24.4095L8.62787 14.4108ZM15 28.2422C8.08629 28.2422 3.57422 26.21 3.57422 24.7266C3.57422 23.7295 5.89266 22.0901 11.0302 21.4511L14.2588 26.5173C14.4202 26.7705 14.6996 26.9238 14.9999 26.9238C15.3002 26.9238 15.5798 26.7705 15.7411 26.5173L18.9697 21.4511C24.1073 22.0901 26.4258 23.7295 26.4258 24.7266C26.4258 26.1974 21.9543 28.2422 15 28.2422Z" fill="#00BC72"/>
<path d="M15 5.32812C12.5769 5.32812 10.6055 7.29951 10.6055 9.72265C10.6055 12.1458 12.5769 14.1172 15 14.1172C17.4231 14.1172 19.3945 12.1458 19.3945 9.72265C19.3945 7.29951 17.4231 5.32812 15 5.32812ZM15 12.3594C13.5461 12.3594 12.3633 11.1765 12.3633 9.72265C12.3633 8.26877 13.5461 7.08594 15 7.08594C16.4539 7.08594 17.6367 8.26877 17.6367 9.72265C17.6367 11.1765 16.4539 12.3594 15 12.3594Z" fill="#00BC72"/>
</svg>
