<svg width="30" height="30" viewBox="0 0 30 30" fill="none" xmlns="http://www.w3.org/2000/svg">
<g clip-path="url(#clip0_2773_866)">
<mask id="mask0_2773_866" style="mask-type:luminance" maskUnits="userSpaceOnUse" x="0" y="0" width="30" height="30">
<path d="M30 0H0V30H30V0Z" fill="white"/>
</mask>
<g mask="url(#mask0_2773_866)">
<path d="M23.7091 18.583C23.0949 17.9435 22.3541 17.6016 21.569 17.6016C20.7902 17.6016 20.0431 17.9372 19.4036 18.5767L17.4027 20.5712C17.2381 20.4825 17.0735 20.4002 16.9152 20.3179C16.6873 20.2039 16.472 20.0963 16.2884 19.9823C14.4142 18.792 12.7109 17.2407 11.0774 15.2336C10.2859 14.2331 9.75404 13.391 9.36781 12.5362C9.88701 12.0614 10.3682 11.5675 10.8368 11.0926C11.0141 10.9153 11.1913 10.7317 11.3686 10.5544C12.6983 9.22478 12.6983 7.50256 11.3686 6.1729L9.64007 4.44434C9.44379 4.24806 9.24117 4.04544 9.05122 3.84283C8.67132 3.45026 8.27242 3.04503 7.86086 2.66513C7.24669 2.05729 6.51221 1.73438 5.73974 1.73438C4.96727 1.73438 4.22013 2.05729 3.58696 2.66513C3.58063 2.67146 3.58063 2.67146 3.5743 2.67779L1.42152 4.84958C0.61106 5.66004 0.148846 6.64778 0.0475385 7.79382C-0.104423 9.64268 0.440104 11.3649 0.857997 12.4919C1.88373 15.2589 3.41601 17.8232 5.70175 20.5712C8.47504 23.8827 11.8118 26.4977 15.6235 28.3402C17.0798 29.0303 19.0237 29.8471 21.1954 29.9864C21.3284 29.9928 21.4677 29.9991 21.5943 29.9991C23.057 29.9991 24.2853 29.4736 25.2477 28.4288C25.2541 28.4162 25.2667 28.4098 25.2731 28.3972C25.6023 27.9983 25.9822 27.6374 26.3811 27.2511C26.6534 26.9915 26.932 26.7193 27.2042 26.4343C27.8311 25.7822 28.1603 25.0224 28.1603 24.2436C28.1603 23.4584 27.8247 22.705 27.1852 22.0718L23.7091 18.583ZM25.9759 25.2503C25.9695 25.2566 25.9695 25.2503 25.9759 25.2503C25.7289 25.5162 25.4757 25.7568 25.2034 26.0228C24.7918 26.4153 24.374 26.8269 23.9814 27.2891C23.3419 27.9729 22.5884 28.2959 21.6007 28.2959C21.5057 28.2959 21.4044 28.2959 21.3094 28.2895C19.4289 28.1692 17.6813 27.4348 16.3707 26.8079C12.7869 25.073 9.64007 22.61 7.02508 19.4885C4.86597 16.8861 3.42234 14.4801 2.46625 11.8967C1.8774 10.3202 1.66212 9.09181 1.7571 7.93312C1.82042 7.19231 2.10534 6.57813 2.63087 6.0526L4.78999 3.89349C5.10024 3.60223 5.42949 3.44393 5.75241 3.44393C6.1513 3.44393 6.47422 3.68455 6.67683 3.88716C6.68317 3.89349 6.6895 3.89982 6.69583 3.90616C7.08206 4.26706 7.4493 4.64063 7.83554 5.03953C8.03182 5.24215 8.23443 5.44476 8.43705 5.65371L10.1656 7.38226C10.8368 8.05342 10.8368 8.67393 10.1656 9.34509C9.98198 9.52871 9.8047 9.71233 9.62108 9.88962C9.08921 10.4341 8.58268 10.9407 8.03182 11.4345C8.01916 11.4472 8.00649 11.4535 8.00016 11.4662C7.45563 12.0107 7.55694 12.5426 7.67091 12.9035C7.67724 12.9225 7.68358 12.9415 7.68991 12.9605C8.13946 14.0495 8.77263 15.0753 9.73505 16.2973L9.74138 16.3036C11.4889 18.4564 13.3315 20.1343 15.3639 21.4196C15.6235 21.5843 15.8895 21.7172 16.1427 21.8439C16.3707 21.9578 16.586 22.0655 16.7696 22.1794C16.7949 22.1921 16.8202 22.2111 16.8456 22.2238C17.0608 22.3314 17.2634 22.3821 17.4724 22.3821C17.9979 22.3821 18.3272 22.0528 18.4348 21.9452L20.6003 19.7797C20.8155 19.5644 21.1574 19.3048 21.5563 19.3048C21.9489 19.3048 22.2718 19.5518 22.4681 19.7671C22.4744 19.7734 22.4744 19.7734 22.4808 19.7797L25.9695 23.2685C26.6217 23.9143 26.6217 24.5792 25.9759 25.2503Z" fill="#00BC72"/>
<path d="M16.2114 7.13318C17.8703 7.41177 19.3773 8.1969 20.5803 9.39993C21.7833 10.603 22.5621 12.1099 22.847 13.7688C22.9167 14.1867 23.2776 14.478 23.6892 14.478C23.7398 14.478 23.7841 14.4717 23.8348 14.4653C24.3033 14.3893 24.6136 13.9461 24.5376 13.4776C24.1957 11.4704 23.2459 9.64053 21.796 8.19057C20.346 6.74061 18.5161 5.79086 16.509 5.44894C16.0405 5.37296 15.6036 5.68322 15.5213 6.14543C15.4389 6.60765 15.7429 7.0572 16.2114 7.13318Z" fill="#00BC72"/>
<path d="M29.9654 13.2336C29.4019 9.92848 27.8443 6.92092 25.4509 4.52754C23.0575 2.13415 20.05 0.576553 16.7448 0.0130316C16.2826 -0.0692806 15.8457 0.247305 15.7634 0.709519C15.6874 1.17807 15.9977 1.61495 16.4662 1.69727C19.4168 2.19747 22.1078 3.59678 24.2479 5.73056C26.388 7.87068 27.781 10.5617 28.2812 13.5122C28.3508 13.9301 28.7117 14.2214 29.1233 14.2214C29.1739 14.2214 29.2183 14.215 29.2689 14.2087C29.7311 14.1391 30.0477 13.6958 29.9654 13.2336Z" fill="#00BC72"/>
</g>
</g>
<defs>
<clipPath id="clip0_2773_866">
<rect width="30" height="30" fill="white"/>
</clipPath>
</defs>
</svg>
