<svg width="51" height="50" viewBox="0 0 51 50" fill="none" xmlns="http://www.w3.org/2000/svg">
<path d="M40.955 36.4583C40.955 37.8397 40.4062 39.1644 39.4295 40.1412C38.4527 41.1179 37.128 41.6667 35.7466 41.6667C34.3653 41.6667 33.0405 41.1179 32.0638 40.1412C31.087 39.1644 30.5383 37.8397 30.5383 36.4583C30.5383 35.077 31.087 33.7522 32.0638 32.7755C33.0405 31.7987 34.3653 31.25 35.7466 31.25C37.128 31.25 38.4527 31.7987 39.4295 32.7755C40.4062 33.7522 40.955 35.077 40.955 36.4583ZM20.1216 36.4583C20.1216 37.8397 19.5729 39.1644 18.5961 40.1412C17.6194 41.1179 16.2946 41.6667 14.9133 41.6667C13.532 41.6667 12.2072 41.1179 11.2304 40.1412C10.2537 39.1644 9.70496 37.8397 9.70496 36.4583C9.70496 35.077 10.2537 33.7522 11.2304 32.7755C12.2072 31.7987 13.532 31.25 14.9133 31.25C16.2946 31.25 17.6194 31.7987 18.5961 32.7755C19.5729 33.7522 20.1216 35.077 20.1216 36.4583Z" stroke="black" stroke-width="2.5" stroke-linecap="round" stroke-linejoin="round"/>
<path d="M30.5383 36.4609H20.1216M4.49658 8.33594H25.3299C28.2758 8.33594 29.7487 8.33594 30.6633 9.2526C31.5799 10.1651 31.5799 11.638 31.5799 14.5859V32.2943M32.6216 13.5443H36.3737C38.1028 13.5443 38.9674 13.5443 39.6841 13.9505C40.4008 14.3547 40.8445 15.0964 41.7341 16.5797L45.2737 22.4755C45.7153 23.213 45.9362 23.5839 46.0508 23.9922C46.1633 24.4026 46.1633 24.8318 46.1633 25.6922V31.2526C46.1633 33.2005 46.1633 34.1734 45.7445 34.8984C45.4702 35.3735 45.0758 35.7679 44.6008 36.0422C43.8758 36.4609 42.9028 36.4609 40.9549 36.4609M4.49658 27.0859V31.2526C4.49658 33.2005 4.49658 34.1734 4.91533 34.8984C5.1896 35.3735 5.58406 35.7679 6.05908 36.0422C6.78408 36.4609 7.757 36.4609 9.70492 36.4609M4.49658 14.5859H16.9966M4.49658 20.8359H12.8299" stroke="black" stroke-width="2.5" stroke-linecap="round" stroke-linejoin="round"/>
</svg>
